<?xml version="1.0" encoding="utf-8"?>
<!-- Generator: Adobe Illustrator 25.0.1, SVG Export Plug-In . SVG Version: 6.00 Build 0)  -->
<svg version="1.1" id="Capa_1" xmlns="http://www.w3.org/2000/svg" xmlns:xlink="http://www.w3.org/1999/xlink" x="0px" y="0px"
	 viewBox="0 0 100 100" style="enable-background:new 0 0 100 100;" xml:space="preserve">
<g>
	<path d="M50,64.5c-8,0-14.5-6.5-14.5-14.5c0-8,6.5-14.5,14.5-14.5c8,0,14.5,6.5,14.5,14.5C64.5,58,58,64.5,50,64.5z M50,43.5
		c-3.6,0-6.5,2.9-6.5,6.5c0,3.6,2.9,6.5,6.5,6.5c3.6,0,6.5-2.9,6.5-6.5C56.5,46.4,53.6,43.5,50,43.5z"/>
</g>
<g>
	<path d="M50,0C22.4,0,0,22.4,0,50s22.4,50,50,50s50-22.4,50-50S77.6,0,50,0z M50,70.4c-11.2,0-20.4-9.1-20.4-20.4
		S38.8,29.6,50,29.6S70.4,38.8,70.4,50S61.2,70.4,50,70.4z"/>
</g>
</svg>
