<?xml version="1.0" encoding="utf-8"?>
<!-- Generator: Adobe Illustrator 25.0.1, SVG Export Plug-In . SVG Version: 6.00 Build 0)  -->
<svg version="1.1" id="Capa_1" xmlns="http://www.w3.org/2000/svg" xmlns:xlink="http://www.w3.org/1999/xlink" x="0px" y="0px"
	 viewBox="0 0 100 100" style="enable-background:new 0 0 100 100;" xml:space="preserve">
<path d="M96.5,39.5l-40.1-34c-3.7-3.1-9.1-3.1-12.8,0l-40.1,34c-3.2,2.7-4.3,7-2.9,11C2.1,54.4,5.7,57,9.9,57h3.7
	c1,0,1.9,0.9,1.9,1.9v28c0,5.5,4.4,9.9,9.9,9.9H35c5.5,0,9.9-4.4,9.9-9.9V69.2c0-1,0.9-1.9,1.9-1.9h5.5c1,0,1.9,0.9,1.9,1.9v17.7
	c0,5.5,4.4,9.9,9.9,9.9h10.6c5.5,0,9.9-4.4,9.9-9.9v-28c0-1,0.9-1.9,1.9-1.9h3.7c4.2,0,7.8-2.5,9.3-6.5
	C100.8,46.6,99.7,42.3,96.5,39.5z"/>
</svg>
