<?xml version="1.0" encoding="utf-8"?>
<!-- Generator: Adobe Illustrator 25.0.1, SVG Export Plug-In . SVG Version: 6.00 Build 0)  -->
<svg version="1.1" id="Capa_1" xmlns="http://www.w3.org/2000/svg" xmlns:xlink="http://www.w3.org/1999/xlink" x="0px" y="0px"
	 viewBox="0 0 100 100" style="enable-background:new 0 0 100 100;" xml:space="preserve">
<path d="M90,0H10C4.5,0,0,4.5,0,10v80c0,5.5,4.5,10,10,10h80c5.5,0,10-4.5,10-10V10C100,4.5,95.5,0,90,0z M57.1,54.5H45.2V88h-9.4
	V54.5H23.9V47h33.2V54.5z M87.1,82.2c-0.9,1.6-2,2.8-3.5,3.8c-1.5,1-3.2,1.7-5.2,2.1c-2,0.4-4,0.6-6.2,0.6c-2.2,0-4.4-0.2-6.4-0.6
	c-2-0.4-3.8-1-5.3-1.7v-9.1c1.7,1.4,3.4,2.4,5.4,3.1c1.9,0.7,3.9,1,5.9,1c1.2,0,2.2-0.1,3-0.3c0.9-0.2,1.6-0.5,2.2-0.9
	c0.6-0.4,1-0.8,1.3-1.3s0.4-1.1,0.4-1.6c0-0.8-0.2-1.5-0.7-2.1c-0.5-0.6-1.1-1.2-1.9-1.7c-0.8-0.5-1.7-1-2.8-1.5
	c-1.1-0.5-2.2-1-3.5-1.5c-3.2-1.3-5.6-3-7.1-4.9c-1.6-1.9-2.3-4.2-2.3-7c0-2.1,0.4-4,1.3-5.5c0.9-1.5,2-2.8,3.5-3.8
	c1.5-1,3.2-1.7,5.1-2.2s4-0.7,6.1-0.7c2.1,0,4,0.1,5.7,0.4c1.6,0.3,3.2,0.7,4.5,1.2v8.5c-0.7-0.5-1.4-0.9-2.2-1.3
	c-0.8-0.4-1.6-0.7-2.5-0.9c-0.9-0.2-1.7-0.4-2.5-0.5c-0.8-0.1-1.6-0.2-2.4-0.2c-1,0-2,0.1-2.8,0.3s-1.6,0.5-2.2,0.8
	c-0.6,0.4-1,0.8-1.4,1.3c-0.3,0.5-0.5,1.1-0.5,1.7c0,0.7,0.2,1.3,0.5,1.8s0.9,1.1,1.5,1.5c0.7,0.5,1.5,1,2.4,1.4
	c0.9,0.5,2,0.9,3.2,1.4c1.6,0.7,3.1,1.4,4.4,2.2c1.3,0.8,2.4,1.6,3.3,2.6c0.9,1,1.6,2.1,2.1,3.3c0.5,1.2,0.7,2.7,0.7,4.4
	C88.4,78.7,87.9,80.7,87.1,82.2z"/>
</svg>
