<?xml version="1.0" encoding="utf-8"?>
<!-- Generator: Adobe Illustrator 25.0.1, SVG Export Plug-In . SVG Version: 6.00 Build 0)  -->
<svg version="1.1" id="Capa_1" xmlns="http://www.w3.org/2000/svg" xmlns:xlink="http://www.w3.org/1999/xlink" x="0px" y="0px"
	 viewBox="0 0 100 100" style="enable-background:new 0 0 100 100;" xml:space="preserve">
<g>
	<path d="M100,50c0-27.57-22.43-50-50-50S0,22.43,0,50s22.43,50,50,50S100,77.57,100,50z M28.57,86.1V75.43
		c0-3.82,3.1-6.92,6.92-6.92h29.03c3.82,0,6.92,3.1,6.92,6.92V86.1C65.15,89.84,57.83,92,50,92C42.17,92,34.85,89.84,28.57,86.1z
		 M79.43,79.92v-4.49c0-8.23-6.69-14.92-14.92-14.92H35.49c-8.23,0-14.92,6.69-14.92,14.92v4.49C12.82,72.3,8,61.7,8,50
		C8,26.84,26.84,8,50,8c23.16,0,42,18.84,42,42C92,61.7,87.18,72.3,79.43,79.92z"/>
	<path d="M50,21.87c-8.52,0-15.45,6.93-15.45,15.45S41.48,52.77,50,52.77c8.52,0,15.45-6.93,15.45-15.45S58.52,21.87,50,21.87z
		 M50,44.77c-4.11,0-7.45-3.34-7.45-7.45s3.34-7.45,7.45-7.45c4.11,0,7.45,3.34,7.45,7.45S54.11,44.77,50,44.77z"/>
</g>
</svg>
