<?xml version="1.0" encoding="utf-8"?>
<!-- Generator: Adobe Illustrator 25.0.1, SVG Export Plug-In . SVG Version: 6.00 Build 0)  -->
<svg version="1.1" id="Capa_1" xmlns="http://www.w3.org/2000/svg" xmlns:xlink="http://www.w3.org/1999/xlink" x="0px" y="0px"
	 viewBox="0 0 100 100" style="enable-background:new 0 0 100 100;" xml:space="preserve">
<g>
</g>
<g>
</g>
<g>
</g>
<g>
</g>
<g>
	<path d="M46.93,49.78c-8.1,0-14.69-6.59-14.69-14.69c0-8.1,6.59-14.69,14.69-14.69S61.62,27,61.62,35.1
		C61.62,43.19,55.03,49.78,46.93,49.78z M46.93,28.41c-3.69,0-6.69,3-6.69,6.69s3,6.69,6.69,6.69s6.69-3,6.69-6.69
		S50.62,28.41,46.93,28.41z"/>
</g>
<path d="M93.35,53.85c0.34-2.28,0.51-4.6,0.51-6.92C93.86,21.05,72.81,0,46.93,0C21.05,0,0,21.05,0,46.93
	c0,25.88,21.05,46.93,46.93,46.93c2.32,0,4.63-0.17,6.92-0.51c4.89,4.15,11.21,6.65,18.11,6.65C87.42,100,100,87.42,100,71.95
	C100,65.06,97.49,58.74,93.35,53.85z M19.19,70.66v3.55C12.28,67.18,8,57.55,8,46.93C8,25.46,25.46,8,46.93,8
	c21.47,0,38.93,17.46,38.93,38.93c0,0.22-0.01,0.45-0.02,0.67c-4.1-2.35-8.84-3.7-13.89-3.7c-9.75,0-18.34,5-23.37,12.57h-15.2
	C25.56,56.47,19.19,62.84,19.19,70.66z M27.19,80.47v-9.8c0-3.41,2.78-6.19,6.19-6.19h11.54c-0.66,2.38-1.02,4.89-1.02,7.48
	c0,5.05,1.35,9.79,3.7,13.89c-0.22,0-0.45,0.02-0.67,0.02C39.73,85.86,32.99,83.89,27.19,80.47z M71.95,92
	c-11.05,0-20.05-8.99-20.05-20.05s8.99-20.05,20.05-20.05S92,60.9,92,71.95S83.01,92,71.95,92z"/>
<g>
	<rect x="58.36" y="67.95" width="27.19" height="8"/>
</g>
</svg>
