<?xml version="1.0" encoding="utf-8"?>
<!-- Generator: Adobe Illustrator 25.0.1, SVG Export Plug-In . SVG Version: 6.00 Build 0)  -->
<svg version="1.1" id="Capa_1" xmlns="http://www.w3.org/2000/svg" xmlns:xlink="http://www.w3.org/1999/xlink" x="0px" y="0px"
	 viewBox="0 0 100 100" style="enable-background:new 0 0 100 100;" xml:space="preserve">
<g>
	<path d="M90,23.4H47.9c-0.9,0-1.7-0.6-1.9-1.5l-1.8-6.4c-1.2-4.3-5.2-7.3-9.6-7.3H10c-5.5,0-10,4.5-10,10v65.6c0,5.5,4.5,10,10,10
		h31.5v-8H10c-1.1,0-2-0.9-2-2V18.3c0-1.1,0.9-2,2-2h24.5c0.9,0,1.7,0.6,1.9,1.5l1.8,6.4c1.2,4.3,5.2,7.3,9.6,7.3H90
		c1.1,0,2,0.9,2,2v12.4h8V33.4C100,27.9,95.5,23.4,90,23.4z"/>
	<path d="M71.3,42.6c-15.8,0-28.7,12.9-28.7,28.7S55.4,100,71.3,100c15.8,0,28.7-12.9,28.7-28.7S87.1,42.6,71.3,42.6z M71.3,92
		c-11.4,0-20.7-9.3-20.7-20.7s9.3-20.7,20.7-20.7c11.4,0,20.7,9.3,20.7,20.7S82.7,92,71.3,92z"/>
	<polygon points="75.3,57.1 67.3,57.1 67.3,67.3 57.1,67.3 57.1,75.3 67.3,75.3 67.3,85.5 75.3,85.5 75.3,75.3 85.5,75.3 85.5,67.3 
		75.3,67.3 	"/>
</g>
</svg>
