<?xml version="1.0" encoding="utf-8"?>
<!-- Generator: Adobe Illustrator 25.0.1, SVG Export Plug-In . SVG Version: 6.00 Build 0)  -->
<svg version="1.1" id="Capa_1" xmlns="http://www.w3.org/2000/svg" xmlns:xlink="http://www.w3.org/1999/xlink" x="0px" y="0px"
	 viewBox="0 0 100 100" style="enable-background:new 0 0 100 100;" xml:space="preserve">
<path d="M100,5.7L94.3,0L78.4,15.9c-2.7-1.7-5.8-2.6-9.1-2.6c-4.6,0-9,1.8-12.3,5.1l-9.4,9.4c-1.6,1.6-1.6,4.1,0,5.7l18.9,18.9
	c0.8,0.8,1.8,1.2,2.8,1.2s2.1-0.4,2.8-1.2l9.4-9.4c5.8-5.8,6.6-14.7,2.5-21.4L100,5.7z M75.9,37.3l-6.6,6.6L56.1,30.7l6.6-6.6
	c1.8-1.8,4.1-2.7,6.6-2.7c2.5,0,4.8,1,6.6,2.7v0C79.6,27.7,79.6,33.6,75.9,37.3z"/>
<path d="M51.5,65.6l7.6-7.6l-5.7-5.7l-7.6,7.6l-5.7-5.7l7.6-7.6L42,40.9l-7.6,7.6l-0.9-0.9c-1.6-1.6-4.1-1.6-5.7,0L18.4,57
	c-3.3,3.3-5.1,7.6-5.1,12.3c0,3.3,0.9,6.4,2.6,9.1L0,94.3l5.7,5.7l15.9-15.9c2.8,1.7,5.9,2.6,9.1,2.6c4.4,0,8.9-1.7,12.3-5.1
	l9.4-9.4c0.8-0.8,1.2-1.8,1.2-2.8s-0.4-2.1-1.2-2.8L51.5,65.6z M37.3,75.9c-3.6,3.6-9.6,3.6-13.2,0h0c-1.8-1.8-2.7-4.1-2.7-6.6
	c0-2.5,1-4.8,2.7-6.6l6.6-6.6l13.2,13.2L37.3,75.9z"/>
</svg>
