<?xml version="1.0" encoding="utf-8"?>
<!-- Generator: Adobe Illustrator 25.0.1, SVG Export Plug-In . SVG Version: 6.00 Build 0)  -->
<svg version="1.1" id="Capa_1" xmlns="http://www.w3.org/2000/svg" xmlns:xlink="http://www.w3.org/1999/xlink" x="0px" y="0px"
	 viewBox="0 0 100 100" style="enable-background:new 0 0 100 100;" xml:space="preserve">
<g>
	<g>
		<path d="M74.2,100c-4.2,0-8.3-1.9-11-5.4L50,77.4L36.8,94.6c-2.7,3.5-6.7,5.4-11,5.4c-1.5,0-3-0.2-4.5-0.7
			c-5.6-1.8-9.3-6.8-9.4-12.6l0-72.4C11.9,6.4,18.1,0,25.8,0h48.5c7.7,0,13.9,6.4,13.9,14.3l0,72.4c-0.1,5.9-3.8,10.8-9.4,12.6
			C77.2,99.8,75.7,100,74.2,100z M50,68.4c2,0,3.9,0.9,5.2,2.5l14.4,18.7c1.6,2.1,4.1,2.8,6.6,2c2.3-0.8,3.8-2.8,3.9-5.1l0-72.3
			c0-3.5-2.6-6.3-5.9-6.3H25.8c-3.2,0-5.9,2.8-5.9,6.3l0,72.3c0,2.3,1.5,4.3,3.9,5.1c2.5,0.8,5.1,0,6.6-2L44.8,71
			C46.1,69.4,48,68.4,50,68.4z"/>
	</g>
</g>
</svg>
