<?xml version="1.0" encoding="utf-8"?>
<!-- Generator: Adobe Illustrator 25.0.1, SVG Export Plug-In . SVG Version: 6.00 Build 0)  -->
<svg version="1.1" id="Capa_1" xmlns="http://www.w3.org/2000/svg" xmlns:xlink="http://www.w3.org/1999/xlink" x="0px" y="0px"
	 viewBox="0 0 100 100" style="enable-background:new 0 0 100 100;" xml:space="preserve">
<g>
	<path d="M95.3,41v-8H77.8c-1.1-4.6-3.3-8.8-6.4-12.3L85.3,6.8l-5.7-5.7L65.3,15.4C60.9,12.6,55.6,11,50,11
		c-5.6,0-10.9,1.7-15.3,4.5L20.4,1.2l-5.7,5.7l13.8,13.8c-3,3.5-5.3,7.7-6.4,12.3H4.7v8h16.7v10.5H4.7v8h16.7V70H4.7v8h17.5
		c3,12.6,14.3,22,27.8,22c13.5,0,24.8-9.4,27.8-22h17.5v-8H78.6V59.5h16.7v-8H78.6V41H95.3z M70.6,71.4C70.6,82.8,61.3,92,50,92
		c-11.3,0-20.6-9.2-20.6-20.6V39.5C29.4,28.2,38.7,19,50,19c11.3,0,20.6,9.2,20.6,20.6V71.4z"/>
	<rect x="46" y="37" width="8" height="37"/>
</g>
</svg>
