<?xml version="1.0" encoding="utf-8"?>
<!-- Generator: Adobe Illustrator 25.0.1, SVG Export Plug-In . SVG Version: 6.00 Build 0)  -->
<svg version="1.1" id="Capa_1" xmlns="http://www.w3.org/2000/svg" xmlns:xlink="http://www.w3.org/1999/xlink" x="0px" y="0px"
	 viewBox="0 0 100 100" style="enable-background:new 0 0 100 100;" xml:space="preserve">
<g>
	<path d="M78.2,80.3H20c-11,0-20-9-20-20c0-10.2,7.7-18.6,17.5-19.8c2.6-11.9,13.4-20.8,25.9-20.8c12.1,0,22.2,7.9,25.4,18.9
		c2.9-1.4,6-2.1,9.3-2.1c12,0,21.8,9.8,21.8,21.8C100,70.5,90.2,80.3,78.2,80.3z M20,48.4c-6.6,0-12,5.4-12,12c0,6.6,5.4,12,12,12
		h58.2c7.6,0,13.8-6.2,13.8-13.8c0-7.6-6.2-13.8-13.8-13.8c-3.5,0-6.9,1.3-9.5,3.8c-1.1,1.1-2.8,1.4-4.3,0.8c-1.5-0.6-2.4-2-2.5-3.6
		c-0.3-10-8.5-17.9-18.5-17.9c-9.6,0-17.7,7.5-18.5,17c-0.1,1.1-0.6,2.1-1.4,2.7c-0.8,0.7-1.9,1-3,0.9C20.4,48.4,20.2,48.4,20,48.4z
		"/>
</g>
</svg>
