<?xml version="1.0" encoding="utf-8"?>
<!-- Generator: Adobe Illustrator 25.0.1, SVG Export Plug-In . SVG Version: 6.00 Build 0)  -->
<svg version="1.1" id="Capa_1" xmlns="http://www.w3.org/2000/svg" xmlns:xlink="http://www.w3.org/1999/xlink" x="0px" y="0px"
	 viewBox="0 0 100 100" style="enable-background:new 0 0 100 100;" xml:space="preserve">
<g>
	<path d="M78.2,25.4c-3.3,0-6.4,0.7-9.3,2.1c-3.2-11-13.4-18.9-25.4-18.9c-12.5,0-23.3,8.9-25.9,20.8C7.7,30.5,0,38.9,0,49.1
		c0,11,9,20,20,20h1v-8h-1c-6.6,0-12-5.4-12-12c0-6.6,5.4-12,12-12c0.2,0,0.4,0,0.6,0c1.1,0.1,2.1-0.2,3-0.9
		c0.8-0.7,1.3-1.7,1.4-2.7c0.8-9.5,8.9-17,18.5-17c10,0,18.2,7.8,18.5,17.9c0.1,1.6,1,3,2.5,3.6c1.5,0.6,3.1,0.3,4.3-0.8
		c2.6-2.4,5.9-3.8,9.5-3.8c7.6,0,13.8,6.2,13.8,13.8c0,7.6-6.2,13.8-13.8,13.8H65.9v8h12.2c12,0,21.8-9.8,21.8-21.8
		C100,35.2,90.2,25.4,78.2,25.4z"/>
	<polygon points="25.9,61.7 31.6,67.4 39.5,59.5 39.5,91 47.5,91 47.5,59.5 55.4,67.4 61.1,61.7 43.5,44.1 	"/>
</g>
</svg>
