<?xml version="1.0" encoding="utf-8"?>
<!-- Generator: Adobe Illustrator 25.0.1, SVG Export Plug-In . SVG Version: 6.00 Build 0)  -->
<svg version="1.1" id="Capa_1" xmlns="http://www.w3.org/2000/svg" xmlns:xlink="http://www.w3.org/1999/xlink" x="0px" y="0px"
	 viewBox="0 0 100 100" style="enable-background:new 0 0 100 100;" xml:space="preserve">
<g>
	<path d="M45.1,57.3c-1.7,0-3.2-0.5-4.5-1.4c-2-1.5-3.1-3.8-3.1-6.7V33.9c0-2.9,1.1-5.2,3.1-6.7c2.1-1.5,4.9-1.8,7.9-0.8
		c7.1,2.2,14.7,2.2,21.8,0c3-1,5.8-0.7,7.9,0.8c2,1.5,3.1,3.8,3.1,6.7v15.4c0,2.9-1.1,5.2-3.1,6.7c-2.1,1.5-4.9,1.8-7.9,0.8
		c-7.1-2.2-14.7-2.2-21.8,0C47.3,57.1,46.2,57.3,45.1,57.3z M45.4,33.8C45.4,33.8,45.4,33.8,45.4,33.8l0,15.4c0,0,0,0,0,0
		c0.1,0,0.3-0.1,0.5-0.1l0.1,0c8.7-2.7,17.9-2.7,26.6,0l0.1,0c0.2,0.1,0.4,0.1,0.5,0.1c0,0,0,0,0,0V33.9c0,0,0,0,0,0
		c-0.1,0-0.3,0.1-0.5,0.1l-0.1,0c-8.7,2.7-17.9,2.7-26.6,0l-0.1,0C45.7,33.9,45.6,33.8,45.4,33.8z"/>
</g>
<path d="M46.9,11.7v8h24.9v-8h-8.4V10c0-5.5-4.5-10-10-10H32.2c-5.5,0-10,4.5-10,10v63.1c0,5.5,4.5,10,10,10h0.2V92H22.2v8h10.2h8
	h31.5v-8H40.4v-8.9h13c5.5,0,10-4.5,10-10v-1.7h8.4v-8H46.9v8h8.4v1.7c0,1.1-0.9,2-2,2H32.2c-1.1,0-2-0.9-2-2V10c0-1.1,0.9-2,2-2
	h21.2c1.1,0,2,0.9,2,2v1.7H46.9z"/>
</svg>
