<?xml version="1.0" encoding="utf-8"?>
<!-- Generator: Adobe Illustrator 25.0.1, SVG Export Plug-In . SVG Version: 6.00 Build 0)  -->
<svg version="1.1" id="Capa_1" xmlns="http://www.w3.org/2000/svg" xmlns:xlink="http://www.w3.org/1999/xlink" x="0px" y="0px"
	 viewBox="0 0 100 100" style="enable-background:new 0 0 100 100;" xml:space="preserve">
<polygon points="60.2,54 69.8,54 63.3,47.5 39.8,24.3 53.1,46 39.8,46 30.2,46 36.7,52.5 60.2,75.7 46.9,54 "/>
<path d="M50,0C22.4,0,0,22.4,0,50s22.4,50,50,50s50-22.4,50-50S77.6,0,50,0z M8,50c0-10.1,3.6-19.5,9.6-26.7l59.1,59.1
	C69.5,88.4,60.1,92,50,92C26.8,92,8,73.2,8,50z M82.4,76.7L23.3,17.6C30.5,11.6,39.9,8,50,8c23.2,0,42,18.8,42,42
	C92,60.1,88.4,69.5,82.4,76.7z"/>
</svg>
