<?xml version="1.0" encoding="utf-8"?>
<!-- Generator: Adobe Illustrator 25.0.1, SVG Export Plug-In . SVG Version: 6.00 Build 0)  -->
<svg version="1.1" id="Capa_1" xmlns="http://www.w3.org/2000/svg" xmlns:xlink="http://www.w3.org/1999/xlink" x="0px" y="0px"
	 viewBox="0 0 100 100" style="enable-background:new 0 0 100 100;" xml:space="preserve">
<style type="text/css">
	.st0{fill:none;stroke:#000000;stroke-width:8;stroke-linejoin:round;stroke-miterlimit:10;}
	.st1{fill:none;stroke:#000000;stroke-width:8;stroke-miterlimit:10;}
</style>
<rect y="96" width="4" height="4"/>
<rect width="4" height="4"/>
<g>
	<path class="st0" d="M21.2,78.8L21.2,78.8c-5.2-5.2-5.2-13.7,0-18.9l9.4-9.4l18.9,18.9l-9.4,9.4C34.9,84,26.4,84,21.2,78.8z"/>
	<path class="st0" d="M78.8,21.2L78.8,21.2c5.2,5.2,5.2,13.7,0,18.9l-9.4,9.4L50.4,30.7l9.4-9.4C65.1,16,73.6,16,78.8,21.2z"/>
	<line class="st1" x1="34.4" y1="54.2" x2="44.9" y2="43.7"/>
	<line class="st1" x1="45.8" y1="65.6" x2="56.3" y2="55.1"/>
</g>
<line class="st0" x1="78.8" y1="21.2" x2="80.2" y2="19.8"/>
</svg>
