<?xml version="1.0" encoding="utf-8"?>
<!-- Generator: Adobe Illustrator 25.0.1, SVG Export Plug-In . SVG Version: 6.00 Build 0)  -->
<svg version="1.1" id="Capa_1" xmlns="http://www.w3.org/2000/svg" xmlns:xlink="http://www.w3.org/1999/xlink" x="0px" y="0px"
	 viewBox="0 0 100 100" style="enable-background:new 0 0 100 100;" xml:space="preserve">
<g>
	<path d="M90,9.9H10c-5.5,0-10,4.5-10,10v60.3c0,5.5,4.5,10,10,10h80c5.5,0,10-4.5,10-10V19.9C100,14.3,95.5,9.9,90,9.9z M10,17.9
		h80c1.1,0,2,0.9,2,2v6H8v-6C8,18.8,8.9,17.9,10,17.9z M90,82.1H10c-1.1,0-2-0.9-2-2V33.9h84v46.3C92,81.2,91.1,82.1,90,82.1z"/>
	<rect x="15.6" y="41.9" width="17.4" height="8"/>
	<rect x="15.6" y="57.9" width="38.5" height="8"/>
</g>
</svg>
