<?xml version="1.0" encoding="utf-8"?>
<!-- Generator: Adobe Illustrator 25.0.1, SVG Export Plug-In . SVG Version: 6.00 Build 0)  -->
<svg version="1.1" id="Capa_1" xmlns="http://www.w3.org/2000/svg" xmlns:xlink="http://www.w3.org/1999/xlink" x="0px" y="0px"
	 viewBox="0 0 100 100" style="enable-background:new 0 0 100 100;" xml:space="preserve">
<g>
	<path d="M100,64c-7.5,0-10.9-6.8-13.6-12.2C84.1,47.1,82.4,44,80,44s-4.1,3.1-6.4,7.8C70.9,57.2,67.5,64,60,64
		c-7.5,0-10.9-6.8-13.6-12.2C44.1,47.1,42.3,44,40,44c-2.4,0-4.1,3.1-6.4,7.8C30.9,57.2,27.5,64,20,64S9.1,57.2,6.4,51.8
		C4.1,47.1,2.4,44,0,44v-8c7.5,0,10.9,6.8,13.6,12.2c2.4,4.7,4.1,7.8,6.4,7.8c2.4,0,4.1-3.1,6.4-7.8C29.1,42.8,32.5,36,40,36
		c7.5,0,10.9,6.8,13.6,12.2c2.4,4.7,4.1,7.8,6.4,7.8c2.4,0,4.1-3.1,6.4-7.8C69.1,42.8,72.5,36,80,36s10.9,6.8,13.6,12.2
		c2.4,4.7,4.1,7.8,6.4,7.8V64z"/>
</g>
</svg>
