<?xml version="1.0" encoding="utf-8"?>
<!-- Generator: Adobe Illustrator 25.0.1, SVG Export Plug-In . SVG Version: 6.00 Build 0)  -->
<svg version="1.1" id="Capa_1" xmlns="http://www.w3.org/2000/svg" xmlns:xlink="http://www.w3.org/1999/xlink" x="0px" y="0px"
	 viewBox="0 0 100 100" style="enable-background:new 0 0 100 100;" xml:space="preserve">
<g>
	<path d="M90,93.9H10c-5.5,0-10-4.5-10-10V18.3c0-5.5,4.5-10,10-10h24.5c4.5,0,8.4,3,9.6,7.3l1.8,6.4c0.2,0.9,1,1.5,1.9,1.5H90
		c5.5,0,10,4.5,10,10v50.5C100,89.4,95.5,93.9,90,93.9z M10,16.3c-1.1,0-2,0.9-2,2v65.6c0,1.1,0.9,2,2,2h80c1.1,0,2-0.9,2-2V33.4
		c0-1.1-0.9-2-2-2H47.9c-4.5,0-8.4-3-9.6-7.3v0l-1.8-6.4c-0.2-0.9-1-1.5-1.9-1.5H10z"/>
</g>
<polygon points="22.3,72.1 22.3,65.8 50.5,65.8 50.5,57.8 22.3,57.8 22.3,51.5 39.6,51.5 39.6,43.5 22.3,43.5 22.3,36.6 14.3,36.6 
	14.3,80.1 61.4,80.1 61.4,72.1 "/>
</svg>
