<?xml version="1.0" encoding="utf-8"?>
<!-- Generator: Adobe Illustrator 25.0.1, SVG Export Plug-In . SVG Version: 6.00 Build 0)  -->
<svg version="1.1" id="Capa_1" xmlns="http://www.w3.org/2000/svg" xmlns:xlink="http://www.w3.org/1999/xlink" x="0px" y="0px"
	 viewBox="0 0 100 100" style="enable-background:new 0 0 100 100;" xml:space="preserve">
<g>
	<path d="M94.2,43.7V20c0-4.9-4-8.8-8.8-8.8H8.8C4,11.1,0,15.1,0,20v43.8c0,4.9,4,8.8,8.8,8.8h37.7c0.6,1.3,1.3,2.6,2.2,3.8H28.5v8
		h28.4c4.4,2.8,9.5,4.4,15.1,4.4c15.5,0,28-12.6,28-28C100,54.4,97.8,48.5,94.2,43.7z M8.8,64.6c-0.5,0-0.8-0.4-0.8-0.8V20
		c0-0.5,0.4-0.8,0.8-0.8h76.5c0.5,0,0.8,0.4,0.8,0.8v16.7c-4.2-2.5-9-3.9-14.2-3.9c-15.5,0-28,12.6-28,28c0,1.3,0.1,2.6,0.3,3.8H8.8
		z M72,80.9c-11.1,0-20-9-20-20s9-20,20-20s20,9,20,20S83,80.9,72,80.9z"/>
	<polygon points="76,47.2 68,47.2 68,56.8 58.4,56.8 58.4,64.8 68,64.8 68,74.4 76,74.4 76,64.8 85.5,64.8 85.5,56.8 76,56.8 	"/>
</g>
</svg>
