<?xml version="1.0" encoding="utf-8"?>
<!-- Generator: Adobe Illustrator 25.0.1, SVG Export Plug-In . SVG Version: 6.00 Build 0)  -->
<svg version="1.1" id="Capa_1" xmlns="http://www.w3.org/2000/svg" xmlns:xlink="http://www.w3.org/1999/xlink" x="0px" y="0px"
	 viewBox="0 0 100 100" style="enable-background:new 0 0 100 100;" xml:space="preserve">
<g>
	<path d="M96.9,19l-6.1-4.8c-24-19.1-57.6-19.1-81.7,0L3.1,19c-2,1.5-3.1,3.9-3.1,6.4c0,2.5,1.1,4.8,3.1,6.4l6.1,4.8
		c6.5,5.2,13.8,9,21.6,11.4c1.9-3.8,5.3-6.5,9.4-7.3c0.1-0.5,0.2-1.1,0.4-1.6c-6-3.3-9.9-9.7-9.9-16.9c0-4.5,1.6-8.8,4.4-12.2
		c9.8-2.7,20.1-2.7,30,0c2.8,3.4,4.4,7.7,4.4,12.2c0,2.2-0.4,4.3-1.1,6.3c2-1,4.2-1.6,6.5-1.6c0.7,0,1.4,0.1,2.2,0.2
		c0.3-1.6,0.5-3.2,0.5-4.9c0-2.7-0.4-5.3-1.2-7.9c3.4,1.7,6.6,3.8,9.7,6.2l6.1,4.8v0.2l-6.1,4.8l0.1,0c2.6,1.1,4.8,2.8,6.3,5.1
		l4.7-3.7c2-1.5,3.1-3.9,3.1-6.4S98.9,20.6,96.9,19z M14.1,30.3L8,25.5v-0.2l6.1-4.8c3.1-2.4,6.3-4.5,9.7-6.2
		c-0.8,2.5-1.2,5.2-1.2,7.9c0,6.1,2,11.8,5.4,16.4C23.1,36.5,18.4,33.7,14.1,30.3z"/>
	<circle cx="50" cy="21.7" r="7.5"/>
</g>
<g>
	<g>
		<path d="M60.1,100c-0.7,0-1.4-0.1-2.1-0.4l-6.1-2.5c-2.9-1.2-4.4-4.5-3.2-7.5l0.8-2c-0.7-0.6-1.4-1.3-2-2l-2,0.9
			c-2.9,1.2-6.3-0.1-7.5-3l-2.6-6c-0.6-1.5-0.6-3.2,0.1-4.7c0.7-1.3,1.8-2.4,3.3-3l1.7-0.7c-0.1-0.9-0.1-1.9,0-2.8l-2-0.8
			c-1.4-0.6-2.5-1.7-3.1-3.1c-0.6-1.4-0.6-3,0-4.4l2.5-6.1c1.2-2.9,4.5-4.4,7.5-3.2l2,0.8c0.6-0.7,1.3-1.4,2-2l-0.9-2
			c-0.6-1.4-0.6-3,0-4.4c0.6-1.4,1.7-2.5,3.1-3.1l6-2.6c2.9-1.2,6.3,0.1,7.5,3l0.9,2c0.9-0.1,1.9-0.1,2.8,0l0.8-2
			c0.6-1.4,1.7-2.5,3.1-3.1c1.4-0.6,3-0.6,4.4,0l6.1,2.5c1.4,0.6,2.5,1.7,3.1,3.1c0.6,1.4,0.6,3,0,4.4l-0.8,2c0.7,0.6,1.4,1.3,2,2
			l2-0.9c2.9-1.2,6.3,0.1,7.5,3l2.6,6c0.6,1.5,0.6,3.2-0.1,4.7c-0.7,1.3-1.8,2.4-3.3,3l-1.6,0.7c0.1,0.9,0.1,1.9,0,2.8l2,0.8
			c2.9,1.2,4.4,4.5,3.2,7.5L97.1,83c-0.6,1.4-1.7,2.5-3.1,3.1c-1.4,0.6-3,0.6-4.4,0l-2-0.8c-0.6,0.7-1.3,1.4-2,2l0.9,2
			c0.6,1.4,0.6,3,0,4.4c-0.6,1.4-1.7,2.5-3.1,3.1l-6,2.6c-1.4,0.6-3,0.6-4.4,0s-2.5-1.7-3.1-3.1l-0.9-2c-0.9,0.1-1.9,0.1-2.8,0
			l-0.8,2C64.5,98.6,62.4,100,60.1,100z M74.3,92C74.3,92,74.3,92,74.3,92L74.3,92z M57,90.6l1.9,0.8l0.6-1.5c1-2.4,3.4-3.8,6-3.5
			c1.4,0.2,2.9,0.1,4.3,0c2.6-0.3,5,1.1,6,3.4l0.6,1.5l1.9-0.8l-0.6-1.5c-1-2.3-0.3-5.1,1.7-6.7c1.1-0.9,2.1-1.9,3-3.1
			c1.6-2,4.3-2.8,6.7-1.8l1.5,0.6l0.8-1.9l-1.5-0.6c-2.4-1-3.8-3.4-3.5-6c0.2-1.5,0.1-2.9,0-4.4c-0.3-2.5,1.1-4.9,3.3-5.9l1.6-0.7
			l-0.8-1.9l-1.5,0.6c-2.3,1-5.1,0.3-6.7-1.7c-0.9-1.1-1.9-2.1-3.1-3c-2-1.6-2.8-4.3-1.8-6.7l0.6-1.5L76,43.5L75.4,45
			c-1,2.4-3.4,3.8-6,3.5c-1.4-0.2-2.9-0.1-4.3,0c-2.6,0.3-5-1.1-6-3.4l-0.6-1.5l-1.9,0.8l0.6,1.5c1,2.3,0.3,5.1-1.7,6.7
			c-1.1,0.9-2.1,1.9-3,3.1c-1.6,2-4.3,2.8-6.7,1.8L44.3,57l-0.8,1.9l1.5,0.6c2.4,1,3.8,3.4,3.5,6c-0.2,1.5-0.1,2.9,0,4.4
			c0.3,2.5-1.1,4.9-3.3,5.9l-1.6,0.7l0.8,1.9l1.5-0.6c2.3-1,5.1-0.3,6.7,1.7c0.9,1.1,1.9,2.1,3.1,3c2.1,1.6,2.8,4.3,1.8,6.7L57,90.6
			z M94.2,64C94.2,64,94.2,64,94.2,64C94.2,64,94.2,64,94.2,64z"/>
	</g>
	<g>
		<path d="M67.4,82.3c-1.9,0-3.8-0.4-5.6-1.1c-3.7-1.5-6.6-4.3-8.1-8c-1.6-3.7-1.6-7.7-0.1-11.4c1.5-3.7,4.3-6.6,8-8.1
			c3.7-1.6,7.7-1.6,11.4-0.1c3.7,1.5,6.6,4.3,8.1,8c1.6,3.7,1.6,7.7,0.1,11.4c-1.5,3.7-4.3,6.6-8,8.1C71.4,81.9,69.4,82.3,67.4,82.3
			z M67.4,60.6c-0.9,0-1.8,0.2-2.7,0.5c-3.5,1.5-5.1,5.5-3.6,9c0.7,1.7,2,3,3.7,3.7c1.7,0.7,3.6,0.7,5.2,0c3.5-1.5,5.1-5.5,3.6-9
			c-0.7-1.7-2-3-3.7-3.7C69.2,60.7,68.3,60.6,67.4,60.6z"/>
	</g>
</g>
<g>
	<path d="M60.1,100c-0.7,0-1.4-0.1-2.1-0.4l-6.1-2.5c-2.9-1.2-4.4-4.5-3.2-7.5l0.8-2c-0.7-0.6-1.4-1.3-2-2l-2,0.9
		c-2.9,1.2-6.3-0.1-7.5-3l-2.6-6c-0.6-1.5-0.6-3.2,0.1-4.7c0.7-1.3,1.8-2.4,3.3-3l1.7-0.7c-0.1-0.9-0.1-1.9,0-2.8l-2-0.8
		c-1.4-0.6-2.5-1.7-3.1-3.1c-0.6-1.4-0.6-3,0-4.4l2.5-6.1c1.2-2.9,4.5-4.4,7.5-3.2l2,0.8c0.6-0.7,1.3-1.4,2-2l-0.9-2
		c-0.6-1.4-0.6-3,0-4.4c0.6-1.4,1.7-2.5,3.1-3.1l6-2.6c2.9-1.2,6.3,0.1,7.5,3l0.9,2c0.9-0.1,1.9-0.1,2.8,0l0.8-2
		c0.6-1.4,1.7-2.5,3.1-3.1c1.4-0.6,3-0.6,4.4,0l6.1,2.5c1.4,0.6,2.5,1.7,3.1,3.1c0.6,1.4,0.6,3,0,4.4l-0.8,2c0.7,0.6,1.4,1.3,2,2
		l2-0.9c2.9-1.2,6.3,0.1,7.5,3l2.6,6c0.6,1.5,0.6,3.2-0.1,4.7c-0.7,1.3-1.8,2.4-3.3,3l-1.6,0.7c0.1,0.9,0.1,1.9,0,2.8l2,0.8
		c2.9,1.2,4.4,4.5,3.2,7.5L97.1,83c-0.6,1.4-1.7,2.5-3.1,3.1c-1.4,0.6-3,0.6-4.4,0l-2-0.8c-0.6,0.7-1.3,1.4-2,2l0.9,2
		c0.6,1.4,0.6,3,0,4.4c-0.6,1.4-1.7,2.5-3.1,3.1l-6,2.6c-1.4,0.6-3,0.6-4.4,0s-2.5-1.7-3.1-3.1l-0.9-2c-0.9,0.1-1.9,0.1-2.8,0
		l-0.8,2C64.5,98.6,62.4,100,60.1,100z M74.3,92C74.3,92,74.3,92,74.3,92L74.3,92z M57,90.6l1.9,0.8l0.6-1.5c1-2.4,3.4-3.8,6-3.5
		c1.4,0.2,2.9,0.1,4.3,0c2.6-0.3,5,1.1,6,3.4l0.6,1.5l1.9-0.8l-0.6-1.5c-1-2.3-0.3-5.1,1.7-6.7c1.1-0.9,2.1-1.9,3-3.1
		c1.6-2,4.3-2.8,6.7-1.8l1.5,0.6l0.8-1.9l-1.5-0.6c-2.4-1-3.8-3.4-3.5-6c0.2-1.5,0.1-2.9,0-4.4c-0.3-2.5,1.1-4.9,3.3-5.9l1.6-0.7
		l-0.8-1.9l-1.5,0.6c-2.3,1-5.1,0.3-6.7-1.7c-0.9-1.1-1.9-2.1-3.1-3c-2-1.6-2.8-4.3-1.8-6.7l0.6-1.5L76,43.5L75.4,45
		c-1,2.4-3.4,3.8-6,3.5c-1.4-0.2-2.9-0.1-4.3,0c-2.6,0.3-5-1.1-6-3.4l-0.6-1.5l-1.9,0.8l0.6,1.5c1,2.3,0.3,5.1-1.7,6.7
		c-1.1,0.9-2.1,1.9-3,3.1c-1.6,2-4.3,2.8-6.7,1.8L44.3,57l-0.8,1.9l1.5,0.6c2.4,1,3.8,3.4,3.5,6c-0.2,1.5-0.1,2.9,0,4.4
		c0.3,2.5-1.1,4.9-3.3,5.9l-1.6,0.7l0.8,1.9l1.5-0.6c2.3-1,5.1-0.3,6.7,1.7c0.9,1.1,1.9,2.1,3.1,3c2.1,1.6,2.8,4.3,1.8,6.7L57,90.6z
		 M94.2,64C94.2,64,94.2,64,94.2,64C94.2,64,94.2,64,94.2,64z"/>
</g>
</svg>
