<?xml version="1.0" encoding="utf-8"?>
<!-- Generator: Adobe Illustrator 25.0.1, SVG Export Plug-In . SVG Version: 6.00 Build 0)  -->
<svg version="1.1" id="Capa_1" xmlns="http://www.w3.org/2000/svg" xmlns:xlink="http://www.w3.org/1999/xlink" x="0px" y="0px"
	 viewBox="0 0 100 100" style="enable-background:new 0 0 100 100;" xml:space="preserve">
<g>
	<path d="M97,13.1L86.9,3c-1.9-1.9-4.4-2.9-7.1-2.9s-5.2,1-7.1,2.9L3.4,72.3c-0.6,0.6-1.1,1.5-1.1,2.4L0,95.6
		c-0.1,1.2,0.3,2.4,1.1,3.3C1.9,99.6,2.9,100,4,100c0.1,0,0.3,0,0.4,0l20.9-2.2c0.9-0.1,1.8-0.5,2.4-1.1L97,27.3
		c1.9-1.9,2.9-4.4,2.9-7.1S98.9,15,97,13.1z M23.1,89.9L8.5,91.5l1.6-14.6l58-58l13,13L23.1,89.9z M91.4,21.6l-4.6,4.6l-13-13
		l4.7-4.7c0.5-0.5,1.1-0.6,1.4-0.6s0.9,0.1,1.4,0.6l10.2,10.2c0.5,0.5,0.6,1.1,0.6,1.4S91.9,21.1,91.4,21.6z"/>
	<rect x="11.6" y="49.8" transform="matrix(0.7071 -0.7071 0.7071 0.7071 -24.4819 48.4372)" width="69.3" height="8"/>
</g>
</svg>
