<?xml version="1.0" encoding="utf-8"?>
<!-- Generator: Adobe Illustrator 25.0.1, SVG Export Plug-In . SVG Version: 6.00 Build 0)  -->
<svg version="1.1" id="Capa_1" xmlns="http://www.w3.org/2000/svg" xmlns:xlink="http://www.w3.org/1999/xlink" x="0px" y="0px"
	 viewBox="0 0 100 100" style="enable-background:new 0 0 100 100;" xml:space="preserve">
<path d="M50,0C22.4,0,0,22.4,0,50s22.4,50,50,50c9.5,0,18.8-2.7,26.8-7.8l-4.3-6.7C65.8,89.7,58,92,50,92C26.8,92,8,73.2,8,50
	C8,26.8,26.8,8,50,8c23.2,0,42,18.8,42,42c0,5.3-4.3,9.6-9.6,9.6s-9.6-4.3-9.6-9.6c0-12.5-10.2-22.8-22.8-22.8
	c-12.5,0-22.8,10.2-22.8,22.8c0,12.5,10.2,22.8,22.8,22.8c8.2,0,15.4-4.4,19.4-10.9c3.2,3.5,7.8,5.7,13,5.7
	c9.7,0,17.6-7.9,17.6-17.6C100,22.4,77.6,0,50,0z M50,64.8c-8.1,0-14.8-6.6-14.8-14.8c0-8.1,6.6-14.8,14.8-14.8
	c8.1,0,14.8,6.6,14.8,14.8C64.8,58.1,58.1,64.8,50,64.8z"/>
</svg>
