<?xml version="1.0" encoding="utf-8"?>
<!-- Generator: Adobe Illustrator 25.0.1, SVG Export Plug-In . SVG Version: 6.00 Build 0)  -->
<svg version="1.1" id="Capa_1" xmlns="http://www.w3.org/2000/svg" xmlns:xlink="http://www.w3.org/1999/xlink" x="0px" y="0px"
	 viewBox="0 0 100 100" style="enable-background:new 0 0 100 100;" xml:space="preserve">
<path d="M95.2,84.5L65.4,39.3c-0.2-0.3-0.3-0.7-0.3-1.1V0h-8v2.8H50v8h7.1v4.4H50v8h7.1v4.4H50v8h7.1v2.7c0,2,0.6,3.9,1.7,5.5
	l29.8,45.2c0.6,0.9,0.3,1.7,0.1,2c-0.2,0.3-0.7,1.1-1.8,1.1H13.1c-1.1,0-1.6-0.7-1.8-1.1c-0.2-0.3-0.5-1.1,0.1-2l29.8-45.2
	c1.1-1.6,1.7-3.5,1.7-5.5V0h-8v38.2c0,0.4-0.1,0.8-0.3,1.1L4.8,84.5c-2,3.1-2.2,7-0.5,10.2c1.7,3.2,5.1,5.3,8.8,5.3h73.7
	c3.7,0,7.1-2,8.8-5.3S97.2,87.6,95.2,84.5z"/>
</svg>
