<?xml version="1.0" encoding="utf-8"?>
<!-- Generator: Adobe Illustrator 25.0.1, SVG Export Plug-In . SVG Version: 6.00 Build 0)  -->
<svg version="1.1" id="Capa_1" xmlns="http://www.w3.org/2000/svg" xmlns:xlink="http://www.w3.org/1999/xlink" x="0px" y="0px"
	 viewBox="0 0 100 100" style="enable-background:new 0 0 100 100;" xml:space="preserve">
<g>
	<path d="M50,100C22.4,100,0,77.6,0,50S22.4,0,50,0s50,22.4,50,50S77.6,100,50,100z M50,8C26.8,8,8,26.8,8,50c0,23.2,18.8,42,42,42
		c23.2,0,42-18.8,42-42C92,26.8,73.2,8,50,8z"/>
</g>
<g>
	<g>
		<g>
			<path d="M36.7,55.4c-0.4,0-0.8-0.1-1.2-0.2c-2.1-0.7-3.3-2.9-2.6-5c1.3-4,1.3-8.2,0-12.1c-0.7-2.1,0.5-4.4,2.6-5
				c2.1-0.7,4.4,0.5,5,2.6c1.8,5.6,1.8,11.5,0,17.1C40,54.3,38.4,55.4,36.7,55.4z"/>
		</g>
		<g>
			<path d="M63.3,55.4c-0.4,0-0.8-0.1-1.2-0.2c-2.1-0.7-3.3-2.9-2.6-5c1.3-4,1.3-8.2,0-12.1c-0.7-2.1,0.5-4.4,2.6-5
				c2.1-0.7,4.4,0.5,5,2.6c1.8,5.6,1.8,11.5,0,17.1C66.5,54.3,65,55.4,63.3,55.4z"/>
		</g>
	</g>
	<g>
		<path d="M63.3,74.5c-0.7,0-1.4-0.2-2.1-0.6c-7.2-4.4-16.1-4.4-23.3,0c-1.9,1.2-4.3,0.6-5.5-1.3c-1.2-1.9-0.6-4.3,1.3-5.5
			c9.8-6,21.9-6,31.7,0c1.9,1.2,2.5,3.6,1.3,5.5C65.9,73.8,64.6,74.5,63.3,74.5z"/>
	</g>
</g>
</svg>
