<?xml version="1.0" encoding="utf-8"?>
<!-- Generator: Adobe Illustrator 25.0.1, SVG Export Plug-In . SVG Version: 6.00 Build 0)  -->
<svg version="1.1" id="Capa_1" xmlns="http://www.w3.org/2000/svg" xmlns:xlink="http://www.w3.org/1999/xlink" x="0px" y="0px"
	 viewBox="0 0 100 100" style="enable-background:new 0 0 100 100;" xml:space="preserve">
<g>
	<path d="M50,0C22.4,0,0,22.4,0,50s22.4,50,50,50s50-22.4,50-50S77.6,0,50,0z M50,92C26.8,92,8,73.2,8,50C8,26.8,26.8,8,50,8
		c23.2,0,42,18.8,42,42C92,73.2,73.2,92,50,92z"/>
	<path d="M35.5,55.2c0.4,0.1,0.8,0.2,1.2,0.2c1.7,0,3.3-1.1,3.8-2.8c1.8-5.6,1.8-11.5,0-17.1c-0.7-2.1-2.9-3.2-5-2.6
		c-2.1,0.7-3.3,2.9-2.6,5c1.3,4,1.3,8.2,0,12.1C32.2,52.2,33.4,54.5,35.5,55.2z"/>
	<path d="M70.4,37.7l-11.6,2.4c-2.2,0.5-3.5,2.6-3.1,4.7c0.4,1.9,2.1,3.2,3.9,3.2c0.3,0,0.5,0,0.8-0.1l11.6-2.4
		c2.2-0.5,3.5-2.6,3.1-4.7C74.7,38.7,72.6,37.3,70.4,37.7z"/>
	<path d="M61.2,67.1c-7.2,4.4-16.1,4.4-23.3,0c-1.9-1.2-4.3-0.6-5.5,1.3c-1.2,1.9-0.6,4.3,1.3,5.5c4.9,3,10.4,4.5,15.8,4.5
		c5.5,0,11-1.5,15.8-4.5c1.9-1.2,2.5-3.6,1.3-5.5C65.5,66.5,63,65.9,61.2,67.1z"/>
</g>
</svg>
