<?xml version="1.0" encoding="utf-8"?>
<!-- Generator: Adobe Illustrator 25.0.1, SVG Export Plug-In . SVG Version: 6.00 Build 0)  -->
<svg version="1.1" id="Capa_1" xmlns="http://www.w3.org/2000/svg" xmlns:xlink="http://www.w3.org/1999/xlink" x="0px" y="0px"
	 viewBox="0 0 100 100" style="enable-background:new 0 0 100 100;" xml:space="preserve">
<path d="M96.2,43.4l-37.9-22c-2.4-1.4-5.3-1.4-7.7,0c-2.4,1.4-3.8,3.9-3.8,6.6v13.8L11.5,21.4c-2.4-1.4-5.3-1.4-7.7,0
	C1.4,22.8,0,25.3,0,28V72c0,2.8,1.4,5.3,3.8,6.6c1.2,0.7,2.5,1,3.8,1c1.3,0,2.6-0.3,3.8-1l35.3-20.5V72c0,2.8,1.4,5.3,3.8,6.6
	c1.2,0.7,2.5,1,3.8,1c1.3,0,2.6-0.3,3.8-1l37.9-22c2.4-1.4,3.8-3.9,3.8-6.6S98.6,44.8,96.2,43.4z M8,71.4V28.6L44.9,50L8,71.4z
	 M54.8,71.4V28.6L91.7,50L54.8,71.4z"/>
</svg>
