<?xml version="1.0" encoding="utf-8"?>
<!-- Generator: Adobe Illustrator 25.0.1, SVG Export Plug-In . SVG Version: 6.00 Build 0)  -->
<svg version="1.1" id="Capa_1" xmlns="http://www.w3.org/2000/svg" xmlns:xlink="http://www.w3.org/1999/xlink" x="0px" y="0px"
	 viewBox="0 0 100 100" style="enable-background:new 0 0 100 100;" xml:space="preserve">
<g>
	<path d="M50,94.9c-0.6,0-1.3-0.2-1.9-0.5c-0.5-0.3-12.1-6.4-23.8-16.7C8.4,63.7,0,48.6,0,34C0,18,13,5.1,28.9,5.1
		c8.1,0,15.7,3.3,21.1,9.1c5.4-5.8,13-9.1,21.1-9.1C87,5.1,100,18,100,34c0,14.6-8.4,29.7-24.4,43.8C63.9,88.1,52.3,94.2,51.9,94.5
		C51.3,94.8,50.6,94.9,50,94.9z M28.9,13.1C17.4,13.1,8,22.5,8,34c0,26.4,33.6,47.5,42,52.4c8.4-4.8,42-26,42-52.4
		c0-11.5-9.4-20.9-20.9-20.9c-7.2,0-13.8,3.7-17.7,9.8c-0.7,1.2-2,1.9-3.4,1.9l0,0c-1.4,0-2.7-0.7-3.4-1.9
		C42.8,16.7,36.1,13.1,28.9,13.1z"/>
</g>
</svg>
