<?xml version="1.0" encoding="utf-8"?>
<!-- Generator: Adobe Illustrator 25.0.1, SVG Export Plug-In . SVG Version: 6.00 Build 0)  -->
<svg version="1.1" id="Capa_1" xmlns="http://www.w3.org/2000/svg" xmlns:xlink="http://www.w3.org/1999/xlink" x="0px" y="0px"
	 viewBox="0 0 100 100" style="enable-background:new 0 0 100 100;" xml:space="preserve">
<g>
	<path d="M83,7.2c-1.9-1.6-4.6-2.3-7.3-1.9c-10.5,1.6-21-0.4-32.1-2.5C32.4,0.7,20.7-1.5,8.9,0.3C4,1,0,5.8,0,11v89h8V54.3
		c0.7,0,1.4,0,2.1-0.1c10.5-1.6,21,0.4,32.1,2.5c8.3,1.6,16.9,3.2,25.5,3.2c3.1,0,6.1-0.2,9.2-0.7c4.9-0.7,8.9-5.5,8.9-10.7v-35
		C85.9,11,84.9,8.8,83,7.2z M30,46.5c0-3.8,0-7.5,0-11.3c-7.3-1-14.6-1.4-22,0V19.9c7.3-1.4,14.6-1,22,0c0-3.8,0-7.5,0-11.3
		c4,0.6,8.1,1.3,12.2,2.1c4.5,0.9,9.1,1.7,13.7,2.3c0,3.8,0,7.5,0,11.3c7.3,1,14.6,1.4,22,0v15.3c-7.3,1.4-14.6,1-22,0
		c0,3.8,0,7.5,0,11.3c-4-0.6-8.1-1.3-12.2-2.1C39.2,48,34.6,47.1,30,46.5z"/>
	<path d="M55.9,24.3c-8.7-1.2-17.3-3.3-26-4.4c0,5.1,0,10.2,0,15.3c8.7,1.2,17.3,3.3,26,4.4C55.9,34.5,55.9,29.4,55.9,24.3z"/>
</g>
</svg>
