<?xml version="1.0" encoding="utf-8"?>
<!-- Generator: Adobe Illustrator 25.0.1, SVG Export Plug-In . SVG Version: 6.00 Build 0)  -->
<svg version="1.1" id="Capa_1" xmlns="http://www.w3.org/2000/svg" xmlns:xlink="http://www.w3.org/1999/xlink" x="0px" y="0px"
	 viewBox="0 0 100 100" style="enable-background:new 0 0 100 100;" xml:space="preserve">
<path d="M83,7.2c-1.9-1.6-4.6-2.3-7.3-1.9c-10.5,1.6-21-0.4-32.1-2.5C32.4,0.7,20.7-1.5,8.9,0.3C4,1,0,5.8,0,11v89h8V54.3
	c0.7,0,1.4,0,2.1-0.1c10.5-1.6,21,0.4,32.1,2.5c8.3,1.6,16.9,3.2,25.5,3.2c3.1,0,6.1-0.2,9.2-0.7c4.9-0.7,8.9-5.5,8.9-10.7v-35
	C85.9,11,84.9,8.8,83,7.2z M77.9,48.5c0,1.2-1.1,2.6-2.1,2.7l0,0c-10.5,1.6-21-0.4-32.1-2.5c-8.3-1.6-16.9-3.2-25.5-3.2
	c-3.1,0-6.1,0.2-9.2,0.7c-0.6,0.1-0.8,0-0.9-0.1c0,0,0-0.1,0-0.3V35.8V11c0-1.2,1.1-2.6,2.1-2.7c10.5-1.6,21,0.4,32.1,2.5
	c11.3,2.1,22.9,4.3,34.7,2.5c0.6-0.1,0.8,0,0.9,0.1c0,0,0,0.1,0,0.3V48.5z"/>
</svg>
