<?xml version="1.0" encoding="utf-8"?>
<!-- Generator: Adobe Illustrator 25.0.1, SVG Export Plug-In . SVG Version: 6.00 Build 0)  -->
<svg version="1.1" id="Capa_1" xmlns="http://www.w3.org/2000/svg" xmlns:xlink="http://www.w3.org/1999/xlink" x="0px" y="0px"
	 viewBox="0 0 100 100" style="enable-background:new 0 0 100 100;" xml:space="preserve">
<style type="text/css">
	.st0{fill:#0080FF;}
</style>
<g>
	<path class="st0" d="M50,76.4c-14.5,0-26.4-11.8-26.4-26.4c0-14.5,11.8-26.4,26.4-26.4c14.5,0,26.4,11.8,26.4,26.4
		C76.4,64.5,64.5,76.4,50,76.4z M50,31.6c-10.1,0-18.4,8.2-18.4,18.4c0,10.1,8.2,18.4,18.4,18.4c10.1,0,18.4-8.2,18.4-18.4
		C68.4,39.9,60.1,31.6,50,31.6z"/>
</g>
<g>
	<path class="st0" d="M28.5,13.9L24.4,7C32.1,2.4,41,0,50,0c9,0,17.9,2.4,25.6,7l-4.1,6.9C65,10,57.6,8,50,8C42.4,8,35,10,28.5,13.9
		z"/>
</g>
<g>
	<path class="st0" d="M1.2,61.1c-2-8.8-1.6-17.9,1.2-26.5c2.8-8.6,7.8-16.3,14.6-22.2l5.3,6c-5.7,5-9.9,11.4-12.3,18.6
		c-2.3,7.2-2.7,14.9-1,22.3L1.2,61.1z"/>
</g>
<g>
	<path class="st0" d="M45.5,99.8c-9-0.8-17.6-4-24.9-9.4C13.3,85.1,7.6,78,4,69.7l7.4-3.1c3,6.9,7.8,13,13.9,17.4s13.4,7.2,20.9,7.9
		L45.5,99.8z"/>
</g>
<g>
	<path class="st0" d="M54.5,99.8l-0.7-8c7.5-0.7,14.7-3.4,20.9-7.9c6.1-4.5,11-10.5,13.9-17.4l7.4,3.1c-3.5,8.3-9.3,15.4-16.6,20.8
		C72.1,95.8,63.5,99,54.5,99.8z"/>
</g>
<g>
	<path class="st0" d="M98.8,61.1L91,59.3c1.7-7.4,1.3-15.1-1-22.3c-2.3-7.2-6.6-13.7-12.3-18.6l5.3-6c6.8,5.9,11.8,13.6,14.6,22.2
		C100.3,43.1,100.8,52.3,98.8,61.1z"/>
</g>
</svg>
