<?xml version="1.0" encoding="utf-8"?>
<!-- Generator: Adobe Illustrator 25.0.1, SVG Export Plug-In . SVG Version: 6.00 Build 0)  -->
<svg version="1.1" id="Capa_1" xmlns="http://www.w3.org/2000/svg" xmlns:xlink="http://www.w3.org/1999/xlink" x="0px" y="0px"
	 viewBox="0 0 100 100" style="enable-background:new 0 0 100 100;" xml:space="preserve">
<g>
</g>
<g>
</g>
<g>
</g>
<g>
</g>
<g>
	<path d="M82.81,100H17.19c-5.51,0-10-4.49-10-10V10c0-5.51,4.49-10,10-10h50.5c5.51,0,10,4.49,10,10v42.15
		c0,0.89,0.6,1.68,1.46,1.92h0l6.36,1.79c4.3,1.21,7.3,5.17,7.3,9.63V90C92.81,95.51,88.33,100,82.81,100z M17.19,8
		c-1.1,0-2,0.9-2,2v80c0,1.1,0.9,2,2,2h65.62c1.1,0,2-0.9,2-2V65.49c0-0.89-0.6-1.68-1.46-1.92l-6.36-1.79
		c-4.3-1.21-7.3-5.17-7.3-9.63V10c0-1.1-0.9-2-2-2H17.19z"/>
</g>
</svg>
