<?xml version="1.0" encoding="utf-8"?>
<!-- Generator: Adobe Illustrator 25.0.1, SVG Export Plug-In . SVG Version: 6.00 Build 0)  -->
<svg version="1.1" id="Capa_1" xmlns="http://www.w3.org/2000/svg" xmlns:xlink="http://www.w3.org/1999/xlink" x="0px" y="0px"
	 viewBox="0 0 100 100" style="enable-background:new 0 0 100 100;" xml:space="preserve">
<g>
	<path d="M67.9,29.3H32.1c-5.5,0-10,4.5-10,10v21.4c0,5.5,4.5,10,10,10h35.8c5.5,0,10-4.5,10-10V39.3C77.9,33.8,73.4,29.3,67.9,29.3
		z M69.9,60.7c0,1.1-0.9,2-2,2H32.1c-1.1,0-2-0.9-2-2V39.3c0-1.1,0.9-2,2-2h35.8c1.1,0,2,0.9,2,2V60.7z"/>
	<path d="M90,0H73.9h-4H30.1h-4H10C4.5,0,0,4.5,0,10v80c0,5.5,4.5,10,10,10h16.1h4h39.8h4H90c5.5,0,10-4.5,10-10V10
		C100,4.5,95.5,0,90,0z M30.1,8h39.8v6.7c0,1.1-0.9,2-2,2H32.1c-1.1,0-2-0.9-2-2V8z M30.1,92v-6.7c0-1.1,0.9-2,2-2h35.8
		c1.1,0,2,0.9,2,2V92H30.1z M92,90c0,1.1-0.9,2-2,2H77.9v-6.7c0-5.5-4.5-10-10-10H32.1c-5.5,0-10,4.5-10,10V92H10c-1.1,0-2-0.9-2-2
		V10c0-1.1,0.9-2,2-2h12.1v6.7c0,5.5,4.5,10,10,10h35.8c5.5,0,10-4.5,10-10V8H90c1.1,0,2,0.9,2,2V90z"/>
	<rect x="11" y="25.2" width="8" height="8"/>
	<rect x="11" y="11.3" width="8" height="8"/>
	<rect x="11" y="39.1" width="8" height="8"/>
	<rect x="11" y="66.9" width="8" height="8"/>
	<rect x="11" y="53" width="8" height="8"/>
	<rect x="11" y="80.8" width="8" height="7.9"/>
	<rect x="81" y="25.2" width="8" height="8"/>
	<rect x="81" y="11.3" width="8" height="8"/>
	<rect x="81" y="39.1" width="8" height="8"/>
	<rect x="81" y="66.9" width="8" height="8"/>
	<rect x="81" y="80.8" width="8" height="7.9"/>
	<rect x="81" y="53" width="8" height="8"/>
</g>
</svg>
