<?xml version="1.0" encoding="utf-8"?>
<!-- Generator: Adobe Illustrator 25.0.1, SVG Export Plug-In . SVG Version: 6.00 Build 0)  -->
<svg version="1.1" id="Capa_1" xmlns="http://www.w3.org/2000/svg" xmlns:xlink="http://www.w3.org/1999/xlink" x="0px" y="0px"
	 viewBox="0 0 100 100" style="enable-background:new 0 0 100 100;" xml:space="preserve">
<g>
	<path d="M90,100H46.8v-8H90c1.1,0,2-0.9,2-2V46.8h8V90C100,95.5,95.5,100,90,100z"/>
</g>
<g>
	<path d="M8,53.2H0V10C0,4.5,4.5,0,10,0h43.2v8H10c-1.1,0-2,0.9-2,2V53.2z"/>
</g>
<g>
	<path d="M69.7,79.7H30.3c-5.5,0-10-4.5-10-10V30.3c0-5.5,4.5-10,10-10h39.4c5.5,0,10,4.5,10,10v39.4C79.7,75.2,75.2,79.7,69.7,79.7
		z M30.3,28.3c-1.1,0-2,0.9-2,2v39.4c0,1.1,0.9,2,2,2h39.4c1.1,0,2-0.9,2-2V30.3c0-1.1-0.9-2-2-2H30.3z"/>
</g>
</svg>
