<?xml version="1.0" encoding="utf-8"?>
<!-- Generator: Adobe Illustrator 25.0.1, SVG Export Plug-In . SVG Version: 6.00 Build 0)  -->
<svg version="1.1" id="Capa_1" xmlns="http://www.w3.org/2000/svg" xmlns:xlink="http://www.w3.org/1999/xlink" x="0px" y="0px"
	 viewBox="0 0 100 100" style="enable-background:new 0 0 100 100;" xml:space="preserve">
<path d="M96.9,43.6l-6.1-4.8c-4.7-3.7-9.7-6.7-15-9l23-23l-5.7-5.7L67.4,26.9l-6.7,6.7L55.3,39L1.2,93.2l5.7,5.7l25.7-25.7
	c5.7,1.6,11.6,2.4,17.4,2.4c14.4,0,28.8-4.8,40.8-14.3l6.1-4.8c2-1.5,3.1-3.9,3.1-6.4S98.9,45.2,96.9,43.6z M50,66.1
	c-3,0-5.9-0.7-8.5-2l8.8-8.8c4.7-0.2,8.5-4,8.7-8.7l8.4-8.4c1.3,2.6,2,5.5,2,8.5C69.3,57.4,60.7,66.1,50,66.1z M92,50.1l-6.1,4.8
	c-4.4,3.5-9.1,6.2-14,8.2c3.4-4.6,5.5-10.3,5.5-16.4c0-2.7-0.4-5.3-1.2-7.9c3.4,1.7,6.6,3.8,9.7,6.2l6.1,4.8V50.1z M3.1,56.4
	l6.1,4.8c2.4,1.9,4.9,3.6,7.5,5.1l5.9-5.9c-2.9-1.6-5.7-3.4-8.4-5.5L8,50.1v-0.2l6.1-4.8c3.1-2.4,6.3-4.5,9.7-6.2
	c-0.8,2.5-1.2,5.2-1.2,7.9c0,4,0.9,7.8,2.4,11.2l6.2-6.2c-0.4-1.6-0.7-3.2-0.7-5c0-4.5,1.6-8.8,4.4-12.2c5.1-1.4,10.3-2,15.4-2
	L58,25c-17-2.1-34.6,2.5-48.8,13.8l-6.1,4.8C1.1,45.2,0,47.5,0,50S1.1,54.8,3.1,56.4z"/>
</svg>
