<?xml version="1.0" encoding="utf-8"?>
<!-- Generator: Adobe Illustrator 25.0.1, SVG Export Plug-In . SVG Version: 6.00 Build 0)  -->
<svg version="1.1" id="Capa_1" xmlns="http://www.w3.org/2000/svg" xmlns:xlink="http://www.w3.org/1999/xlink" x="0px" y="0px"
	 viewBox="0 0 100 100" style="enable-background:new 0 0 100 100;" xml:space="preserve">
<style type="text/css">
	.st0{fill:#0080FF;}
</style>
<path class="st0" d="M69.1,0H29.9c-5.5,0-10,4.5-10,10v80c0,5.5,4.5,10,10,10h39.1c5.5,0,10-4.5,10-10V10C79.1,4.5,74.6,0,69.1,0z
	 M71.1,90c0,1.1-0.9,2-2,2H29.9c-1.1,0-2-0.9-2-2V10c0-1.1,0.9-2,2-2h6.4v2.7c0,1.3,1.1,2.4,2.4,2.4h21.5c1.3,0,2.4-1.1,2.4-2.4V8
	h6.4c1.1,0,2,0.9,2,2V90z"/>
</svg>
