<?xml version="1.0" encoding="utf-8"?>
<!-- Generator: Adobe Illustrator 25.0.1, SVG Export Plug-In . SVG Version: 6.00 Build 0)  -->
<svg version="1.1" id="Capa_1" xmlns="http://www.w3.org/2000/svg" xmlns:xlink="http://www.w3.org/1999/xlink" x="0px" y="0px"
	 viewBox="0 0 100 100" style="enable-background:new 0 0 100 100;" xml:space="preserve">
<g>
	<path d="M65.3,75.9c1.9,3,4.3,5.2,8.5,5.2c3.6,0,5.9-1.8,5.9-4.3c0-3-2.4-4-6.3-5.7l-2.2-0.9c-6.2-2.7-10.4-6-10.4-13
		c0-6.5,4.9-11.4,12.7-11.4c5.5,0,9.4,1.9,12.3,6.9L79.1,57c-1.5-2.7-3.1-3.7-5.6-3.7c-2.5,0-4.1,1.6-4.1,3.7c0,2.6,1.6,3.6,5.3,5.2
		l2.2,0.9c7.3,3.1,11.5,6.4,11.5,13.6c0,7.8-6.1,12-14.3,12c-8,0-13.2-3.8-15.8-8.8L65.3,75.9z M34.8,76.6c1.4,2.4,2.6,4.4,5.6,4.4
		c2.8,0,4.6-1.1,4.6-5.4V46.2h8.6v29.5c0,9-5.2,13-12.9,13c-6.9,0-10.9-3.6-13-7.9L34.8,76.6z"/>
</g>
<g>
	<path d="M90,100H10c-5.5,0-10-4.5-10-10V10C0,4.5,4.5,0,10,0h80c5.5,0,10,4.5,10,10v80C100,95.5,95.5,100,90,100z M10,8
		c-1.1,0-2,0.9-2,2v80c0,1.1,0.9,2,2,2h80c1.1,0,2-0.9,2-2V10c0-1.1-0.9-2-2-2H10z"/>
</g>
</svg>
