<?xml version="1.0" encoding="utf-8"?>
<!-- Generator: Adobe Illustrator 25.0.1, SVG Export Plug-In . SVG Version: 6.00 Build 0)  -->
<svg version="1.1" id="Capa_1" xmlns="http://www.w3.org/2000/svg" xmlns:xlink="http://www.w3.org/1999/xlink" x="0px" y="0px"
	 viewBox="0 0 100 100" style="enable-background:new 0 0 100 100;" xml:space="preserve">
<g>
	<g>
		<path d="M42.1,99.3c-2.6,0-5.1-1-7.1-2.9L3.6,65.1c-1.9-1.9-2.9-4.4-2.9-7.1c0-2.7,1-5.2,2.9-7.1L50.9,3.6
			c1.9-1.9,4.4-2.9,7.1-2.9h31.4c5.5,0,10,4.5,10,10v31.4c0,2.7-1,5.2-2.9,7.1L49.2,96.4C47.2,98.3,44.7,99.3,42.1,99.3z M58,8.7
			c-0.5,0-1,0.2-1.4,0.6L9.2,56.6c-0.5,0.5-0.6,1.1-0.6,1.4c0,0.3,0.1,0.9,0.6,1.4l31.5,31.3c0.8,0.8,2,0.8,2.8,0l47.2-47.2
			c0.4-0.4,0.6-0.9,0.6-1.4V10.7c0-1.1-0.9-2-2-2H58z"/>
	</g>
	<g>
		<path d="M75.4,28.6c-1,0-2.1-0.4-2.8-1.2c-0.7-0.7-1.2-1.8-1.2-2.8c0-1,0.4-2.1,1.2-2.8c0.9-0.9,2.3-1.4,3.6-1.1
			c0.3,0.1,0.5,0.1,0.8,0.2c0.2,0.1,0.5,0.2,0.7,0.4c0.2,0.1,0.4,0.3,0.6,0.5c0.7,0.8,1.2,1.8,1.2,2.8c0,1.1-0.4,2.1-1.2,2.8
			C77.5,28.2,76.5,28.6,75.4,28.6z"/>
	</g>
	<g>
		<g>
			<rect x="17" y="45.1" transform="matrix(0.707 -0.7072 0.7072 0.707 -24.8013 38.24)" width="33.5" height="8"/>
		</g>
		<g>
			<rect x="28.6" y="58.5" transform="matrix(0.707 -0.7072 0.7072 0.707 -32.3508 46.9889)" width="24" height="8"/>
		</g>
	</g>
</g>
</svg>
