<?xml version="1.0" encoding="utf-8"?>
<!-- Generator: Adobe Illustrator 25.0.1, SVG Export Plug-In . SVG Version: 6.00 Build 0)  -->
<svg version="1.1" id="Capa_1" xmlns="http://www.w3.org/2000/svg" xmlns:xlink="http://www.w3.org/1999/xlink" x="0px" y="0px"
	 viewBox="0 0 100 100" style="enable-background:new 0 0 100 100;" xml:space="preserve">
<path d="M84.2,10.6H58.8V0h-8v58.9c-4.1-3.6-9.6-5.8-15.5-5.8c-12.9,0-23.5,10.5-23.5,23.5c0,12.9,10.5,23.5,23.5,23.5
	c12.9,0,23.5-10.5,23.5-23.5V18.6h25.4V10.6z M35.3,92c-8.5,0-15.5-6.9-15.5-15.5C19.8,68,26.8,61,35.3,61c8.5,0,15.5,6.9,15.5,15.5
	C50.8,85.1,43.9,92,35.3,92z"/>
</svg>
