<?xml version="1.0" encoding="utf-8"?>
<!-- Generator: Adobe Illustrator 25.0.1, SVG Export Plug-In . SVG Version: 6.00 Build 0)  -->
<svg version="1.1" id="Capa_1" xmlns="http://www.w3.org/2000/svg" xmlns:xlink="http://www.w3.org/1999/xlink" x="0px" y="0px"
	 viewBox="0 0 100 100" style="enable-background:new 0 0 100 100;" xml:space="preserve">
<g>
	<path d="M50,100c-2.8,0-5.5-1.2-7.4-3.2L41,95.2c-0.6-0.7-1.6-0.9-2.5-0.6l-2.1,0.8c-2.6,1-5.6,0.9-8.1-0.4
		c-2.5-1.2-4.5-3.4-5.3-6.1l-0.7-2.2c-0.3-0.9-1.1-1.5-2-1.6L18.1,85c-2.8-0.2-5.4-1.6-7.1-3.8c-1.7-2.2-2.5-5-2.1-7.8l0.3-2.3
		c0.1-0.9-0.3-1.8-1.1-2.3l-2-1.2c-2.4-1.4-4.1-3.8-4.8-6.6s-0.1-5.6,1.5-8L4,51.3c0.5-0.8,0.5-1.8,0-2.5l-1.3-1.9
		c-1.5-2.3-2.1-5.2-1.5-8c0.6-2.7,2.4-5.1,4.8-6.6l2-1.2c0.8-0.5,1.2-1.4,1.1-2.3l-0.3-2.3c-0.4-2.8,0.4-5.6,2.1-7.8
		c1.7-2.2,4.4-3.6,7.1-3.8l2.3-0.2c0.9-0.1,1.7-0.7,2-1.6l0.7-2.2c0.9-2.7,2.8-4.9,5.3-6.1c2.5-1.2,5.5-1.3,8.1-0.4l2.1,0.8
		c0.9,0.3,1.8,0.1,2.5-0.6l1.6-1.6C44.5,1.2,47.2,0,50,0c2.8,0,5.5,1.2,7.4,3.2L59,4.8c0.6,0.7,1.6,0.9,2.5,0.6l2.1-0.8
		c2.6-1,5.6-0.9,8.1,0.4c2.5,1.2,4.5,3.4,5.3,6.1l0.7,2.2c0.3,0.9,1.1,1.5,2,1.6l2.3,0.2c2.8,0.2,5.4,1.6,7.1,3.8
		c1.7,2.2,2.5,5,2.1,7.8l-0.3,2.2c-0.1,0.9,0.3,1.8,1.1,2.3l2,1.2c2.4,1.4,4.1,3.8,4.8,6.6c0.6,2.7,0.1,5.6-1.5,8L96,48.7
		c-0.5,0.8-0.5,1.8,0,2.5l1.3,1.9c1.5,2.3,2.1,5.2,1.5,8c-0.6,2.7-2.4,5.1-4.8,6.5l-2,1.2c-0.8,0.5-1.2,1.4-1.1,2.3l0.3,2.3
		c0.4,2.8-0.4,5.6-2.1,7.8s-4.4,3.6-7.1,3.8l-2.3,0.2c-0.9,0.1-1.7,0.7-2,1.6L77,88.9c-0.9,2.7-2.8,4.9-5.3,6.1
		c-2.5,1.2-5.5,1.3-8.1,0.4l-2.1-0.8c-0.9-0.3-1.8-0.1-2.5,0.6l-1.6,1.6C55.5,98.8,52.8,100,50,100z M39.3,86.4
		c2.8,0,5.5,1.1,7.4,3.2l1.6,1.6c0.6,0.6,1.3,0.7,1.7,0.7c0.4,0,1.1-0.1,1.7-0.7l1.6-1.6c2.9-3,7.2-4,11.1-2.5l2.1,0.8
		c0.8,0.3,1.5,0.1,1.8-0.1c0.3-0.2,0.9-0.5,1.2-1.4l0.7-2.2c1.3-3.9,4.8-6.7,8.9-7.1l2.3-0.2c0.8-0.1,1.4-0.6,1.6-0.8
		s0.6-0.9,0.5-1.7L83,72.2c-0.6-4.1,1.4-8.1,4.9-10.2l2-1.2c0.7-0.4,1-1.1,1.1-1.5c0.1-0.4,0.1-1.1-0.3-1.8l-1.3-1.9
		c-2.3-3.5-2.3-7.9,0-11.4l1.3-1.9c0.5-0.7,0.4-1.4,0.3-1.8c-0.1-0.4-0.3-1-1.1-1.5l-2-1.2c-3.6-2.1-5.5-6.1-4.9-10.2l0.3-2.2
		c0.1-0.8-0.2-1.4-0.5-1.7c-0.2-0.3-0.7-0.8-1.6-0.8L79,22.8c-4.1-0.4-7.6-3.1-8.9-7.1l-0.7-2.2c-0.3-0.8-0.9-1.2-1.2-1.4
		c-0.3-0.2-1-0.4-1.8-0.1l-2.1,0.8c-3.9,1.5-8.2,0.5-11.1-2.5l-1.6-1.6C51.1,8.1,50.4,8,50,8c-0.4,0-1.1,0.1-1.7,0.7l-1.6,1.6
		c-2.9,3-7.2,4-11.1,2.5l-2.1-0.8c-0.8-0.3-1.5-0.1-1.8,0.1c-0.3,0.2-0.9,0.5-1.2,1.4l-0.7,2.2c-1.3,3.9-4.8,6.7-8.9,7.1L18.7,23
		c-0.8,0.1-1.4,0.6-1.6,0.8c-0.2,0.3-0.6,0.9-0.5,1.7l0.3,2.3c0.6,4.1-1.4,8.1-4.9,10.2l-2,1.2c-0.7,0.4-1,1.1-1.1,1.5
		C9,41,8.9,41.7,9.4,42.4l1.3,1.9c2.3,3.5,2.3,7.9,0,11.4l-1.3,1.9C8.9,58.3,9,59,9.1,59.3c0.1,0.4,0.3,1,1.1,1.5l2,1.2
		c3.6,2.1,5.5,6.1,4.9,10.2l-0.3,2.3c-0.1,0.8,0.2,1.4,0.5,1.7c0.2,0.3,0.7,0.8,1.6,0.8l2.3,0.2c4.1,0.4,7.6,3.1,8.9,7.1l0.7,2.2
		c0.3,0.8,0.9,1.2,1.2,1.4c0.3,0.2,1,0.4,1.8,0.1l2.1-0.8C36.9,86.7,38.1,86.4,39.3,86.4z"/>
</g>
</svg>
