<?xml version="1.0" encoding="utf-8"?>
<!-- Generator: Adobe Illustrator 25.0.1, SVG Export Plug-In . SVG Version: 6.00 Build 0)  -->
<svg version="1.1" id="Capa_1" xmlns="http://www.w3.org/2000/svg" xmlns:xlink="http://www.w3.org/1999/xlink" x="0px" y="0px"
	 viewBox="0 0 100 100" style="enable-background:new 0 0 100 100;" xml:space="preserve">
<g>
	<path d="M50,100c-1.7,0-3.3-0.4-4.8-1.3L14,81.5c-2.8-1.6-4.7-4.4-5.1-7.6L3.2,24.3c-0.5-4.6,2.2-9,6.6-10.6L46.6,0.6
		c2.2-0.8,4.6-0.8,6.7,0l36.9,13.2c4.4,1.6,7.1,5.9,6.6,10.6l-5.7,49.6c-0.4,3.2-2.3,6-5.1,7.6L54.8,98.8C53.3,99.6,51.7,100,50,100
		z M50,8c-0.2,0-0.5,0-0.7,0.1L12.4,21.3c-0.9,0.3-1.4,1.2-1.3,2.1L16.8,73c0.1,0.6,0.5,1.2,1,1.5L49,91.8c0.6,0.3,1.3,0.3,1.9,0
		l31.2-17.3c0.6-0.3,0.9-0.9,1-1.5l5.7-49.6c0.1-0.9-0.4-1.8-1.3-2.1L50.7,8.1C50.5,8,50.2,8,50,8z"/>
</g>
<g>
	<path d="M50,13.9L22.9,74.8l0,0H33l0,0l5.5-13.6h23l5.5,13.6l0,0H77l0,0L50,13.9L50,13.9L50,13.9L50,13.9L50,13.9z M57.9,52.8H42.1
		L50,33.7L57.9,52.8z"/>
</g>
</svg>
