<?xml version="1.0" encoding="utf-8"?>
<!-- Generator: Adobe Illustrator 25.0.1, SVG Export Plug-In . SVG Version: 6.00 Build 0)  -->
<svg version="1.1" id="Capa_1" xmlns="http://www.w3.org/2000/svg" xmlns:xlink="http://www.w3.org/1999/xlink" x="0px" y="0px"
	 viewBox="0 0 100 100" style="enable-background:new 0 0 100 100;" xml:space="preserve">
<path d="M100,27.5c0-0.1,0-0.1,0-0.2c0-0.1-0.1-0.3-0.1-0.4c0-0.1,0-0.1-0.1-0.2c0-0.1-0.1-0.3-0.2-0.4c0,0,0-0.1,0-0.1
	c-0.1-0.2-0.2-0.3-0.3-0.5c0,0-0.1-0.1-0.1-0.1c-0.1-0.1-0.2-0.2-0.3-0.3c0,0-0.1-0.1-0.1-0.1c-0.1-0.1-0.2-0.2-0.3-0.3
	c0,0-0.1-0.1-0.1-0.1c0,0,0,0-0.1,0c-0.3-0.2-0.6-0.4-0.9-0.5c0,0,0,0-0.1,0l-46-16.2c-0.9-0.3-1.8-0.3-2.7,0l-46,16.2
	c0,0,0,0-0.1,0c-0.2,0.1-0.3,0.1-0.5,0.2c0,0,0,0,0,0c-0.1,0.1-0.3,0.2-0.4,0.3c0,0,0,0-0.1,0c0,0-0.1,0.1-0.1,0.1
	c-0.1,0.1-0.2,0.2-0.3,0.3c0,0-0.1,0.1-0.1,0.1c-0.1,0.1-0.2,0.2-0.3,0.3c0,0-0.1,0.1-0.1,0.1c-0.1,0.2-0.2,0.3-0.3,0.5
	c0,0,0,0.1,0,0.1c-0.1,0.1-0.1,0.3-0.2,0.4c0,0.1,0,0.1-0.1,0.2c0,0.1-0.1,0.3-0.1,0.4c0,0.1,0,0.1,0,0.2c0,0.2,0,0.4,0,0.6v43.8
	c0,1.7,1.1,3.2,2.7,3.8l46,16.2c0,0,0,0,0.1,0c0.1,0,0.3,0.1,0.4,0.1c0.1,0,0.1,0,0.2,0c0,0,0,0,0,0c0.2,0,0.4,0.1,0.6,0.1
	c0,0,0,0,0,0c0,0,0,0,0,0s0,0,0,0c0,0,0,0,0,0c0.2,0,0.4,0,0.6-0.1c0,0,0,0,0,0c0.1,0,0.1,0,0.2,0c0.1,0,0.3-0.1,0.4-0.1
	c0,0,0,0,0.1,0l46-16.2c1.6-0.6,2.7-2.1,2.7-3.8V28.1C100,27.9,100,27.7,100,27.5z M23,39v10.8l8,2.8V41.8l15,5.3v35.3l-18.9-6.6
	L8,69.1V33.7L23,39z M54,82.4V47.1L74.3,40L92,33.7v35.3l-19.1,6.7L54,82.4z M50,40l-2-0.7l-8.9-3.1L73,24.3l10.9,3.8L50,40z
	 M50,16.2L60.9,20L27,31.9l-10.9-3.8L50,16.2z"/>
</svg>
