<?xml version="1.0" encoding="utf-8"?>
<!-- Generator: Adobe Illustrator 25.0.1, SVG Export Plug-In . SVG Version: 6.00 Build 0)  -->
<svg version="1.1" id="Capa_1" xmlns="http://www.w3.org/2000/svg" xmlns:xlink="http://www.w3.org/1999/xlink" x="0px" y="0px"
	 viewBox="0 0 100 100" style="enable-background:new 0 0 100 100;" xml:space="preserve">
<g>
	<path d="M100,27.5c0-0.1,0-0.1,0-0.2c0-0.1-0.1-0.3-0.1-0.4c0-0.1,0-0.1-0.1-0.2c0-0.1-0.1-0.3-0.2-0.4c0,0,0-0.1,0-0.1
		c-0.1-0.2-0.2-0.3-0.3-0.5c0,0-0.1-0.1-0.1-0.1c-0.1-0.1-0.2-0.2-0.3-0.3c0,0-0.1-0.1-0.1-0.1c-0.1-0.1-0.2-0.2-0.3-0.3
		c0,0-0.1-0.1-0.1-0.1c0,0,0,0-0.1,0c-0.3-0.2-0.6-0.4-0.9-0.5c0,0,0,0-0.1,0l-46-16.2c-0.9-0.3-1.8-0.3-2.7,0l-46,16.2
		c0,0,0,0-0.1,0c-0.2,0.1-0.3,0.1-0.5,0.2c0,0,0,0,0,0c-0.1,0.1-0.3,0.2-0.4,0.3c0,0,0,0-0.1,0c0,0-0.1,0.1-0.1,0.1
		c-0.1,0.1-0.2,0.2-0.3,0.3c0,0-0.1,0.1-0.1,0.1c-0.1,0.1-0.2,0.2-0.3,0.3c0,0-0.1,0.1-0.1,0.1c-0.1,0.2-0.2,0.3-0.3,0.5
		c0,0,0,0.1,0,0.1c-0.1,0.1-0.1,0.3-0.2,0.4c0,0.1,0,0.1-0.1,0.2c0,0.1-0.1,0.3-0.1,0.4c0,0.1,0,0.1,0,0.2c0,0.2,0,0.4,0,0.6v43.8
		c0,1.7,1.1,3.2,2.7,3.8l46,16.2c0.4,0.2,0.9,0.2,1.3,0.2c0.8,0,1.6-0.3,2.3-0.7c1.1-0.7,1.7-2,1.7-3.3v-1.2V47.1L74.3,40L92,33.7
		v42.2h8V28.1C100,27.9,100,27.7,100,27.5z M50,40l-2-0.7l-8.9-3.1L73,24.3l10.9,3.8L50,40z M50,16.2L60.9,20L27,31.9l-10.9-3.8
		L50,16.2z M8,33.7L23,39v10.8l8,2.8V41.8l15,5.3v35.3L8,69.1V33.7z"/>
	<polygon points="78.6,82.6 78.6,52.2 70.6,52.2 70.6,82.6 65.4,77.4 59.8,83.1 74.6,97.9 89.4,83.1 83.7,77.4 	"/>
</g>
</svg>
