<?xml version="1.0" encoding="utf-8"?>
<!-- Generator: Adobe Illustrator 25.0.1, SVG Export Plug-In . SVG Version: 6.00 Build 0)  -->
<svg version="1.1" id="Capa_1" xmlns="http://www.w3.org/2000/svg" xmlns:xlink="http://www.w3.org/1999/xlink" x="0px" y="0px"
	 viewBox="0 0 100 100" style="enable-background:new 0 0 100 100;" xml:space="preserve">
<g>
	<g>
		<path d="M30.1,100H13.2c-5.5,0-10-4.5-10-10V10c0-5.5,4.5-10,10-10h16.9c5.5,0,10,4.5,10,10v80C40.1,95.5,35.6,100,30.1,100z
			 M13.2,8c-1.1,0-2,0.9-2,2v80c0,1.1,0.9,2,2,2h16.9c1.1,0,2-0.9,2-2V10c0-1.1-0.9-2-2-2H13.2z"/>
	</g>
	<g>
		<path d="M86.8,100H69.9c-5.5,0-10-4.5-10-10V10c0-5.5,4.5-10,10-10h16.9c5.5,0,10,4.5,10,10v80C96.8,95.5,92.4,100,86.8,100z
			 M69.9,8c-1.1,0-2,0.9-2,2v80c0,1.1,0.9,2,2,2h16.9c1.1,0,2-0.9,2-2V10c0-1.1-0.9-2-2-2H69.9z"/>
	</g>
</g>
</svg>
