<?xml version="1.0" encoding="utf-8"?>
<!-- Generator: Adobe Illustrator 25.0.1, SVG Export Plug-In . SVG Version: 6.00 Build 0)  -->
<svg version="1.1" id="Capa_1" xmlns="http://www.w3.org/2000/svg" xmlns:xlink="http://www.w3.org/1999/xlink" x="0px" y="0px"
	 viewBox="0 0 100 100" style="enable-background:new 0 0 100 100;" xml:space="preserve">
<g>
	<path d="M13.4,100c-1.3,0-2.6-0.3-3.7-1c-2.3-1.4-3.8-3.8-3.8-6.5v-85c0-2.7,1.4-5.1,3.8-6.5c2.3-1.4,5.1-1.3,7.5,0l73.3,42.5
		c2.3,1.4,3.7,3.8,3.7,6.5c0,2.7-1.4,5.1-3.7,6.5L17.1,99C15.9,99.7,14.6,100,13.4,100z M13.9,8.4v83.2L85.6,50L13.9,8.4z
		 M86.4,49.6C86.4,49.6,86.4,49.6,86.4,49.6L86.4,49.6z"/>
</g>
</svg>
