<?xml version="1.0" encoding="utf-8"?>
<!-- Generator: Adobe Illustrator 25.0.1, SVG Export Plug-In . SVG Version: 6.00 Build 0)  -->
<svg version="1.1" id="Capa_1" xmlns="http://www.w3.org/2000/svg" xmlns:xlink="http://www.w3.org/1999/xlink" x="0px" y="0px"
	 viewBox="0 0 100 100" style="enable-background:new 0 0 100 100;" xml:space="preserve">
<g>
	<path d="M92.7,27.5v-4.8c0-4.5-3-8.3-7.1-9.6V10c0-5.5-4.5-10-10-10H24.4c-5.5,0-10,4.5-10,10v3.2c-4.1,1.2-7.1,5-7.1,9.6v4.8
		c-4.2,1.2-7.3,5-7.3,9.6V90c0,5.5,4.5,10,10,10h80c5.5,0,10-4.5,10-10V37.2C100,32.6,96.9,28.7,92.7,27.5z M15.3,22.7
		c0-1.1,0.9-2,2-2h65.4c1.1,0,2,0.9,2,2v4.4H15.3V22.7z M22.4,10c0-1.1,0.9-2,2-2h51.1c1.1,0,2,0.9,2,2v2.8H22.4V10z M92,90
		c0,1.1-0.9,2-2,2H10c-1.1,0-2-0.9-2-2V37.1c0-1.1,0.9-2,2-2h80c1.1,0,2,0.9,2,2V90z"/>
	<path d="M59.8,61.8l-15.7-9.1c-1.3-0.8-3,0.2-3,1.7v18.1c0,1.5,1.7,2.5,3,1.7l15.7-9.1C61.1,64.5,61.1,62.6,59.8,61.8z"/>
</g>
</svg>
