<?xml version="1.0" encoding="utf-8"?>
<!-- Generator: Adobe Illustrator 25.0.1, SVG Export Plug-In . SVG Version: 6.00 Build 0)  -->
<svg version="1.1" id="Capa_1" xmlns="http://www.w3.org/2000/svg" xmlns:xlink="http://www.w3.org/1999/xlink" x="0px" y="0px"
	 viewBox="0 0 100 100" style="enable-background:new 0 0 100 100;" xml:space="preserve">
<path d="M92,27c0,23.2-18.8,42-42,42c-9.9,0-19.2-3.4-26.7-9.6l10.5-10.5c1.1-1.1,1.5-2.9,0.9-4.4s-2.1-2.5-3.7-2.5H4
	c-2.2,0-4,1.8-4,4V73c0,1.6,1,3.1,2.5,3.7C3,76.9,3.5,77,4,77c1,0,2.1-0.4,2.8-1.2l10.8-10.8C26.6,72.8,38,77,50,77
	c27.6,0,50-22.4,50-50H92z M8,63.3V50.1h13.3L8,63.3z"/>
</svg>
