<?xml version="1.0" encoding="utf-8"?>
<!-- Generator: Adobe Illustrator 25.0.1, SVG Export Plug-In . SVG Version: 6.00 Build 0)  -->
<svg version="1.1" id="Capa_1" xmlns="http://www.w3.org/2000/svg" xmlns:xlink="http://www.w3.org/1999/xlink" x="0px" y="0px"
	 viewBox="0 0 100 100" style="enable-background:new 0 0 100 100;" xml:space="preserve">
<style type="text/css">
	.st0{fill:#0080FF;}
</style>
<g>
	<g>
		<path class="st0" d="M8,28.3H0V7c0-3.9,3.2-7,7-7h22.4v8H8V28.3z"/>
	</g>
	<g>
		<path class="st0" d="M100,28.3h-8V8H70.5V0H93c3.9,0,7,3.2,7,7V28.3z"/>
	</g>
	<g>
		<path class="st0" d="M29.5,100H7c-3.9,0-7-3.2-7-7V69.4h8V92h21.5V100z"/>
	</g>
	<g>
		<path class="st0" d="M93,100H70.5v-8H92V69.4h8V93C100,96.8,96.8,100,93,100z"/>
	</g>
</g>
<g>
	<path class="st0" d="M43.5,43.5H14.9V14.9h28.6V43.5z M22.9,35.5h12.6V22.9H22.9V35.5z"/>
</g>
<g>
	<path class="st0" d="M85.1,43.5H56.5V14.9h28.6V43.5z M64.5,35.5h12.6V22.9H64.5V35.5z"/>
</g>
<g>
	<path class="st0" d="M43.5,85.1H14.9V56.5h28.6V85.1z M22.9,77.1h12.6V64.5H22.9V77.1z"/>
</g>
</svg>
