<?xml version="1.0" encoding="utf-8"?>
<!-- Generator: Adobe Illustrator 25.0.1, SVG Export Plug-In . SVG Version: 6.00 Build 0)  -->
<svg version="1.1" id="Capa_1" xmlns="http://www.w3.org/2000/svg" xmlns:xlink="http://www.w3.org/1999/xlink" x="0px" y="0px"
	 viewBox="0 0 100 100" style="enable-background:new 0 0 100 100;" xml:space="preserve">
<g>
</g>
<g>
</g>
<path d="M97.5,0.3C96-0.3,94.3,0,93.2,1.2L82.4,11.9C73.4,4.2,62,0,50,0C22.4,0,0,22.4,0,50h8C8,26.8,26.8,8,50,8
	c9.9,0,19.2,3.4,26.7,9.6L66.2,28.1c-1.1,1.1-1.5,2.9-0.9,4.4s2.1,2.5,3.7,2.5H96c2.2,0,4-1.8,4-4V4C100,2.4,99,0.9,97.5,0.3z
	 M92,26.9H78.7L92,13.7V26.9z"/>
<path d="M50,100c27.6,0,50-22.4,50-50h-8c0,23.2-18.8,42-42,42c-9.9,0-19.2-3.4-26.7-9.6l10.5-10.5c1.1-1.1,1.5-2.9,0.9-4.4
	c-0.6-1.5-2.1-2.5-3.7-2.5H4c-2.2,0-4,1.8-4,4V96c0,1.6,1,3.1,2.5,3.7C3,99.9,3.5,100,4,100c1,0,2.1-0.4,2.8-1.2l10.8-10.8
	C26.6,95.8,38,100,50,100z M8,73.1h13.3L8,86.3V73.1z"/>
</svg>
