<?xml version="1.0" encoding="utf-8"?>
<!-- Generator: Adobe Illustrator 25.0.1, SVG Export Plug-In . SVG Version: 6.00 Build 0)  -->
<svg version="1.1" id="Capa_1" xmlns="http://www.w3.org/2000/svg" xmlns:xlink="http://www.w3.org/1999/xlink" x="0px" y="0px"
	 viewBox="0 0 100 100" style="enable-background:new 0 0 100 100;" xml:space="preserve">
<g>
	<path d="M45.8,75.1H10c-5.5,0-10-4.5-10-10V34.9c0-5.5,4.5-10,10-10h36v8H10c-1.1,0-2,0.9-2,2v30.2c0,1.1,0.9,2,2,2h35.8V75.1z"/>
</g>
<g>
	<rect x="21.8" y="35.1" transform="matrix(-1.836970e-16 1 -1 -1.836970e-16 80.8819 19.1186)" width="18.2" height="29.8"/>
</g>
<path d="M90,24.9H62v-8h8.2v-8H45.8v8H54v66.2h-8.2v8h24.5v-8H62v-8h28c5.5,0,10-4.5,10-10V34.9C100,29.4,95.5,24.9,90,24.9z
	 M92,65.1c0,1.1-0.9,2-2,2H62V32.9h28c1.1,0,2,0.9,2,2V65.1z"/>
</svg>
