<?xml version="1.0" encoding="utf-8"?>
<!-- Generator: Adobe Illustrator 25.0.1, SVG Export Plug-In . SVG Version: 6.00 Build 0)  -->
<svg version="1.1" id="Capa_1" xmlns="http://www.w3.org/2000/svg" xmlns:xlink="http://www.w3.org/1999/xlink" x="0px" y="0px"
	 viewBox="0 0 100 100" style="enable-background:new 0 0 100 100;" xml:space="preserve">
<path d="M89.7,21.3L55,1.3c-3.1-1.8-6.9-1.8-10,0l-34.7,20c-3.1,1.8-5,5.1-5,8.7v40c0,3.6,1.9,6.9,5,8.7l34.7,20
	c1.5,0.9,3.3,1.3,5,1.3c1.7,0,3.5-0.4,5-1.3l34.7-20c3.1-1.8,5-5.1,5-8.7V30C94.7,26.4,92.7,23.1,89.7,21.3z M85.7,28.3
	c0.6,0.4,1,1,1,1.7v36.6L54,47.7V10L85.7,28.3z M14.3,28.3L46,10v37.7L13.3,66.5V30C13.3,29.3,13.7,28.6,14.3,28.3z M51,91.8
	c-0.6,0.4-1.4,0.4-2,0L17.3,73.5L50,54.6l32.7,18.9L51,91.8z"/>
</svg>
