<?xml version="1.0" encoding="utf-8"?>
<!-- Generator: Adobe Illustrator 25.0.1, SVG Export Plug-In . SVG Version: 6.00 Build 0)  -->
<svg version="1.1" id="Capa_1" xmlns="http://www.w3.org/2000/svg" xmlns:xlink="http://www.w3.org/1999/xlink" x="0px" y="0px"
	 viewBox="0 0 100 100" style="enable-background:new 0 0 100 100;" xml:space="preserve">
<path d="M80.4,0H19.6c-5.5,0-10,4.5-10,10v80c0,5.5,4.5,10,10,10h50.5c5.5,0,10-4.5,10-10V43.3c0-0.8,0.5-1.5,1.2-1.9l2.9-1.2
	c3.8-1.5,6.2-5.2,6.2-9.3V10C90.4,4.5,85.9,0,80.4,0z M82.4,31c0,0.8-0.5,1.5-1.2,1.9L78.3,34c-3.8,1.5-6.2,5.2-6.2,9.3V90
	c0,1.1-0.9,2-2,2h-3.3V76.1h-8V92h-4V76.1h-8V92h-4V76.1h-8V92h-4V76.1h-8V92h-3.3c-1.1,0-2-0.9-2-2V10c0-1.1,0.9-2,2-2h60.9
	c1.1,0,2,0.9,2,2V31z"/>
</svg>
