<?xml version="1.0" encoding="utf-8"?>
<!-- Generator: Adobe Illustrator 25.0.1, SVG Export Plug-In . SVG Version: 6.00 Build 0)  -->
<svg version="1.1" id="Capa_1" xmlns="http://www.w3.org/2000/svg" xmlns:xlink="http://www.w3.org/1999/xlink" x="0px" y="0px"
	 viewBox="0 0 100 100" style="enable-background:new 0 0 100 100;" xml:space="preserve">
<path d="M99,71.1c-0.8-2.9-2.4-5.5-4.7-7.4c0.6-2.9,0.9-5.9,0.9-8.8c0-19.4-12.5-36.6-30.7-42.8C63.2,5.2,57.2,0,50,0
	c-7.2,0-13.2,5.2-14.5,12.1C17.3,18.3,4.9,35.4,4.9,54.9c0,3,0.3,5.9,0.9,8.8C0.4,68.2-1.1,76,2.5,82.3c2,3.4,5.1,5.8,8.9,6.9
	c1.3,0.3,2.6,0.5,3.8,0.5c1.7,0,3.4-0.3,5-0.9C28.5,96,38.9,100,50,100c11.1,0,21.5-4,29.8-11.2c1.6,0.6,3.3,0.9,5,0.9
	c1.3,0,2.6-0.2,3.8-0.5c3.8-1,7-3.5,8.9-6.9C99.5,78.9,100,74.9,99,71.1z M87.1,54.9c0,1.8-0.1,3.7-0.4,5.5
	c-1.9-0.3-3.9-0.1-5.8,0.4c-2.5,0.7-4.7,1.9-6.5,3.7l-10.2-5.9c0.3-1.2,0.5-2.4,0.5-3.6c0-6.7-4.5-12.4-10.7-14.2V28.9
	c4.4-1.2,7.9-4.4,9.6-8.6C77.7,25.8,87.1,39.5,87.1,54.9z M50,48.1c3.7,0,6.7,3,6.7,6.7s-3,6.7-6.7,6.7c-3.7,0-6.7-3-6.7-6.7
	S46.3,48.1,50,48.1z M50,8c3.7,0,6.7,3,6.7,6.7s-3,6.7-6.7,6.7c-3.7,0-6.7-3-6.7-6.7S46.3,8,50,8z M36.4,20.3
	c1.7,4.1,5.3,7.3,9.6,8.6v11.8c-6.2,1.7-10.7,7.4-10.7,14.2c0,1.2,0.2,2.5,0.5,3.6l-10.2,5.9c-1.8-1.7-4-3-6.5-3.7
	c-1.9-0.5-3.9-0.6-5.8-0.4c-0.3-1.8-0.4-3.6-0.4-5.5C12.9,39.5,22.4,25.8,36.4,20.3z M13.5,81.4c-1.7-0.5-3.2-1.6-4.1-3.1
	c-1.9-3.2-0.8-7.3,2.5-9.2c1-0.6,2.2-0.9,3.4-0.9c0.6,0,1.2,0.1,1.8,0.2c1.7,0.5,3.2,1.6,4.1,3.1c0.9,1.6,1.1,3.4,0.7,5.1
	c-0.5,1.7-1.6,3.2-3.1,4.1C17,81.7,15.2,81.9,13.5,81.4z M26.9,83.9c1.2-1.5,2.1-3.3,2.6-5.2c0.7-2.5,0.7-5,0-7.4l10.2-5.9
	C42.4,68,46,69.6,50,69.6c4,0,7.6-1.6,10.3-4.2l10.2,5.9c-0.6,2.4-0.6,5,0,7.4c0.5,1.9,1.4,3.7,2.6,5.2C66.6,89.2,58.5,92,50,92
	C41.5,92,33.4,89.2,26.9,83.9z M90.6,78.3c-0.9,1.6-2.3,2.7-4.1,3.1c-1.7,0.5-3.5,0.2-5.1-0.7c-1.6-0.9-2.7-2.3-3.1-4.1
	c-0.5-1.7-0.2-3.5,0.7-5.1s2.3-2.7,4.1-3.1c0.6-0.2,1.2-0.2,1.8-0.2c1.2,0,2.3,0.3,3.4,0.9c1.6,0.9,2.7,2.3,3.1,4.1
	C91.7,74.9,91.5,76.7,90.6,78.3z"/>
</svg>
