<?xml version="1.0" encoding="utf-8"?>
<!-- Generator: Adobe Illustrator 25.0.1, SVG Export Plug-In . SVG Version: 6.00 Build 0)  -->
<svg version="1.1" id="Capa_1" xmlns="http://www.w3.org/2000/svg" xmlns:xlink="http://www.w3.org/1999/xlink" x="0px" y="0px"
	 viewBox="0 0 100 100" style="enable-background:new 0 0 100 100;" xml:space="preserve">
<path d="M76.3,20.4h-7.6V10c0-5.5-4.5-10-10-10H42.3c-5.5,0-10,4.5-10,10v10.4h-8.6c-5.5,0-10,4.5-10,10V90c0,5.5,4.5,10,10,10h52.7
	c5.5,0,10-4.5,10-10V30.4C86.3,24.9,81.9,20.4,76.3,20.4z M40.3,10c0-1.1,0.9-2,2-2h16.5c1.1,0,2,0.9,2,2v10.4H40.3V10z M78.3,90
	c0,1.1-0.9,2-2,2H23.7c-1.1,0-2-0.9-2-2V30.4c0-1.1,0.9-2,2-2h52.7c1.1,0,2,0.9,2,2V90z"/>
</svg>
