<?xml version="1.0" encoding="utf-8"?>
<!-- Generator: Adobe Illustrator 25.0.1, SVG Export Plug-In . SVG Version: 6.00 Build 0)  -->
<svg version="1.1" id="Capa_1" xmlns="http://www.w3.org/2000/svg" xmlns:xlink="http://www.w3.org/1999/xlink" x="0px" y="0px"
	 viewBox="0 0 100 100" style="enable-background:new 0 0 100 100;" xml:space="preserve">
<g>
	<path d="M96.9,43.6l-6.1-4.8c-24-19.1-57.6-19.1-81.7,0l-6.1,4.8C1.1,45.2,0,47.5,0,50c0,2.5,1.1,4.8,3.1,6.4l6.1,4.8
		c12,9.5,26.4,14.3,40.8,14.3c14.4,0,28.8-4.8,40.8-14.3l6.1-4.8c2-1.5,3.1-3.9,3.1-6.4S98.9,45.2,96.9,43.6z M14.1,54.9L8,50.1
		l0-0.2l6.1-4.8c3.1-2.4,6.3-4.5,9.7-6.2c-0.8,2.5-1.2,5.2-1.2,7.9c0,6.2,2,11.8,5.5,16.4C23.2,61.1,18.5,58.4,14.1,54.9z M50,66.1
		c-10.7,0-19.3-8.7-19.3-19.3c0-4.5,1.6-8.8,4.4-12.2c9.8-2.7,20.1-2.7,30,0c2.8,3.4,4.4,7.7,4.4,12.2C69.3,57.4,60.7,66.1,50,66.1z
		 M85.9,54.9c-4.4,3.5-9.1,6.2-14,8.2c3.4-4.6,5.5-10.3,5.5-16.4c0-2.7-0.4-5.3-1.2-7.9c3.4,1.7,6.6,3.8,9.7,6.2l6.1,4.8l0,0.2
		L85.9,54.9z"/>
	<circle cx="50" cy="46.3" r="7.5"/>
</g>
</svg>
