<?xml version="1.0" encoding="utf-8"?>
<!-- Generator: Adobe Illustrator 25.0.1, SVG Export Plug-In . SVG Version: 6.00 Build 0)  -->
<svg version="1.1" id="Capa_1" xmlns="http://www.w3.org/2000/svg" xmlns:xlink="http://www.w3.org/1999/xlink" x="0px" y="0px"
	 viewBox="0 0 100 100" style="enable-background:new 0 0 100 100;" xml:space="preserve">
<path d="M73.2,21.4c-2.4-1.4-5.3-1.4-7.7,0L31,41.4v-21h-8v59.3h8v-21l34.5,20c1.2,0.7,2.5,1,3.8,1c1.3,0,2.6-0.3,3.8-1
	c2.4-1.4,3.8-3.9,3.8-6.6V28C77,25.3,75.6,22.8,73.2,21.4z M31.6,50.3L31.6,50.3L31.6,50.3C31.6,50.3,31.6,50.3,31.6,50.3z M69,71.4
	L32.1,50L69,28.6V71.4z"/>
</svg>
