<?xml version="1.0" encoding="utf-8"?>
<!-- Generator: Adobe Illustrator 25.0.1, SVG Export Plug-In . SVG Version: 6.00 Build 0)  -->
<svg version="1.1" id="Capa_1" xmlns="http://www.w3.org/2000/svg" xmlns:xlink="http://www.w3.org/1999/xlink" x="0px" y="0px"
	 viewBox="0 0 100 100" style="enable-background:new 0 0 100 100;" xml:space="preserve">
<style type="text/css">
	.st0{fill:#0080FF;}
</style>
<g>
	<path class="st0" d="M69.1,100H29.9c-5.5,0-10-4.5-10-10V10c0-5.5,4.5-10,10-10h39.1c5.5,0,10,4.5,10,10v80
		C79.1,95.5,74.6,100,69.1,100z M29.9,8c-1.1,0-2,0.9-2,2v80c0,1.1,0.9,2,2,2h39.1c1.1,0,2-0.9,2-2V10c0-1.1-0.9-2-2-2H29.9z"/>
</g>
<circle class="st0" cx="50" cy="82.6" r="4"/>
</svg>
