<?xml version="1.0" encoding="utf-8"?>
<!-- Generator: Adobe Illustrator 25.0.1, SVG Export Plug-In . SVG Version: 6.00 Build 0)  -->
<svg version="1.1" id="Capa_1" xmlns="http://www.w3.org/2000/svg" xmlns:xlink="http://www.w3.org/1999/xlink" x="0px" y="0px"
	 viewBox="0 0 100 100" style="enable-background:new 0 0 100 100;" xml:space="preserve">
<g>
	<path d="M75.9,100c-1.3,0-2.5-0.3-3.7-0.9L50,87.6L27.8,99.1c-2.7,1.4-5.8,1.2-8.3-0.6c-2.6-1.8-3.9-4.9-3.4-8l3.6-25.7
		c0-0.2,0-0.3-0.1-0.4L2.3,45.9c-2.1-2.3-2.8-5.5-1.8-8.4c1-2.9,3.4-5,6.3-5.5l24.4-4.4c0,0,0.1,0,0.1-0.1l11.5-23
		C44.2,1.7,46.9,0,50,0c3.1,0,5.8,1.7,7.2,4.5l11.5,23c0,0.1,0.1,0.1,0.1,0.1L93.3,32c2.9,0.5,5.3,2.6,6.3,5.5
		c1,2.9,0.3,6.2-1.8,8.4L80.4,64.5c-0.1,0.1-0.1,0.2-0.1,0.4l3.6,25.7c0.4,3.1-0.9,6.2-3.4,8C79.1,99.5,77.5,100,75.9,100z M50,8
		c0,0,0,0-0.1,0.1l-11.5,23c-1.2,2.3-3.3,3.9-5.8,4.4L8.1,39.8c0,0-0.1,0.1-0.1,0.3c0,0.2,0.1,0.3,0.1,0.3L25.4,59
		c1.7,1.9,2.5,4.4,2.2,6.9L24,91.6c0,0.3,0.2,0.4,0.2,0.4l22.2-11.5c2.3-1.2,5-1.2,7.3,0L75.9,92c0,0,0.2-0.1,0.1-0.4l-3.6-25.7
		c-0.4-2.5,0.4-5.1,2.2-6.9l17.3-18.6c0,0,0.1-0.1,0.1-0.3c0-0.2-0.1-0.3-0.1-0.3l-24.4-4.4c-2.5-0.4-4.7-2.1-5.8-4.4l-11.5-23h0
		C50,8,50,8,50,8z"/>
</g>
</svg>
