<?xml version="1.0" encoding="utf-8"?>
<!-- Generator: Adobe Illustrator 25.0.1, SVG Export Plug-In . SVG Version: 6.00 Build 0)  -->
<svg version="1.1" id="Capa_1" xmlns="http://www.w3.org/2000/svg" xmlns:xlink="http://www.w3.org/1999/xlink" x="0px" y="0px"
	 viewBox="0 0 100 100" style="enable-background:new 0 0 100 100;" xml:space="preserve">
<g>
	<g>
		<path d="M85.4,85.4l-5.7-5.7c16.4-16.4,16.4-43,0-59.4l5.7-5.7C104.9,34.1,104.9,65.9,85.4,85.4z"/>
	</g>
	<g>
		<path d="M14.6,85.4C5.2,75.9,0,63.4,0,50s5.2-25.9,14.6-35.4l5.7,5.7C12.4,28.2,8,38.8,8,50s4.4,21.8,12.3,29.7L14.6,85.4z"/>
	</g>
	<g>
		<path d="M73.3,73.3l-5.7-5.7c9.7-9.7,9.7-25.5,0-35.2l5.7-5.7C86.1,39.6,86.1,60.4,73.3,73.3z"/>
	</g>
	<g>
		<path d="M26.7,73.3c-6.2-6.2-9.6-14.5-9.6-23.3c0-8.8,3.4-17.1,9.6-23.3l5.7,5.7c-4.7,4.7-7.3,11-7.3,17.6
			c0,6.7,2.6,12.9,7.3,17.6L26.7,73.3z"/>
	</g>
	<g>
		<circle cx="50" cy="50" r="9.6"/>
	</g>
	<g>
		<circle cx="50" cy="50" r="9.6"/>
	</g>
</g>
</svg>
