<?xml version="1.0" encoding="utf-8"?>
<!-- Generator: Adobe Illustrator 25.0.1, SVG Export Plug-In . SVG Version: 6.00 Build 0)  -->
<svg version="1.1" id="Capa_1" xmlns="http://www.w3.org/2000/svg" xmlns:xlink="http://www.w3.org/1999/xlink" x="0px" y="0px"
	 viewBox="0 0 100 100" style="enable-background:new 0 0 100 100;" xml:space="preserve">
<style type="text/css">
	.st0{fill-rule:evenodd;clip-rule:evenodd;}
</style>
<g>
	<path d="M90,100H10c-5.5,0-10-4.5-10-10V10C0,4.5,4.5,0,10,0h80c5.5,0,10,4.5,10,10v80C100,95.5,95.5,100,90,100z M10,8
		c-1.1,0-2,0.9-2,2v80c0,1.1,0.9,2,2,2h80c1.1,0,2-0.9,2-2V10c0-1.1-0.9-2-2-2H10z"/>
</g>
<g>
	<g>
		<path class="st0" d="M60.5,77.3v9.1c1.5,0.8,3.2,1.3,5.3,1.7c2,0.4,4.2,0.6,6.4,0.6c2.2,0,4.3-0.2,6.2-0.6c2-0.4,3.7-1.1,5.2-2.1
			c1.5-1,2.7-2.2,3.5-3.8c0.9-1.6,1.3-3.5,1.3-5.8c0-1.7-0.2-3.1-0.7-4.4c-0.5-1.2-1.2-2.4-2.1-3.3c-0.9-1-2-1.8-3.3-2.6
			c-1.3-0.8-2.8-1.5-4.4-2.2c-1.2-0.5-2.3-1-3.2-1.4c-0.9-0.5-1.8-0.9-2.4-1.4c-0.7-0.5-1.2-1-1.5-1.5C70.2,59,70,58.4,70,57.7
			c0-0.6,0.2-1.2,0.5-1.7c0.3-0.5,0.8-0.9,1.4-1.3c0.6-0.4,1.3-0.6,2.2-0.8c0.9-0.2,1.8-0.3,2.8-0.3c0.8,0,1.6,0.1,2.4,0.2
			c0.8,0.1,1.7,0.3,2.5,0.5c0.9,0.2,1.7,0.5,2.5,0.9c0.8,0.4,1.6,0.8,2.2,1.3v-8.5c-1.4-0.5-2.9-0.9-4.5-1.2
			c-1.6-0.3-3.5-0.4-5.7-0.4c-2.2,0-4.2,0.2-6.1,0.7c-1.9,0.5-3.6,1.2-5.1,2.2c-1.5,1-2.6,2.3-3.5,3.8c-0.9,1.5-1.3,3.4-1.3,5.5
			c0,2.7,0.8,5,2.3,7c1.6,1.9,3.9,3.6,7.1,4.9c1.3,0.5,2.4,1,3.5,1.5c1.1,0.5,2,1,2.8,1.5c0.8,0.5,1.4,1.1,1.9,1.7
			c0.5,0.6,0.7,1.3,0.7,2.1c0,0.6-0.1,1.1-0.4,1.6c-0.3,0.5-0.7,0.9-1.3,1.3c-0.6,0.4-1.3,0.7-2.2,0.9c-0.9,0.2-1.9,0.3-3,0.3
			c-2,0-3.9-0.3-5.9-1C64,79.7,62.2,78.7,60.5,77.3z M45.2,54.5h11.9V47H23.9v7.5h11.9V88h9.4L45.2,54.5z"/>
	</g>
</g>
</svg>
