<?xml version="1.0" encoding="utf-8"?>
<!-- Generator: Adobe Illustrator 25.0.1, SVG Export Plug-In . SVG Version: 6.00 Build 0)  -->
<svg version="1.1" id="Capa_1" xmlns="http://www.w3.org/2000/svg" xmlns:xlink="http://www.w3.org/1999/xlink" x="0px" y="0px"
	 viewBox="0 0 100 100" style="enable-background:new 0 0 100 100;" xml:space="preserve">
<g>
	<path d="M81.9,15.6h-23l6.2-7.1l-6-5.3l-9,10.2L39.6,0.2l-6.2,5l8.4,10.4H18.1c-5.5,0-10,4.5-10,10V90c0,5.5,4.5,10,10,10h63.8
		c5.5,0,10-4.5,10-10V25.6C91.9,20.1,87.4,15.6,81.9,15.6z M83.9,90c0,1.1-0.9,2-2,2H18.1c-1.1,0-2-0.9-2-2V25.6c0-1.1,0.9-2,2-2
		h63.8c1.1,0,2,0.9,2,2V90z"/>
	<path d="M21.1,70.7h57.8V28.6H21.1V70.7z M29.1,36.6h41.8v26.1H29.1V36.6z"/>
	<rect x="21.1" y="77.4" width="11.5" height="8"/>
	<rect x="41.4" y="77.4" width="37.5" height="8"/>
</g>
</svg>
