<?xml version="1.0" encoding="utf-8"?>
<!-- Generator: Adobe Illustrator 25.0.1, SVG Export Plug-In . SVG Version: 6.00 Build 0)  -->
<svg version="1.1" id="Capa_1" xmlns="http://www.w3.org/2000/svg" xmlns:xlink="http://www.w3.org/1999/xlink" x="0px" y="0px"
	 viewBox="0 0 100 100" style="enable-background:new 0 0 100 100;" xml:space="preserve">
<g>
	<g>
		<path d="M56.3,100.1c-2.7,0-5.2-1.1-7.2-3.1L26.5,73.6c-0.4-0.4-0.9-0.6-1.4-0.6H12.8c-5.5,0-10-4.5-10-10V37c0-5.5,4.5-10,10-10
			h12.3c0.5,0,1.1-0.2,1.4-0.6L49.1,3v0C52,0,56.3-0.9,60.1,0.7c3.8,1.5,6.3,5.2,6.3,9.3v80.1c0,4.1-2.5,7.7-6.3,9.3
			C58.8,99.8,57.5,100.1,56.3,100.1z M12.8,35c-1.1,0-2,0.9-2,2V63c0,1.1,0.9,2,2,2h12.3c2.7,0,5.3,1.1,7.2,3.1l22.6,23.4
			c0.8,0.9,1.8,0.6,2.2,0.5c0.4-0.2,1.3-0.6,1.3-1.9V9.9c0-1.2-0.9-1.7-1.3-1.9c-0.4-0.2-1.3-0.4-2.2,0.5v0L32.2,32
			c-1.9,1.9-4.5,3.1-7.2,3.1H12.8z"/>
	</g>
	<g>
		<path d="M76.1,62.3l-5.7-5.7c1.8-1.8,2.7-4.1,2.7-6.6s-1-4.8-2.7-6.6l5.7-5.7c3.3,3.3,5.1,7.6,5.1,12.3
			C81.2,54.6,79.4,59,76.1,62.3z"/>
	</g>
	<g>
		<path d="M85,79.5l-5.7-5.7c6.4-6.4,9.9-14.9,9.9-23.9c0-9-3.5-17.5-9.9-23.9l5.7-5.7c7.9,7.9,12.2,18.4,12.2,29.5
			S92.9,71.6,85,79.5z"/>
	</g>
</g>
</svg>
