<?xml version="1.0" encoding="utf-8"?>
<!-- Generator: Adobe Illustrator 25.0.1, SVG Export Plug-In . SVG Version: 6.00 Build 0)  -->
<svg version="1.1" id="Capa_1" xmlns="http://www.w3.org/2000/svg" xmlns:xlink="http://www.w3.org/1999/xlink" x="0px" y="0px"
	 viewBox="0 0 100 100" style="enable-background:new 0 0 100 100;" xml:space="preserve">
<g>
	<g>
		<path d="M71.7,100.1c-2.7,0-5.2-1.1-7.2-3.1L41.9,73.6C41.6,73.2,41,73,40.5,73H28.2c-5.5,0-10-4.5-10-10V37c0-5.5,4.5-10,10-10
			h12.3c0.5,0,1.1-0.2,1.4-0.6L64.6,3v0c2.8-2.9,7.1-3.9,10.9-2.3c3.8,1.5,6.3,5.2,6.3,9.3v80.1c0,4.1-2.5,7.7-6.3,9.3
			C74.3,99.8,73,100.1,71.7,100.1z M28.2,35c-1.1,0-2,0.9-2,2V63c0,1.1,0.9,2,2,2h12.3c2.7,0,5.3,1.1,7.2,3.1l22.6,23.4
			c0.8,0.9,1.8,0.6,2.2,0.5c0.4-0.2,1.3-0.6,1.3-1.9V9.9c0-1.2-0.9-1.7-1.3-1.9c-0.4-0.2-1.3-0.4-2.2,0.5v0L47.7,32
			c-1.9,1.9-4.5,3.1-7.2,3.1H28.2z"/>
	</g>
</g>
</svg>
