<?xml version="1.0" encoding="utf-8"?>
<!-- Generator: Adobe Illustrator 25.0.1, SVG Export Plug-In . SVG Version: 6.00 Build 0)  -->
<svg version="1.1" id="Capa_1" xmlns="http://www.w3.org/2000/svg" xmlns:xlink="http://www.w3.org/1999/xlink" x="0px" y="0px"
	 viewBox="0 0 100 100" style="enable-background:new 0 0 100 100;" xml:space="preserve">
<path d="M89.9,91.7H10.1c-3.7,0-6.9-1.9-8.7-5.1s-1.7-7,0.2-10.1l39.9-65.9c1.8-3,5-4.8,8.6-4.8c3.5,0,6.7,1.8,8.6,4.8l39.9,65.9
	c1.9,3.1,2,6.9,0.2,10.1S93.6,91.7,89.9,91.7z M50,13.9c-0.3,0-1.2,0.1-1.7,1L8.4,80.7c-0.5,0.9-0.2,1.7,0,2c0.2,0.3,0.7,1,1.7,1
	h79.8c1.1,0,1.6-0.7,1.7-1c0.2-0.3,0.5-1.1,0-2L51.7,14.8C51.2,13.9,50.3,13.9,50,13.9z"/>
<g>
	<g>
		<rect x="46" y="28.9" width="8" height="34"/>
	</g>
	<g>
		<circle cx="50" cy="74.2" r="4"/>
	</g>
</g>
</svg>
