<?xml version="1.0" encoding="utf-8"?>
<!-- Generator: Adobe Illustrator 25.0.1, SVG Export Plug-In . SVG Version: 6.00 Build 0)  -->
<svg version="1.1" id="Capa_1" xmlns="http://www.w3.org/2000/svg" xmlns:xlink="http://www.w3.org/1999/xlink" x="0px" y="0px"
	 viewBox="0 0 100 100" style="enable-background:new 0 0 100 100;" xml:space="preserve">
<g>
	<path d="M90,100H10c-5.5,0-10-4.5-10-10V10C0,4.5,4.5,0,10,0c5,0,12.4,0,18.5,0c12.6,0,12.6,0,13.8,1.2l1.2,1.2l0,1.7
		c0,3.7,3.1,7,6.5,7c3.5,0,6.5-3.3,6.5-7V2.3l1.2-1.2c1.3-1.2,1.2-1.3,13.8-1.2C77.7-0.1,85,0,90,0c5.5,0,10,4.5,10,10v80
		C100,95.5,95.5,100,90,100z M30.2,7.9c-4.6,0-11.2,0-20.2,0c-1.1,0-2,0.9-2,2v80c0,1.1,0.9,2,2,2h80c1.1,0,2-0.9,2-2V10
		c0-1.1-0.9-2-2-2c-13.8-0.1-22-0.1-26,0C62.3,14.2,56.6,19,50,19c-6.6,0-12.3-4.8-14-11.1C34.6,7.9,32.7,7.9,30.2,7.9z"/>
</g>
<g>
	<path d="M25.4,53.6h6.1l4.2,22.2h0.1l5-22.2h5.7L50.9,76H51l4.7-22.4h6L54,86.2h-6.1L43.4,64h-0.1l-4.8,22.2h-6.2L25.4,53.6z
		 M68.6,53.6h9.6l9.5,32.6h-6.3l-2.1-7.2H68.5l-1.6,7.2h-6.1L68.6,53.6z M72.3,61.6l-2.7,12h8.3l-3.1-12H72.3z"/>
</g>
</svg>
