<?xml version="1.0" encoding="utf-8"?>
<!-- Generator: Adobe Illustrator 25.4.0, SVG Export Plug-In . SVG Version: 6.00 Build 0)  -->
<svg version="1.1" id="Capa_1" xmlns="http://www.w3.org/2000/svg" xmlns:xlink="http://www.w3.org/1999/xlink" x="0px" y="0px"
	 viewBox="0 0 100 100" style="enable-background:new 0 0 100 100;" xml:space="preserve">
<g>
	<path d="M31,33.9c0,7.9,6.4,14.3,14.3,14.3c7.9,0,14.3-6.4,14.3-14.3s-6.4-14.3-14.3-14.3C37.4,19.6,31,26,31,33.9z M51.5,33.9
		c0,3.5-2.8,6.3-6.3,6.3S39,37.3,39,33.9s2.8-6.3,6.3-6.3S51.5,30.4,51.5,33.9z"/>
	<path d="M51.2,54.3H32.2c-7.6,0-13.8,6.2-13.8,13.8v3C12,64.4,8,55.3,8,45.2C8,24.7,24.7,8,45.2,8c20.5,0,37.2,16.7,37.2,37.2
		c0,2.2,1.8,4,4,4s4-1.8,4-4C90.5,20.3,70.2,0,45.2,0C20.3,0,0,20.3,0,45.2c0,15.6,8,29.5,20.1,37.6c0.1,0.1,0.2,0.1,0.3,0.2
		c7.1,4.7,15.7,7.4,24.8,7.4c2.2,0,4-1.8,4-4s-1.8-4-4-4c-6.9,0-13.3-1.9-18.8-5.1V68c0-3.2,2.6-5.8,5.8-5.8h18.9c2.2,0,4-1.8,4-4
		S53.4,54.3,51.2,54.3z"/>
	<path d="M77,54c-12.7,0-23,10.3-23,23s10.3,23,23,23s23-10.3,23-23S89.7,54,77,54z M77,92c-8.3,0-15-6.7-15-15s6.7-15,15-15
		s15,6.7,15,15S85.3,92,77,92z"/>
	<path d="M83.9,73H70.1c-2.2,0-4,1.8-4,4s1.8,4,4,4h13.9c2.2,0,4-1.8,4-4S86.1,73,83.9,73z"/>
</g>
</svg>
