<?xml version="1.0" encoding="utf-8"?>
<!-- Generator: Adobe Illustrator 25.4.0, SVG Export Plug-In . SVG Version: 6.00 Build 0)  -->
<svg version="1.1" id="Capa_1" xmlns="http://www.w3.org/2000/svg" xmlns:xlink="http://www.w3.org/1999/xlink" x="0px" y="0px"
	 viewBox="0 0 100 100" style="enable-background:new 0 0 100 100;" xml:space="preserve">
<g>
	<path d="M46.9,49.8c8.1,0,14.7-6.6,14.7-14.7c0-8.1-6.6-14.7-14.7-14.7S32.2,27,32.2,35.1C32.2,43.2,38.8,49.8,46.9,49.8z
		 M46.9,28.4c3.7,0,6.7,3,6.7,6.7s-3,6.7-6.7,6.7s-6.7-3-6.7-6.7S43.2,28.4,46.9,28.4z"/>
	<path d="M76,70.3V66c0-2.2-1.8-4-4-4s-4,1.8-4,4V72c0,1.1,0.4,2.1,1.2,2.8l6.7,6.7c0.8,0.8,1.8,1.2,2.8,1.2s2-0.4,2.8-1.2
		c1.6-1.6,1.6-4.1,0-5.7L76,70.3z"/>
	<path d="M93.3,53.8c0.3-2.3,0.5-4.6,0.5-6.9C93.9,21.1,72.8,0,46.9,0C21.1,0,0,21.1,0,46.9c0,25.9,21.1,46.9,46.9,46.9
		c2.3,0,4.6-0.2,6.9-0.5c4.9,4.1,11.2,6.7,18.1,6.7c15.5,0,28-12.6,28-28C100,65.1,97.5,58.7,93.3,53.8z M8,46.9
		C8,25.5,25.5,8,46.9,8c21.5,0,38.9,17.5,38.9,38.9c0,0.2,0,0.4,0,0.7c-4.1-2.3-8.8-3.7-13.9-3.7c-9.7,0-18.3,5-23.4,12.6H33.4
		c-7.8,0-14.2,6.4-14.2,14.2v3.5C12.3,67.2,8,57.5,8,46.9z M27.2,80.5v-9.8c0-3.4,2.8-6.2,6.2-6.2h11.5c-0.7,2.4-1,4.9-1,7.5
		c0,5.1,1.3,9.8,3.7,13.9c-0.2,0-0.4,0-0.7,0C39.7,85.9,33,83.9,27.2,80.5z M72,92c-11.1,0-20-9-20-20s9-20,20-20s20,9,20,20
		S83,92,72,92z"/>
</g>
</svg>
