<?xml version="1.0" encoding="utf-8"?>
<!-- Generator: Adobe Illustrator 25.4.0, SVG Export Plug-In . SVG Version: 6.00 Build 0)  -->
<svg version="1.1" id="Capa_1" xmlns="http://www.w3.org/2000/svg" xmlns:xlink="http://www.w3.org/1999/xlink" x="0px" y="0px"
	 viewBox="0 0 100 100" style="enable-background:new 0 0 100 100;" xml:space="preserve">
<g>
	<path d="M50,0C22.4,0,0,22.4,0,50s22.4,50,50,50s50-22.4,50-50S77.6,0,50,0z M50,92C26.8,92,8,73.2,8,50C8,26.8,26.8,8,50,8
		c23.2,0,42,18.8,42,42C92,73.2,73.2,92,50,92z"/>
	<path d="M68.5,46H54V31.5c0-2.2-1.8-4-4-4s-4,1.8-4,4V46H31.5c-2.2,0-4,1.8-4,4s1.8,4,4,4H46v14.5c0,2.2,1.8,4,4,4s4-1.8,4-4V54
		h14.5c2.2,0,4-1.8,4-4S70.7,46,68.5,46z"/>
</g>
</svg>
