<?xml version="1.0" encoding="utf-8"?>
<!-- Generator: Adobe Illustrator 25.4.0, SVG Export Plug-In . SVG Version: 6.00 Build 0)  -->
<svg version="1.1" id="Capa_1" xmlns="http://www.w3.org/2000/svg" xmlns:xlink="http://www.w3.org/1999/xlink" x="0px" y="0px"
	 viewBox="0 0 100 100" style="enable-background:new 0 0 100 100;" xml:space="preserve">
<g>
	<path d="M45.1,79.9H12c-2.2,0-4-1.8-4-4V19.2c0-2.2,1.8-4,4-4h18.8c1.8,0,3.4,1.2,3.9,2.9l0.7,2.5c1.4,5.2,6.2,8.8,11.6,8.8h35.3
		c2.2,0,4,1.8,4,4v14.2c0,2.2,1.8,4,4,4s4-1.8,4-4V33.4c0-6.6-5.4-12-12-12H46.9c-1.8,0-3.4-1.2-3.9-2.9l-0.7-2.5
		c-1.4-5.2-6.2-8.8-11.6-8.8H12c-6.6,0-12,5.4-12,12v56.7c0,6.6,5.4,12,12,12h33.1c2.2,0,4-1.8,4-4S47.3,79.9,45.1,79.9z"/>
	<path d="M77,54c-12.7,0-23,10.3-23,23s10.3,23,23,23s23-10.3,23-23S89.7,54,77,54z M77,92c-8.3,0-15-6.7-15-15s6.7-15,15-15
		s15,6.7,15,15S85.3,92,77,92z"/>
	<path d="M83.9,73H81v-2.9c0-2.2-1.8-4-4-4s-4,1.8-4,4V73h-2.9c-2.2,0-4,1.8-4,4s1.8,4,4,4H73v2.9c0,2.2,1.8,4,4,4s4-1.8,4-4V81h2.9
		c2.2,0,4-1.8,4-4S86.1,73,83.9,73z"/>
</g>
</svg>
