<?xml version="1.0" encoding="utf-8"?>
<!-- Generator: Adobe Illustrator 25.4.0, SVG Export Plug-In . SVG Version: 6.00 Build 0)  -->
<svg version="1.1" id="Capa_1" xmlns="http://www.w3.org/2000/svg" xmlns:xlink="http://www.w3.org/1999/xlink" x="0px" y="0px"
	 viewBox="0 0 100 100" style="enable-background:new 0 0 100 100;" xml:space="preserve">
<g>
	<path d="M50.6,55.1l-4.8,4.8l-5.7-5.7l0,0l4.8-4.8c1.6-1.6,1.6-4.1,0-5.7c-1.6-1.6-4.1-1.6-5.7,0l-4.8,4.8l-0.9-0.9
		c-1.6-1.6-4.1-1.6-5.7,0L18.4,57c-3.3,3.3-5.1,7.6-5.1,12.3c0,3.3,0.9,6.4,2.6,9.1L1.2,93.1c-1.6,1.6-1.6,4.1,0,5.7
		C2,99.6,3,100,4,100s2-0.4,2.8-1.2l14.7-14.7c2.8,1.7,5.9,2.6,9.1,2.6c4.4,0,8.9-1.7,12.3-5.1l9.4-9.4c0.8-0.8,1.2-1.8,1.2-2.8
		s-0.4-2.1-1.2-2.8l-0.9-0.9l4.8-4.8c1.6-1.6,1.6-4.1,0-5.7C54.7,53.6,52.2,53.6,50.6,55.1z M37.3,75.9c-3.6,3.6-9.6,3.6-13.2,0
		c0,0,0,0,0,0c-1.8-1.8-2.7-4.1-2.7-6.6c0-2.5,1-4.8,2.7-6.6l6.6-6.6l13.2,13.2L37.3,75.9z"/>
	<path d="M98.8,1.2c-1.6-1.6-4.1-1.6-5.7,0L78.4,15.9c-2.7-1.7-5.8-2.6-9.1-2.6c-4.6,0-9,1.8-12.3,5.1l-9.4,9.4
		c-1.6,1.6-1.6,4.1,0,5.7l18.9,18.9c0.8,0.8,1.8,1.2,2.8,1.2s2.1-0.4,2.8-1.2l9.4-9.4c5.8-5.8,6.6-14.7,2.5-21.4L98.8,6.9
		C100.4,5.3,100.4,2.8,98.8,1.2z M75.9,37.3l-6.6,6.6L56.1,30.7l6.6-6.6c1.8-1.8,4.1-2.7,6.6-2.7c2.5,0,4.8,1,6.6,2.7c0,0,0,0,0,0
		C79.6,27.7,79.6,33.6,75.9,37.3z"/>
</g>
</svg>
