<?xml version="1.0" encoding="utf-8"?>
<!-- Generator: Adobe Illustrator 25.4.0, SVG Export Plug-In . SVG Version: 6.00 Build 0)  -->
<svg version="1.1" id="Capa_1" xmlns="http://www.w3.org/2000/svg" xmlns:xlink="http://www.w3.org/1999/xlink" x="0px" y="0px"
	 viewBox="0 0 100 100" style="enable-background:new 0 0 100 100;" xml:space="preserve">
<path d="M96,78.5h-9.9V53.1c0-15.9-10.3-29.4-24.6-34.2v-7.4C61.5,5.2,56.3,0,50,0c-6.3,0-11.5,5.2-11.5,11.5v7.4
	c-14.3,4.8-24.6,18.3-24.6,34.2v25.4H4c-2.2,0-4,1.8-4,4s1.8,4,4,4h9.9H33c1.8,7.7,8.7,13.5,17,13.5s15.2-5.8,17-13.5h19.1H96
	c2.2,0,4-1.8,4-4S98.2,78.5,96,78.5z M46.5,11.5C46.5,9.6,48.1,8,50,8c1.9,0,3.5,1.6,3.5,3.5v5.7C52.3,17.1,51.2,17,50,17
	s-2.3,0.1-3.5,0.2V11.5z M50,92c-3.8,0-7.1-2.3-8.6-5.5h17.2C57.1,89.7,53.8,92,50,92z M21.9,78.5V53.1C21.9,37.6,34.5,25,50,25
	c15.5,0,28.1,12.6,28.1,28.1v25.4H21.9z"/>
</svg>
