<?xml version="1.0" encoding="utf-8"?>
<!-- Generator: Adobe Illustrator 25.4.0, SVG Export Plug-In . SVG Version: 6.00 Build 0)  -->
<svg version="1.1" id="Capa_1" xmlns="http://www.w3.org/2000/svg" xmlns:xlink="http://www.w3.org/1999/xlink" x="0px" y="0px"
	 viewBox="0 0 100 100" style="enable-background:new 0 0 100 100;" xml:space="preserve">
<g>
	<path d="M50,100C22.4,100,0,77.6,0,50S22.4,0,50,0s50,22.4,50,50S77.6,100,50,100z M50,8C26.8,8,8,26.8,8,50c0,23.2,18.8,42,42,42
		c23.2,0,42-18.8,42-42C92,26.8,73.2,8,50,8z"/>
</g>
<g>
	<g>
		<path d="M64.5,68.5c-1,0-2-0.4-2.8-1.2l-29-29c-1.6-1.6-1.6-4.1,0-5.7c1.6-1.6,4.1-1.6,5.7,0l29,29c1.6,1.6,1.6,4.1,0,5.7
			C66.5,68.1,65.5,68.5,64.5,68.5z"/>
	</g>
	<g>
		<path d="M35.5,68.5c-1,0-2-0.4-2.8-1.2c-1.6-1.6-1.6-4.1,0-5.7l29-29c1.6-1.6,4.1-1.6,5.7,0c1.6,1.6,1.6,4.1,0,5.7l-29,29
			C37.6,68.1,36.5,68.5,35.5,68.5z"/>
	</g>
</g>
</svg>
