<?xml version="1.0" encoding="utf-8"?>
<!-- Generator: Adobe Illustrator 25.4.0, SVG Export Plug-In . SVG Version: 6.00 Build 0)  -->
<svg version="1.1" id="Capa_1" xmlns="http://www.w3.org/2000/svg" xmlns:xlink="http://www.w3.org/1999/xlink" x="0px" y="0px"
	 viewBox="0 0 100 100" style="enable-background:new 0 0 100 100;" xml:space="preserve">
<g>
	<g>
		<path d="M88,76.2H52c-2.2,0-4-1.8-4-4s1.8-4,4-4h36c2.2,0,4-1.8,4-4V23.1c0-2.2-1.8-4-4-4H12c-2.2,0-4,1.8-4,4v13.8
			c0,2.2-1.8,4-4,4s-4-1.8-4-4V23.1c0-6.6,5.4-12,12-12h76c6.6,0,12,5.4,12,12v41.1C100,70.9,94.6,76.2,88,76.2z"/>
	</g>
	<g>
		<path d="M60.7,88.9H52c-2.2,0-4-1.8-4-4s1.8-4,4-4h8.7c2.2,0,4,1.8,4,4S62.9,88.9,60.7,88.9z"/>
	</g>
</g>
<g>
	<g>
		<path d="M28,88.9c-2.2,0-4-1.8-4-4c0-11-9-20-20-20c-2.2,0-4-1.8-4-4s1.8-4,4-4c15.4,0,28,12.6,28,28C32,87.1,30.2,88.9,28,88.9z"
			/>
	</g>
	<g>
		<path d="M40,88.9c-2.2,0-4-1.8-4-4c0-17.6-14.4-32-32-32c-2.2,0-4-1.8-4-4c0-2.2,1.8-4,4-4c22.1,0,40,17.9,40,40
			C44,87.1,42.2,88.9,40,88.9z"/>
	</g>
	<g>
		<path d="M16,88.9c-2.2,0-4-1.8-4-4c0-4.4-3.6-8-8-8c-2.2,0-4-1.8-4-4s1.8-4,4-4c8.8,0,16,7.2,16,16C20,87.1,18.2,88.9,16,88.9z"/>
	</g>
</g>
</svg>
