<?xml version="1.0" encoding="utf-8"?>
<!-- Generator: Adobe Illustrator 25.4.0, SVG Export Plug-In . SVG Version: 6.00 Build 0)  -->
<svg version="1.1" id="Capa_1" xmlns="http://www.w3.org/2000/svg" xmlns:xlink="http://www.w3.org/1999/xlink" x="0px" y="0px"
	 viewBox="0 0 100 100" style="enable-background:new 0 0 100 100;" xml:space="preserve">
<g>
	<g>
		<g>
			<path d="M88,80.6h-3.8c-2.2,0-4-1.8-4-4s1.8-4,4-4H88c2.2,0,4-1.8,4-4V27.5c0-2.2-1.8-4-4-4H12c-2.2,0-4,1.8-4,4v41.1
				c0,2.2,1.8,4,4,4h3.9c2.2,0,4,1.8,4,4s-1.8,4-4,4H12c-6.6,0-12-5.4-12-12V27.5c0-6.6,5.4-12,12-12h76c6.6,0,12,5.4,12,12v41.1
				C100,75.2,94.6,80.6,88,80.6z"/>
		</g>
	</g>
	<g>
		<g>
			<path d="M31.2,75.1c-1,0-2-0.4-2.8-1.2c-1.6-1.6-1.6-4.1,0-5.7c11.9-11.9,31.3-11.9,43.3,0c1.6,1.6,1.6,4.1,0,5.7
				c-1.6,1.6-4.1,1.6-5.7,0c-8.8-8.8-23.1-8.8-32,0C33.2,74.7,32.2,75.1,31.2,75.1z"/>
		</g>
		<g>
			<path d="M78.2,65.7c-1,0-2-0.4-2.8-1.2C68.6,57.7,59.6,54,50,54c-9.6,0-18.6,3.7-25.4,10.5c-1.6,1.6-4.1,1.6-5.7,0
				c-1.6-1.6-1.6-4.1,0-5.7C27.3,50.6,38.3,46,50,46s22.7,4.6,31,12.9c1.6,1.6,1.6,4.1,0,5.7C80.3,65.3,79.2,65.7,78.2,65.7z"/>
		</g>
		<g>
			<path d="M40.6,84.5c-1,0-2-0.4-2.8-1.2c-1.6-1.6-1.6-4.1,0-5.7c3.3-3.3,7.6-5.1,12.2-5.1c4.6,0,9,1.8,12.2,5.1
				c1.6,1.6,1.6,4.1,0,5.7c-1.6,1.6-4.1,1.6-5.7,0c-1.8-1.8-4.1-2.7-6.6-2.7s-4.8,1-6.6,2.7C42.6,84.1,41.6,84.5,40.6,84.5z"/>
		</g>
	</g>
</g>
</svg>
