<?xml version="1.0" encoding="utf-8"?>
<!-- Generator: Adobe Illustrator 25.4.0, SVG Export Plug-In . SVG Version: 6.00 Build 0)  -->
<svg version="1.1" id="Capa_1" xmlns="http://www.w3.org/2000/svg" xmlns:xlink="http://www.w3.org/1999/xlink" x="0px" y="0px"
	 viewBox="0 0 100 100" style="enable-background:new 0 0 100 100;" xml:space="preserve">
<g>
	<path d="M51.4,83.1c6.5,0,11.8-5.2,12-11.7h4.5c2.2,0,4-1.8,4-4s-1.8-4-4-4H50.9c-2.2,0-4,1.8-4,4s1.8,4,4,4h4.4
		c-0.2,2.1-1.9,3.7-4,3.7H34.2c-2.2,0-4-1.8-4-4V12c0-2.2,1.8-4,4-4h17.2c2.1,0,3.8,1.6,4,3.7h-4.4c-2.2,0-4,1.8-4,4s1.8,4,4,4h16.9
		c2.2,0,4-1.8,4-4s-1.8-4-4-4h-4.5C63.2,5.2,57.9,0,51.4,0H34.2c-6.6,0-12,5.4-12,12v59.1c0,6,4.4,11,10.2,11.9V92h-6.2
		c-2.2,0-4,1.8-4,4s1.8,4,4,4h41.7c2.2,0,4-1.8,4-4s-1.8-4-4-4H40.4v-8.9H51.4z"/>
	<path d="M77.8,28.1c-2.4-1.8-5.7-2.2-9.3-1.2c-5.9,1.5-12.2,1.5-18.2,0c-3.6-1-6.9-0.6-9.3,1.2c-2.3,1.7-3.5,4.5-3.5,7.8v11.4
		c0,3.3,1.2,6.1,3.5,7.8c1.6,1.2,3.5,1.8,5.6,1.8c1.2,0,2.5-0.2,3.7-0.6c5.9-1.5,12.2-1.5,18.2,0c3.6,1,6.9,0.6,9.3-1.2
		c2.3-1.7,3.5-4.5,3.5-7.8V35.9C81.3,32.5,80.1,29.8,77.8,28.1z M73.3,47.2c0,0.8-0.2,1.3-0.3,1.4c-0.2,0.1-0.9,0.3-2.4-0.1l-0.1,0
		c-3.6-0.9-7.4-1.4-11.1-1.4s-7.5,0.5-11.1,1.4l-0.1,0c-1.5,0.4-2.2,0.2-2.4,0.1c-0.1-0.1-0.3-0.5-0.3-1.4V35.9
		c0-0.8,0.2-1.3,0.3-1.4c0.2-0.1,0.9-0.3,2.4,0.1l0.1,0c7.3,1.9,15,1.9,22.3,0l0.1,0c1.5-0.4,2.2-0.2,2.4-0.1
		c0.1,0.1,0.3,0.5,0.3,1.4V47.2z"/>
</g>
</svg>
