<?xml version="1.0" encoding="utf-8"?>
<!-- Generator: Adobe Illustrator 25.4.0, SVG Export Plug-In . SVG Version: 6.00 Build 0)  -->
<svg version="1.1" id="Capa_1" xmlns="http://www.w3.org/2000/svg" xmlns:xlink="http://www.w3.org/1999/xlink" x="0px" y="0px"
	 viewBox="0 0 100 100" style="enable-background:new 0 0 100 100;" xml:space="preserve">
<g>
	<g>
		<g>
			<path d="M50,100C22.4,100,0,77.6,0,50S22.4,0,50,0s50,22.4,50,50S77.6,100,50,100z M50,8C26.8,8,8,26.8,8,50
				c0,23.2,18.8,42,42,42c23.2,0,42-18.8,42-42C92,26.8,73.2,8,50,8z"/>
		</g>
	</g>
</g>
<g>
	<path d="M56.8,79.4c-1.2,0-2.4-0.5-3.1-1.5l-20-25.4c-1-1.2-1.1-2.8-0.5-4.2c0.7-1.4,2.1-2.3,3.6-2.3H55L40.1,27.1
		c-1.4-1.7-1.1-4.2,0.7-5.6c1.7-1.4,4.2-1.1,5.6,0.7l20,25.4c1,1.2,1.1,2.8,0.5,4.2c-0.7,1.4-2.1,2.3-3.6,2.3H45l14.9,18.9
		c1.4,1.7,1.1,4.2-0.7,5.6C58.5,79.1,57.7,79.4,56.8,79.4z"/>
</g>
</svg>
