<?xml version="1.0" encoding="utf-8"?>
<!-- Generator: Adobe Illustrator 25.4.0, SVG Export Plug-In . SVG Version: 6.00 Build 0)  -->
<svg version="1.1" id="Capa_1" xmlns="http://www.w3.org/2000/svg" xmlns:xlink="http://www.w3.org/1999/xlink" x="0px" y="0px"
	 viewBox="0 0 100 100" style="enable-background:new 0 0 100 100;" xml:space="preserve">
<g>
	<path d="M88,9.9H12c-6.6,0-12,5.4-12,12v56.3c0,6.6,5.4,12,12,12h76c6.6,0,12-5.4,12-12V21.9C100,15.2,94.6,9.9,88,9.9z M12,17.9
		h76c2.2,0,4,1.8,4,4v4H8v-4C8,19.7,9.8,17.9,12,17.9z M88,82.1H12c-2.2,0-4-1.8-4-4V33.9h84v44.3C92,80.3,90.2,82.1,88,82.1z"/>
	<path d="M19.6,49.9H33c2.2,0,4-1.8,4-4s-1.8-4-4-4H19.6c-2.2,0-4,1.8-4,4S17.4,49.9,19.6,49.9z"/>
	<path d="M54.1,57.9H19.6c-2.2,0-4,1.8-4,4s1.8,4,4,4h34.5c2.2,0,4-1.8,4-4S56.3,57.9,54.1,57.9z"/>
</g>
</svg>
