<?xml version="1.0" encoding="utf-8"?>
<!-- Generator: Adobe Illustrator 26.1.0, SVG Export Plug-In . SVG Version: 6.00 Build 0)  -->
<svg version="1.1" id="Capa_1" xmlns="http://www.w3.org/2000/svg" xmlns:xlink="http://www.w3.org/1999/xlink" x="0px" y="0px"
	 viewBox="0 0 100 100" style="enable-background:new 0 0 100 100;" xml:space="preserve">
<g>
	<path d="M79.3,100H46.2c-5.5,0-10-4.5-10-10V38.1c0-5.5,4.5-10,10-10h33.2c5.5,0,10,4.5,10,10V90C89.3,95.5,84.9,100,79.3,100z
		 M46.2,36.1c-1.1,0-2,0.9-2,2V90c0,1.1,0.9,2,2,2h33.2c1.1,0,2-0.9,2-2V38.1c0-1.1-0.9-2-2-2H46.2z"/>
</g>
<g>
	<path d="M25.2,71.9h-5.5c-5.5,0-10-4.5-10-10V10c0-5.5,4.5-10,10-10h33.2c5.5,0,10,4.5,10,10v7.1c0,2.2-1.8,4-4,4s-4-1.8-4-4V10
		c0-1.1-0.9-2-2-2H19.7c-1.1,0-2,0.9-2,2v51.9c0,1.1,0.9,2,2,2h5.5c2.2,0,4,1.8,4,4S27.4,71.9,25.2,71.9z"/>
</g>
</svg>
