<?xml version="1.0" encoding="utf-8"?>
<!-- Generator: Adobe Illustrator 25.4.0, SVG Export Plug-In . SVG Version: 6.00 Build 0)  -->
<svg version="1.1" id="Capa_1" xmlns="http://www.w3.org/2000/svg" xmlns:xlink="http://www.w3.org/1999/xlink" x="0px" y="0px"
	 viewBox="0 0 100 100" style="enable-background:new 0 0 100 100;" xml:space="preserve">
<path d="M92.8,41.1c-0.2-0.5-0.6-1-1-1.4l-0.7-0.7l-22-22c0,0,0,0,0,0l-0.7-0.7c-0.4-0.4-0.9-0.8-1.4-1c-1.9-1.2-4.1-1.8-6.3-1.8
	h-3.2l-9.9-9.9l0,0c0,0,0,0,0,0l-0.7-0.7c-0.4-0.4-0.9-0.8-1.4-1C43.5,0.6,41.3,0,39,0H21.5c-6.6,0-12,5.4-12,12v62.6
	c0,6.6,5.4,12,12,12H31V88c0,6.6,5.4,12,12,12h39.6c6.6,0,12-5.4,12-12V47.4C94.6,45.1,94,42.9,92.8,41.1z M67.9,27l13,13h-9
	c-2.2,0-4-1.8-4-4V27z M21.5,78.6c-2.2,0-4-1.8-4-4V12c0-2.2,1.8-4,4-4h16.9v6.3c-4.3,1.8-7.3,6.1-7.3,11v53.2H21.5z M82.6,92H43
	c-2.2,0-4-1.8-4-4V25.4c0-2.2,1.8-4,4-4h16.9v14.7c0,6.6,5.4,12,12,12h14.7V88C86.6,90.2,84.8,92,82.6,92z"/>
</svg>
