<?xml version="1.0" encoding="utf-8"?>
<!-- Generator: Adobe Illustrator 25.4.0, SVG Export Plug-In . SVG Version: 6.00 Build 0)  -->
<svg version="1.1" id="Capa_1" xmlns="http://www.w3.org/2000/svg" xmlns:xlink="http://www.w3.org/1999/xlink" x="0px" y="0px"
	 viewBox="0 0 100 100" style="enable-background:new 0 0 100 100;" xml:space="preserve">
<g>
	<path d="M50,0C22.4,0,0,22.4,0,50s22.4,50,50,50s50-22.4,50-50S77.6,0,50,0z M50,92C26.8,92,8,73.2,8,50C8,26.8,26.8,8,50,8
		c23.2,0,42,18.8,42,42C92,73.2,73.2,92,50,92z"/>
	<path d="M83.6,38.7c-0.7-2.1-3-3.2-5.1-2.5c-2.1,0.7-3.2,3-2.5,5.1c0.9,2.8,1.4,5.7,1.4,8.7c0,4.5-1.1,9-3.2,12.9
		c-1,1.9-0.3,4.4,1.6,5.4c0.6,0.3,1.2,0.5,1.9,0.5c1.4,0,2.8-0.8,3.5-2.1c2.7-5.1,4.2-10.9,4.2-16.7C85.4,46.2,84.8,42.4,83.6,38.7z
		"/>
	<path d="M50,22.6c3,0,5.9,0.5,8.7,1.4c2.1,0.7,4.4-0.4,5.1-2.5c0.7-2.1-0.4-4.4-2.5-5.1c-3.6-1.2-7.4-1.8-11.3-1.8
		c-19.5,0-35.4,15.9-35.4,35.4c0,5.8,1.5,11.6,4.2,16.7c0.7,1.3,2.1,2.1,3.5,2.1c0.6,0,1.3-0.2,1.9-0.5c1.9-1,2.7-3.5,1.6-5.4
		c-2.1-4-3.2-8.4-3.2-12.9C22.6,34.9,34.9,22.6,50,22.6z"/>
	<path d="M75,30.7c1.6-1.6,1.6-4.1,0-5.7c-1.6-1.6-4.1-1.6-5.7,0L54.6,39.8c-1.4-0.6-2.9-1-4.6-1c-6.2,0-11.2,5-11.2,11.2
		c0,6.2,5,11.2,11.2,11.2c6.2,0,11.2-5,11.2-11.2c0-1.6-0.4-3.2-1-4.6L75,30.7z M50,53.2c-1.8,0-3.2-1.4-3.2-3.2
		c0-1.8,1.4-3.2,3.2-3.2c1.8,0,3.2,1.4,3.2,3.2C53.2,51.8,51.8,53.2,50,53.2z"/>
</g>
</svg>
