<?xml version="1.0" encoding="utf-8"?>
<!-- Generator: Adobe Illustrator 25.4.0, SVG Export Plug-In . SVG Version: 6.00 Build 0)  -->
<svg version="1.1" id="Capa_1" xmlns="http://www.w3.org/2000/svg" xmlns:xlink="http://www.w3.org/1999/xlink" x="0px" y="0px"
	 viewBox="0 0 100 100" style="enable-background:new 0 0 100 100;" xml:space="preserve">
<g>
	<path d="M88,23.4H49.4c-1.8,0-3.4-1.2-3.9-2.9l-1-3.4c-1.4-5.2-6.2-8.8-11.6-8.8H12c-6.6,0-12,5.4-12,12v61.6c0,6.6,5.4,12,12,12
		h76c6.6,0,12-5.4,12-12V35.4C100,28.8,94.6,23.4,88,23.4z M92,81.9c0,2.2-1.8,4-4,4H12c-2.2,0-4-1.8-4-4V20.3c0-2.2,1.8-4,4-4h21
		c1.8,0,3.4,1.2,3.9,2.9l1,3.4c1.4,5.2,6.2,8.8,11.6,8.8H88c2.2,0,4,1.8,4,4V81.9z"/>
	<path d="M61.4,72.1H22.3v-6.3h24.2c2.2,0,4-1.8,4-4s-1.8-4-4-4H22.3v-6.3h13.5c2.2,0,4-1.8,4-4s-1.8-4-4-4H22.3v-2.9
		c0-2.2-1.8-4-4-4s-4,1.8-4,4v35.3c0,2.3,1.9,4.2,4.2,4.2h42.8c2.2,0,4-1.8,4-4S63.6,72.1,61.4,72.1z"/>
</g>
</svg>
