<?xml version="1.0" encoding="utf-8"?>
<!-- Generator: Adobe Illustrator 25.4.0, SVG Export Plug-In . SVG Version: 6.00 Build 0)  -->
<svg version="1.1" id="Capa_1" xmlns="http://www.w3.org/2000/svg" xmlns:xlink="http://www.w3.org/1999/xlink" x="0px" y="0px"
	 viewBox="0 0 100 100" style="enable-background:new 0 0 100 100;" xml:space="preserve">
<g>
	<path d="M74.9,54c-12.7,0-23,10.3-23,23s10.3,23,23,23s23-10.3,23-23S87.6,54,74.9,54z M74.9,92c-8.3,0-15-6.7-15-15s6.7-15,15-15
		s15,6.7,15,15S83.1,92,74.9,92z"/>
	<path d="M81.8,73H67.9c-2.2,0-4,1.8-4,4s1.8,4,4,4h13.9c2.2,0,4-1.8,4-4S84,73,81.8,73z"/>
	<path d="M43.2,81H25.3c-2.2,0-4-1.8-4-4V42.2c0-2.2,1.8-4,4-4h41.5c2.2,0,4,1.8,4,4v3.1c0,2.2,1.8,4,4,4s4-1.8,4-4v-3.1
		c0-6.6-5.3-11.9-11.9-12v-9.7C67,9.2,57.8,0,46.5,0C35.3,0,26.1,9.2,26.1,20.4v9.7h-0.8c-6.6,0-12,5.4-12,12V77c0,6.6,5.4,12,12,12
		h17.8c2.2,0,4-1.8,4-4S45.4,81,43.2,81z M34.1,20.4C34.1,13.6,39.7,8,46.5,8C53.4,8,59,13.6,59,20.4v9.7H34.1V20.4z"/>
	<path d="M53.1,55.5c0-3.9-3.2-7-7-7s-7,3.2-7,7c0,2.4,1.2,4.5,3,5.8v5.3c0,2.2,1.8,4,4,4s4-1.8,4-4v-5.3
		C51.9,60.1,53.1,57.9,53.1,55.5z"/>
</g>
</svg>
