<?xml version="1.0" encoding="utf-8"?>
<!-- Generator: Adobe Illustrator 25.4.0, SVG Export Plug-In . SVG Version: 6.00 Build 0)  -->
<svg version="1.1" id="Capa_1" xmlns="http://www.w3.org/2000/svg" xmlns:xlink="http://www.w3.org/1999/xlink" x="0px" y="0px"
	 viewBox="0 0 100 100" style="enable-background:new 0 0 100 100;" xml:space="preserve">
<g>
	<path d="M11.8,7.3c-1.6-1.6-4.1-1.6-5.7,0c-1.5,1.5-1.6,3.9-0.2,5.5C2.4,14.9,0,18.7,0,23.1v41.1c0,6.6,5.4,12,12,12h57.3
		l11.4,11.4c0.8,0.8,1.8,1.2,2.8,1.2c1.1,0,2.1-0.4,2.9-1.1c1.6-1.6,1.6-4.1,0-5.7L11.8,7.3z M12,68.2c-2.2,0-4-1.8-4-4V23.1
		c0-2.2,1.8-4,4-4h0.2l49.1,49.1H12z"/>
	<path d="M88,11.1H26.8l8,8H88c2.2,0,4,1.8,4,4v41.1c0,2.2-1.8,4-4,4h-4.1l7.5,7.5c4.9-1.5,8.6-6.1,8.6-11.5V23.1
		C100,16.5,94.6,11.1,88,11.1z"/>
</g>
<g>
	<path d="M68,88.9H32c-2.2,0-4-1.8-4-4s1.8-4,4-4h36c2.2,0,4,1.8,4,4S70.2,88.9,68,88.9z"/>
</g>
</svg>
