<?xml version="1.0" encoding="utf-8"?>
<!-- Generator: Adobe Illustrator 25.4.0, SVG Export Plug-In . SVG Version: 6.00 Build 0)  -->
<svg version="1.1" id="Capa_1" xmlns="http://www.w3.org/2000/svg" xmlns:xlink="http://www.w3.org/1999/xlink" x="0px" y="0px"
	 viewBox="0 0 100 100" style="enable-background:new 0 0 100 100;" xml:space="preserve">
<g>
	<g>
		<path d="M79.9,100H20.1c-6.6,0-12-5.4-12-12V12c0-6.6,5.4-12,12-12h59.8c6.6,0,12,5.4,12,12v76C91.9,94.6,86.5,100,79.9,100z
			 M20.1,8c-2.2,0-4,1.8-4,4v76c0,2.2,1.8,4,4,4h59.8c2.2,0,4-1.8,4-4V12c0-2.2-1.8-4-4-4H20.1z"/>
	</g>
	<g>
		<path d="M72.1,24.4H27.9c-2.2,0-4-1.8-4-4s1.8-4,4-4h44.3c2.2,0,4,1.8,4,4S74.3,24.4,72.1,24.4z"/>
	</g>
	<g>
		<path d="M52.8,39.5H27.9c-2.2,0-4-1.8-4-4s1.8-4,4-4h24.9c2.2,0,4,1.8,4,4S55,39.5,52.8,39.5z"/>
	</g>
</g>
</svg>
