<?xml version="1.0" encoding="utf-8"?>
<!-- Generator: Adobe Illustrator 25.4.0, SVG Export Plug-In . SVG Version: 6.00 Build 0)  -->
<svg version="1.1" id="Capa_1" xmlns="http://www.w3.org/2000/svg" xmlns:xlink="http://www.w3.org/1999/xlink" x="0px" y="0px"
	 viewBox="0 0 100 100" style="enable-background:new 0 0 100 100;" xml:space="preserve">
<g>
	<path d="M50,100C22.43,100,0,77.57,0,50S22.43,0,50,0s50,22.43,50,50S77.57,100,50,100z M50,8C26.84,8,8,26.84,8,50
		c0,23.16,18.84,42,42,42c23.16,0,42-18.84,42-42C92,26.84,73.16,8,50,8z"/>
</g>
<g>
	<path d="M43.31,69.84L43.31,69.84c-1.29,0-2.49-0.62-3.25-1.66l-9.45-13.12c-1.29-1.79-0.88-4.29,0.91-5.58s4.29-0.89,5.58,0.91
		L43.31,59l19.58-27.18c1.29-1.79,3.79-2.2,5.58-0.91c1.79,1.29,2.2,3.79,0.91,5.58L46.56,68.18C45.81,69.23,44.6,69.84,43.31,69.84
		z"/>
</g>
</svg>
