<?xml version="1.0" encoding="utf-8"?>
<!-- Generator: Adobe Illustrator 25.4.0, SVG Export Plug-In . SVG Version: 6.00 Build 0)  -->
<svg version="1.1" id="Capa_1" xmlns="http://www.w3.org/2000/svg" xmlns:xlink="http://www.w3.org/1999/xlink" x="0px" y="0px"
	 viewBox="0 0 100 100" style="enable-background:new 0 0 100 100;" xml:space="preserve">
<g>
	<path d="M95.6,11.7l-7.3-7.3c-4.7-4.7-12.3-4.7-17,0L5.4,70.3c-1.9,1.9-3.2,4.5-3.4,7.2L0,95.6c-0.1,1.2,0.3,2.4,1.1,3.3
		C1.9,99.6,2.9,100,4,100c0.1,0,0.3,0,0.4,0L22.5,98c2.7-0.3,5.3-1.5,7.2-3.4l65.9-65.9c2.3-2.3,3.5-5.3,3.5-8.5S97.9,14,95.6,11.7z
		 M24.1,88.9c-0.6,0.6-1.5,1.1-2.4,1.1L8.5,91.5l1.4-13.2c0.1-0.9,0.5-1.8,1.1-2.4l57-57l13,13L24.1,88.9z M89.9,23l-3.2,3.2l-13-13
		l3.2-3.2c0.8-0.8,1.8-1.2,2.8-1.2s2,0.4,2.8,1.2l7.3,7.3c0.8,0.8,1.2,1.8,1.2,2.8S90.7,22.3,89.9,23z"/>
	<path d="M70.7,29.3c-1.6-1.6-4.1-1.6-5.7,0L21.7,72.6c-1.6,1.6-1.6,4.1,0,5.7c0.8,0.8,1.8,1.2,2.8,1.2s2-0.4,2.8-1.2l43.3-43.3
		C72.3,33.4,72.3,30.8,70.7,29.3z"/>
</g>
</svg>
