<?xml version="1.0" encoding="utf-8"?>
<!-- Generator: Adobe Illustrator 26.2.1, SVG Export Plug-In . SVG Version: 6.00 Build 0)  -->
<svg version="1.1" id="Capa_1" xmlns="http://www.w3.org/2000/svg" xmlns:xlink="http://www.w3.org/1999/xlink" x="0px" y="0px"
	 viewBox="0 0 100 100" style="enable-background:new 0 0 100 100;" xml:space="preserve">
<path d="M96.55,16.59c-0.02-0.03-0.04-0.06-0.07-0.08c-0.03-0.03-0.06-0.04-0.08-0.07c-2.17-2.13-5.13-3.45-8.4-3.45H12
	c-6.62,0-12,5.38-12,12v50.02c0,3.27,1.32,6.24,3.45,8.4c0.02,0.03,0.04,0.06,0.07,0.08c0.03,0.03,0.06,0.04,0.08,0.07
	c2.17,2.13,5.13,3.45,8.4,3.45h76c6.62,0,12-5.38,12-12V24.99C100,21.72,98.68,18.75,96.55,16.59z M8,26.65L31.35,50L8,73.35V26.65z
	 M60.16,47.17C60.16,47.17,60.16,47.17,60.16,47.17C60.16,47.17,60.16,47.17,60.16,47.17l-7.33,7.33c-1.51,1.51-4.15,1.51-5.66,0
	L13.66,20.99h72.69L60.16,47.17z M37.01,55.66l4.5,4.5c2.27,2.27,5.28,3.52,8.49,3.52c3.21,0,6.22-1.25,8.49-3.52l4.5-4.5
	l23.35,23.35H13.66L37.01,55.66z M68.65,50L92,26.65v46.71L68.65,50z"/>
</svg>
