<?xml version="1.0" encoding="utf-8"?>
<!-- Generator: Adobe Illustrator 25.4.0, SVG Export Plug-In . SVG Version: 6.00 Build 0)  -->
<svg version="1.1" id="Capa_1" xmlns="http://www.w3.org/2000/svg" xmlns:xlink="http://www.w3.org/1999/xlink" x="0px" y="0px"
	 viewBox="0 0 100 100" style="enable-background:new 0 0 100 100;" xml:space="preserve">
<path d="M90.2,80.3L66,51.2c-0.6-0.7-0.9-1.6-0.9-2.6V12c0-2.2,1.8-4,4-4h5c2.2,0,4-1.8,4-4s-1.8-4-4-4h-5H30.9h-5c-2.2,0-4,1.8-4,4
	s1.8,4,4,4h5c2.2,0,4,1.8,4,4v36.7c0,0.9-0.3,1.8-0.9,2.6L9.8,80.3c-3,3.6-3.6,8.5-1.6,12.8c2,4.3,6.2,6.9,10.9,6.9h61.9
	c4.7,0,8.9-2.6,10.9-6.9C93.8,88.8,93.2,83.9,90.2,80.3z M84.6,89.7c-0.3,0.5-1.3,2.3-3.6,2.3H19.1c-2.4,0-3.4-1.8-3.6-2.3
	c-0.3-0.5-1-2.4,0.5-4.3l24.2-29.1c1.8-2.2,2.8-4.9,2.8-7.7V12c0-1.4-0.3-2.7-0.7-4h15.5c-0.4,1.3-0.7,2.6-0.7,4v2.3H54
	c-2.2,0-4,1.8-4,4s1.8,4,4,4h3.1v4.4H54c-2.2,0-4,1.8-4,4s1.8,4,4,4h3.1v4.4H54c-2.2,0-4,1.8-4,4s1.8,4,4,4h3.1v1.6
	c0,2.8,1,5.5,2.8,7.7L84,85.4C85.5,87.3,84.8,89.2,84.6,89.7z"/>
</svg>
