<?xml version="1.0" encoding="utf-8"?>
<!-- Generator: Adobe Illustrator 25.4.0, SVG Export Plug-In . SVG Version: 6.00 Build 0)  -->
<svg version="1.1" id="Capa_1" xmlns="http://www.w3.org/2000/svg" xmlns:xlink="http://www.w3.org/1999/xlink" x="0px" y="0px"
	 viewBox="0 0 100 100" style="enable-background:new 0 0 100 100;" xml:space="preserve">
<path d="M94,39.6L66.9,23.9c-3.8-2.2-8.2-2.2-12,0c-3.8,2.2-6,6.1-6,10.4v8.8c-1-1.4-2.3-2.6-3.8-3.5L18,23.9c-3.8-2.2-8.2-2.2-12,0
	c-3.8,2.2-6,6.1-6,10.4v31.4c0,4.3,2.2,8.2,6,10.4c1.9,1.1,3.9,1.6,6,1.6c2.1,0,4.1-0.5,6-1.6l27.1-15.7c1.6-0.9,2.8-2.1,3.8-3.5
	v8.8c0,4.3,2.2,8.2,6,10.4c1.9,1.1,3.9,1.6,6,1.6c2.1,0,4.1-0.5,6-1.6L94,60.4c3.7-2.2,6-6.1,6-10.4C100,45.7,97.8,41.8,94,39.6z
	 M41.1,53.5L14,69.2c-1.8,1-3.4,0.4-4,0c-0.6-0.3-2-1.4-2-3.5V34.3c0-2.1,1.4-3.1,2-3.5c0.4-0.2,1.1-0.5,2-0.5c0.6,0,1.3,0.1,2,0.6
	l27.1,15.7c1.8,1,2,2.8,2,3.5C43.1,50.7,42.9,52.4,41.1,53.5z M90,53.5L62.9,69.2c-1.8,1-3.4,0.4-4,0c-0.6-0.3-2-1.4-2-3.5V34.3
	c0-2.1,1.4-3.1,2-3.5c0.4-0.2,1.1-0.5,2-0.5c0.6,0,1.3,0.1,2,0.6L90,46.5c1.8,1,2,2.8,2,3.5S91.8,52.4,90,53.5z"/>
</svg>
