<?xml version="1.0" encoding="utf-8"?>
<!-- Generator: Adobe Illustrator 25.4.0, SVG Export Plug-In . SVG Version: 6.00 Build 0)  -->
<svg version="1.1" id="Capa_1" xmlns="http://www.w3.org/2000/svg" xmlns:xlink="http://www.w3.org/1999/xlink" x="0px" y="0px"
	 viewBox="0 0 100 100" style="enable-background:new 0 0 100 100;" xml:space="preserve">
<path d="M94,23.9c-3.8-2.2-8.3-2.2-12,0L54.9,39.6c-1.6,0.9-2.8,2.1-3.8,3.5v-8.8c0-4.3-2.2-8.2-6-10.4c-3.8-2.2-8.3-2.2-12,0
	L6,39.6C2.2,41.8,0,45.7,0,50c0,4.3,2.2,8.2,6,10.4l27.1,15.7c1.9,1.1,4,1.6,6,1.6c2.1,0,4.1-0.5,6-1.6c3.8-2.2,6-6.1,6-10.4v-8.8
	c1,1.4,2.3,2.6,3.8,3.5L82,76.1c1.9,1.1,4,1.6,6,1.6c2.1,0,4.1-0.5,6-1.6c3.8-2.2,6-6.1,6-10.4V34.3C100,29.9,97.8,26.1,94,23.9z
	 M43.1,65.7c0,2.1-1.4,3.1-2,3.5c-0.6,0.3-2.2,1-4,0L10,53.5c-1.8-1-2-2.8-2-3.5s0.2-2.4,2-3.5l27.1-15.7c1.8-1,3.4-0.4,4,0
	s2,1.4,2,3.5V65.7z M92,65.7c0,2.1-1.4,3.1-2,3.5c-0.6,0.3-2.2,1-4,0L58.9,53.5c-1.8-1-2-2.8-2-3.5c0-0.7,0.2-2.4,2-3.5L86,30.8
	c1.8-1,3.4-0.4,4,0s2,1.4,2,3.5V65.7z"/>
</svg>
