<?xml version="1.0" encoding="utf-8"?>
<!-- Generator: Adobe Illustrator 25.4.0, SVG Export Plug-In . SVG Version: 6.00 Build 0)  -->
<svg version="1.1" id="Capa_1" xmlns="http://www.w3.org/2000/svg" xmlns:xlink="http://www.w3.org/1999/xlink" x="0px" y="0px"
	 viewBox="0 0 100 100" style="enable-background:new 0 0 100 100;" xml:space="preserve">
<g>
	<path d="M50,94.3c-2.2,0-4.3-0.6-6.2-1.7C31.6,85.2,3.1,65.3,0.2,38.9C-0.7,30.3,2,21.7,7.6,15.3C13,9.3,20.4,5.8,28.4,5.7
		c7-0.1,13.7,2.3,19,6.7c1.5,1.2,3.6,1.2,5.1,0c5.3-4.5,12.1-6.8,19-6.7l0,0c8,0.1,15.4,3.6,20.8,9.7c5.6,6.4,8.3,14.9,7.4,23.5
		c-2.9,26.4-31.4,46.4-43.5,53.7C54.3,93.7,52.2,94.3,50,94.3z M28.9,13.7c-0.1,0-0.2,0-0.4,0c-5.8,0.1-11.1,2.6-14.9,7
		c-4.1,4.7-6.1,11-5.4,17.4c2.5,23.5,31.1,42.5,39.7,47.7c1.3,0.8,2.9,0.8,4.2,0c8.7-5.3,37.2-24.2,39.7-47.7
		c0.7-6.3-1.3-12.7-5.4-17.4c-3.9-4.4-9.2-6.9-14.9-7l0,0c-5-0.1-9.9,1.6-13.8,4.9c-4.4,3.7-10.9,3.7-15.4,0
		C38.6,15.4,33.8,13.7,28.9,13.7z"/>
</g>
</svg>
