<?xml version="1.0" encoding="utf-8"?>
<!-- Generator: Adobe Illustrator 25.4.0, SVG Export Plug-In . SVG Version: 6.00 Build 0)  -->
<svg version="1.1" id="Capa_1" xmlns="http://www.w3.org/2000/svg" xmlns:xlink="http://www.w3.org/1999/xlink" x="0px" y="0px"
	 viewBox="0 0 100 100" style="enable-background:new 0 0 100 100;" xml:space="preserve">
<g>
	<path d="M33.5,55.2h23.5c2.2,0,4-1.8,4-4s-1.8-4-4-4H33.5c-2.2,0-4,1.8-4,4S31.3,55.2,33.5,55.2z"/>
	<path d="M66.5,63.2H33.5c-2.2,0-4,1.8-4,4s1.8,4,4,4h33.1c2.2,0,4-1.8,4-4S68.7,63.2,66.5,63.2z"/>
	<path d="M83.6,30.7l-0.2-0.2c0,0,0,0,0,0L69.7,16.8L55.9,2.9C54,1,51.5,0,48.8,0H25.5c-6.6,0-12,5.4-12,12v76c0,6.6,5.4,12,12,12
		h49.1c6.6,0,12-5.4,12-12V37.7C86.5,35.1,85.5,32.5,83.6,30.7z M72.9,31.2H59.3c-2.2,0-4-1.8-4-4V13.7l8.8,8.8L72.9,31.2z M74.5,92
		H25.5c-2.2,0-4-1.8-4-4V12c0-2.2,1.8-4,4-4h21.8v19.2c0,6.6,5.4,12,12,12h19.2V88C78.5,90.2,76.7,92,74.5,92z"/>
</g>
</svg>
