<?xml version="1.0" encoding="utf-8"?>
<!-- Generator: Adobe Illustrator 25.4.0, SVG Export Plug-In . SVG Version: 6.00 Build 0)  -->
<svg version="1.1" id="Capa_1" xmlns="http://www.w3.org/2000/svg" xmlns:xlink="http://www.w3.org/1999/xlink" x="0px" y="0px"
	 viewBox="0 0 100 100" style="enable-background:new 0 0 100 100;" xml:space="preserve">
<g>
	<path d="M83.6,30.7l-0.2-0.2c0,0,0,0,0,0L69.7,16.8L55.9,2.9C54,1,51.5,0,48.8,0H25.5c-6.6,0-12,5.4-12,12v76c0,6.6,5.4,12,12,12
		h49.1c6.6,0,12-5.4,12-12V37.7C86.5,35.1,85.5,32.5,83.6,30.7z M72.9,31.2H59.3c-2.2,0-4-1.8-4-4V13.7l8.8,8.8L72.9,31.2z M74.5,92
		H25.5c-2.2,0-4-1.8-4-4V12c0-2.2,1.8-4,4-4h21.8v19.2c0,6.6,5.4,12,12,12h19.2V88C78.5,90.2,76.7,92,74.5,92z"/>
	<path d="M58.5,48.8c-2.3-2.3-5.3-3.5-8.5-3.5c-3.2,0-6.2,1.2-8.5,3.5l-7.9,7.9c-1.6,1.6-1.6,4.1,0,5.7c1.6,1.6,4.1,1.6,5.7,0
		l6.7-6.7v21.2c0,2.2,1.8,4,4,4s4-1.8,4-4V55.6l6.7,6.7c0.8,0.8,1.8,1.2,2.8,1.2s2-0.4,2.8-1.2c1.6-1.6,1.6-4.1,0-5.7L58.5,48.8z"/>
</g>
</svg>
