<?xml version="1.0" encoding="utf-8"?>
<!-- Generator: Adobe Illustrator 25.4.0, SVG Export Plug-In . SVG Version: 6.00 Build 0)  -->
<svg version="1.1" id="Capa_1" xmlns="http://www.w3.org/2000/svg" xmlns:xlink="http://www.w3.org/1999/xlink" x="0px" y="0px"
	 viewBox="0 0 100 100" style="enable-background:new 0 0 100 100;" xml:space="preserve">
<path d="M82.5,8.3c-2.3-2.1-5.6-3.1-9.1-2.7c-9.7,1-19.5-0.8-29.8-2.8c-10.4-2-21.2-4-32.1-2.9C5.3,0.6,0,6.8,0,13.4v22.4v7.6V96
	c0,2.2,1.8,4,4,4s4-1.8,4-4V53.6c1.4,0.3,2.9,0.5,4.4,0.3c9.7-1,19.5,0.8,29.8,2.8c8.3,1.6,16.9,3.2,25.5,3.2c2.2,0,4.4-0.1,6.5-0.3
	c6.3-0.6,11.6-6.8,11.6-13.5v-30C85.9,13,84.7,10.2,82.5,8.3z M77.9,46.1c0,2.5-2.2,5.3-4.4,5.5l0,0c-9.7,1-19.5-0.8-29.8-2.8
	c-8.3-1.6-16.9-3.2-25.5-3.2c-2.2,0-4.3,0.1-6.5,0.3c-1.2,0.1-2.3-0.1-2.9-0.7c-0.5-0.4-0.7-1-0.7-1.8v-7.6V13.4
	c0-2.5,2.2-5.3,4.4-5.5c9.7-1,19.5,0.8,29.8,2.8c10.4,2,21.2,4,32.1,2.9c1.2-0.1,2.3,0.1,2.9,0.7c0.5,0.4,0.7,1,0.7,1.8V46.1z"/>
</svg>
