<?xml version="1.0" encoding="utf-8"?>
<!-- Generator: Adobe Illustrator 25.4.0, SVG Export Plug-In . SVG Version: 6.00 Build 0)  -->
<svg version="1.1" id="Capa_1" xmlns="http://www.w3.org/2000/svg" xmlns:xlink="http://www.w3.org/1999/xlink" x="0px" y="0px"
	 viewBox="0 0 100 100" style="enable-background:new 0 0 100 100;" xml:space="preserve">
<g>
	<path d="M82.5,8.3c-2.3-2.1-5.6-3.1-9.1-2.7c-9.7,1-19.5-0.8-29.8-2.8c-10.4-2-21.2-4-32.1-2.9C5.3,0.6,0,6.8,0,13.4v22.4v7.6V96
		c0,2.2,1.8,4,4,4s4-1.8,4-4V53.6c1.4,0.3,2.9,0.5,4.4,0.3c9.7-1,19.5,0.8,29.8,2.8c8.3,1.6,16.9,3.2,25.5,3.2
		c2.2,0,4.4-0.1,6.5-0.3c6.3-0.6,11.6-6.8,11.6-13.5v-30C85.9,13,84.7,10.2,82.5,8.3z M30,46.5c0-3.8,0-7.5,0-11.3
		c-7.3-1-14.6-1.4-22,0V19.9c7.3-1.4,14.6-1,22,0c0-3.8,0-7.5,0-11.3c4,0.6,8.1,1.3,12.2,2.1c4.5,0.9,9.1,1.7,13.7,2.3
		c0,3.8,0,7.5,0,11.3c7.3,1,14.6,1.4,22,0v15.3c-7.3,1.4-14.6,1-22,0c0,3.8,0,7.5,0,11.3c-4-0.6-8.1-1.3-12.2-2.1
		C39.2,48,34.6,47.1,30,46.5z"/>
	<path d="M55.9,24.3c-8.7-1.2-17.3-3.3-26-4.4c0,5.1,0,10.2,0,15.3c8.7,1.2,17.3,3.3,26,4.4C55.9,34.5,55.9,29.4,55.9,24.3z"/>
</g>
</svg>
