<?xml version="1.0" encoding="utf-8"?>
<!-- Generator: Adobe Illustrator 25.4.0, SVG Export Plug-In . SVG Version: 6.00 Build 0)  -->
<svg version="1.1" id="Capa_1" xmlns="http://www.w3.org/2000/svg" xmlns:xlink="http://www.w3.org/1999/xlink" x="0px" y="0px"
	 viewBox="0 0 100 100" style="enable-background:new 0 0 100 100;" xml:space="preserve">
<g>
	<path d="M80.8,100H19.2c-6.6,0-12-5.4-12-12V12c0-6.6,5.4-12,12-12h46.5c6.6,0,12,5.4,12,12v38.6c0,1.8,1.2,3.4,2.9,3.9l3.4,1
		c5.2,1.4,8.8,6.2,8.8,11.6v21C92.8,94.6,87.4,100,80.8,100z M19.2,8c-2.2,0-4,1.8-4,4v76c0,2.2,1.8,4,4,4h61.6c2.2,0,4-1.8,4-4V67
		c0-1.8-1.2-3.4-2.9-3.9l-3.4-1c-5.2-1.4-8.8-6.2-8.8-11.6V12c0-2.2-1.8-4-4-4H19.2z"/>
</g>
</svg>
