<?xml version="1.0" encoding="utf-8"?>
<!-- Generator: Adobe Illustrator 25.4.0, SVG Export Plug-In . SVG Version: 6.00 Build 0)  -->
<svg version="1.1" id="Capa_1" xmlns="http://www.w3.org/2000/svg" xmlns:xlink="http://www.w3.org/1999/xlink" x="0px" y="0px"
	 viewBox="0 0 100 100" style="enable-background:new 0 0 100 100;" xml:space="preserve">
<g>
	<path d="M88,93.9H12c-6.6,0-12-5.4-12-12V20.3c0-6.6,5.4-12,12-12h21c5.4,0,10.1,3.6,11.6,8.8l1,3.4c0.5,1.7,2.1,2.9,3.9,2.9H88
		c6.6,0,12,5.4,12,12v46.5C100,88.5,94.6,93.9,88,93.9z M12,16.3c-2.2,0-4,1.8-4,4v61.6c0,2.2,1.8,4,4,4h76c2.2,0,4-1.8,4-4V35.4
		c0-2.2-1.8-4-4-4H49.4c-5.4,0-10.1-3.6-11.6-8.8l-1-3.4c-0.5-1.7-2.1-2.9-3.9-2.9H12z"/>
</g>
</svg>
