<?xml version="1.0" encoding="utf-8"?>
<!-- Generator: Adobe Illustrator 25.4.0, SVG Export Plug-In . SVG Version: 6.00 Build 0)  -->
<svg version="1.1" id="Capa_1" xmlns="http://www.w3.org/2000/svg" xmlns:xlink="http://www.w3.org/1999/xlink" x="0px" y="0px"
	 viewBox="0 0 100 100" style="enable-background:new 0 0 100 100;" xml:space="preserve">
<g>
	<path d="M4,53.2c-2.2,0-4-1.8-4-4V12C0,5.4,5.4,0,12,0h37.2c2.2,0,4,1.8,4,4s-1.8,4-4,4H12c-2.2,0-4,1.8-4,4v37.2
		C8,51.4,6.2,53.2,4,53.2z"/>
</g>
<g>
	<path d="M67.7,79.7H32.3c-6.6,0-12-5.4-12-12V32.3c0-6.6,5.4-12,12-12h35.4c6.6,0,12,5.4,12,12v35.4C79.7,74.3,74.3,79.7,67.7,79.7
		z M32.3,28.3c-2.2,0-4,1.8-4,4v35.4c0,2.2,1.8,4,4,4h35.4c2.2,0,4-1.8,4-4V32.3c0-2.2-1.8-4-4-4H32.3z"/>
</g>
<g>
	<path d="M87.7,99.7H50.5c-2.2,0-4-1.8-4-4s1.8-4,4-4h37.2c2.2,0,4-1.8,4-4V50.5c0-2.2,1.8-4,4-4s4,1.8,4,4v37.2
		C99.7,94.3,94.3,99.7,87.7,99.7z"/>
</g>
</svg>
