<?xml version="1.0" encoding="utf-8"?>
<!-- Generator: Adobe Illustrator 26.1.0, SVG Export Plug-In . SVG Version: 6.00 Build 0)  -->
<svg version="1.1" id="Capa_1" xmlns="http://www.w3.org/2000/svg" xmlns:xlink="http://www.w3.org/1999/xlink" x="0px" y="0px"
	 viewBox="0 0 100 100" style="enable-background:new 0 0 100 100;" xml:space="preserve">
<g>
	<path d="M31,43H12C5.4,43,0,37.6,0,31V12C0,5.4,5.4,0,12,0h19c6.6,0,12,5.4,12,12v19C43,37.6,37.6,43,31,43z M12,8
		c-2.2,0-4,1.8-4,4v19c0,2.2,1.8,4,4,4h19c2.2,0,4-1.8,4-4V12c0-2.2-1.8-4-4-4H12z"/>
</g>
<g>
	<path d="M88,43H69c-6.6,0-12-5.4-12-12V12c0-6.6,5.4-12,12-12h19c6.6,0,12,5.4,12,12v19C100,37.6,94.6,43,88,43z M69,8
		c-2.2,0-4,1.8-4,4v19c0,2.2,1.8,4,4,4h19c2.2,0,4-1.8,4-4V12c0-2.2-1.8-4-4-4H69z"/>
</g>
<g>
	<path d="M31,100H12c-6.6,0-12-5.4-12-12V69c0-6.6,5.4-12,12-12h19c6.6,0,12,5.4,12,12v19C43,94.6,37.6,100,31,100z M12,65
		c-2.2,0-4,1.8-4,4v19c0,2.2,1.8,4,4,4h19c2.2,0,4-1.8,4-4V69c0-2.2-1.8-4-4-4H12z"/>
</g>
<g>
	<path d="M88,100H69c-6.6,0-12-5.4-12-12V69c0-6.6,5.4-12,12-12h19c6.6,0,12,5.4,12,12v19C100,94.6,94.6,100,88,100z M69,65
		c-2.2,0-4,1.8-4,4v19c0,2.2,1.8,4,4,4h19c2.2,0,4-1.8,4-4V69c0-2.2-1.8-4-4-4H69z"/>
</g>
</svg>
