<?xml version="1.0" encoding="utf-8"?>
<!-- Generator: Adobe Illustrator 26.1.0, SVG Export Plug-In . SVG Version: 6.00 Build 0)  -->
<svg version="1.1" id="Capa_1" xmlns="http://www.w3.org/2000/svg" xmlns:xlink="http://www.w3.org/1999/xlink" x="0px" y="0px"
	 viewBox="0 0 100 100" style="enable-background:new 0 0 100 100;" xml:space="preserve">
<path d="M82,37.2C79.5,36.1,76.6,36,74,37c-0.7,0.3-1.3,0.6-1.9,1V17.6C72.1,11.7,67.3,7,61.5,7c-1,0-2.1,0.2-3,0.4
	C57.2,3.1,53.2,0,48.4,0c-4.7,0-8.8,3.1-10.1,7.5c-1-0.3-2-0.4-3-0.4c-5.8,0-10.5,4.7-10.5,10.5v3.5c-0.8-0.2-1.7-0.3-2.5-0.3
	c-5.8,0-10.5,4.7-10.5,10.5v18.2c0,0.1,0,0.2,0,0.2c0,0.1,0,0.2,0,0.2v17.1c0,18.1,14.8,32.9,32.9,32.9c13.5,0,25.9-8.5,30.7-21.1
	l0.3-0.8c0.7-1.9,1.4-3.7,2.2-5.5l0.8-1.8l3.4-7.6l0,0l5.3-11.9C89.7,45.8,87.3,39.6,82,37.2z M74.7,59.8l-0.2,0.4l-4.7,10.6
	c-0.1,0.2-0.1,0.3-0.2,0.5c-0.5,1.3-1,2.6-1.5,3.8L67.9,76c-3.7,9.6-13,16-23.2,16c-13.7,0-24.9-11.2-24.9-24.9V50
	c0-0.1,0-0.2,0-0.2c0-0.1,0-0.2,0-0.2V31.3c0-1.4,1.1-2.5,2.5-2.5s2.5,1.1,2.5,2.5v18.2c0,2.2,1.8,4,4,4s4-1.8,4-4V17.6
	c0-1.4,1.1-2.5,2.5-2.5s2.5,1.1,2.5,2.5v27.2c0,2.2,1.8,4,4,4s4-1.8,4-4V10.5C45.9,9.1,47,8,48.4,8S51,9.1,51,10.5v7v6.5v18
	c0,2.2,1.8,4,4,4s4-1.8,4-4v-18v-6.5c0-1.4,1.1-2.5,2.5-2.5s2.5,1.1,2.5,2.5v34.9c0,0.1,0,0.3,0,0.4c0,0.1,0,0.2,0,0.4
	c0,0.2,0.1,0.3,0.1,0.5c0,0.1,0.1,0.2,0.1,0.3c0.1,0.1,0.1,0.3,0.2,0.4c0.1,0.1,0.1,0.2,0.2,0.3c0.1,0.1,0.2,0.2,0.3,0.3
	c0.1,0.1,0.1,0.2,0.2,0.3c0.1,0.1,0.2,0.2,0.3,0.3c0.1,0.1,0.2,0.2,0.3,0.2c0.1,0.1,0.3,0.2,0.4,0.2c0.1,0,0.2,0.1,0.2,0.1
	c0,0,0,0,0,0c0.1,0.1,0.3,0.1,0.4,0.1c0.1,0,0.2,0.1,0.3,0.1c0.1,0,0.1,0,0.2,0c0.2,0,0.4,0.1,0.6,0.1c0,0,0,0,0,0
	c0.1,0,0.1,0,0.2,0c0.2,0,0.4,0,0.6-0.1c0.1,0,0.2-0.1,0.3-0.1c0.2,0,0.3-0.1,0.5-0.1c0.1,0,0.2-0.1,0.3-0.1
	c0.1-0.1,0.3-0.1,0.4-0.2c0.1-0.1,0.1-0.1,0.2-0.2c0.1-0.1,0.3-0.2,0.4-0.3c0.1-0.1,0.1-0.1,0.2-0.2c0.1-0.1,0.2-0.3,0.3-0.4
	c0.1-0.1,0.1-0.2,0.2-0.3c0.1-0.1,0.1-0.2,0.2-0.4l3.7-8.3c0.3-0.6,0.8-1.1,1.4-1.3c0.6-0.2,1.3-0.2,1.9,0.1
	c1.3,0.6,1.9,2.1,1.3,3.4L74.7,59.8L74.7,59.8z"/>
</svg>
