<?xml version="1.0" encoding="utf-8"?>
<!-- Generator: Adobe Illustrator 25.4.0, SVG Export Plug-In . SVG Version: 6.00 Build 0)  -->
<svg version="1.1" id="Capa_1" xmlns="http://www.w3.org/2000/svg" xmlns:xlink="http://www.w3.org/1999/xlink" x="0px" y="0px"
	 viewBox="0 0 100 100" style="enable-background:new 0 0 100 100;" xml:space="preserve">
<g>
	<path d="M81.5,100H18.5c-6.6,0-12-5.4-12-12V44.8c0-3.1,1.2-6.1,3.4-8.3L41.4,3.7C43.6,1.3,46.7,0,50,0s6.4,1.3,8.6,3.7l31.5,32.8
		c2.2,2.2,3.4,5.2,3.4,8.3V88C93.5,94.6,88.2,100,81.5,100z M50,8c-1.1,0-2.1,0.4-2.9,1.2L15.6,42c-0.7,0.7-1.1,1.7-1.1,2.8V88
		c0,2.2,1.8,4,4,4h63.1c2.2,0,4-1.8,4-4V44.8c0-1-0.4-2-1.1-2.8L52.9,9.2C52.1,8.4,51.1,8,50,8z"/>
</g>
</svg>
