<?xml version="1.0" encoding="utf-8"?>
<!-- Generator: Adobe Illustrator 25.4.0, SVG Export Plug-In . SVG Version: 6.00 Build 0)  -->
<svg version="1.1" id="Capa_1" xmlns="http://www.w3.org/2000/svg" xmlns:xlink="http://www.w3.org/1999/xlink" x="0px" y="0px"
	 viewBox="0 0 100 100" style="enable-background:new 0 0 100 100;" xml:space="preserve">
<path d="M67.1,0H31.9c-6.6,0-12,5.4-12,12v76c0,6.6,5.4,12,12,12h35.1c6.6,0,12-5.4,12-12V12C79.1,5.4,73.7,0,67.1,0z M71.1,88
	c0,2.2-1.8,4-4,4H31.9c-2.2,0-4-1.8-4-4V12c0-2.2,1.8-4,4-4h4.4v2.7c0,1.3,1.1,2.4,2.4,2.4h21.5c1.3,0,2.4-1.1,2.4-2.4V8h4.4
	c2.2,0,4,1.8,4,4V88z"/>
</svg>
