<?xml version="1.0" encoding="utf-8"?>
<!-- Generator: Adobe Illustrator 25.4.0, SVG Export Plug-In . SVG Version: 6.00 Build 0)  -->
<svg version="1.1" id="Capa_1" xmlns="http://www.w3.org/2000/svg" xmlns:xlink="http://www.w3.org/1999/xlink" x="0px" y="0px"
	 viewBox="0 0 100 100" style="enable-background:new 0 0 100 100;" xml:space="preserve">
<g>
	<g>
		<path d="M41.5,100c-3.1,0-6.1-1.2-8.5-3.5L3.5,67.1C1.2,64.8,0,61.8,0,58.6s1.2-6.2,3.5-8.5L50,3.6C52.3,1.3,55.3,0,58.5,0H88
			c6.6,0,12,5.4,12,12v29.5c0,3.2-1.2,6.2-3.5,8.5L50,96.5C47.7,98.8,44.6,100,41.5,100z M58.5,8c-1.1,0-2.1,0.4-2.8,1.2L9.1,55.8
			C8.4,56.5,8,57.5,8,58.6c0,1.1,0.4,2.1,1.2,2.8l29.6,29.4c1.6,1.6,4.1,1.5,5.6,0l46.5-46.5c0.8-0.8,1.2-1.8,1.2-2.8V12
			c0-2.2-1.8-4-4-4H58.5z"/>
	</g>
	<g>
		<path d="M75.4,28.7c-1,0-2.1-0.4-2.8-1.2c-0.2-0.2-0.3-0.4-0.5-0.6c-0.1-0.2-0.3-0.5-0.4-0.7c-0.1-0.2-0.2-0.5-0.2-0.8
			c-0.1-0.3-0.1-0.5-0.1-0.8c0-1.1,0.4-2.1,1.2-2.8c0.2-0.2,0.4-0.3,0.6-0.5c0.2-0.1,0.4-0.3,0.7-0.4s0.5-0.2,0.8-0.2
			c1.3-0.3,2.7,0.2,3.6,1.1c0.7,0.7,1.2,1.8,1.2,2.8c0,0.3,0,0.5-0.1,0.8c0,0.2-0.1,0.5-0.2,0.8c-0.1,0.2-0.2,0.5-0.4,0.7
			c-0.2,0.2-0.3,0.4-0.5,0.6C77.5,28.2,76.4,28.7,75.4,28.7z"/>
	</g>
	<g>
		<g>
			<path d="M24,62.6c-1,0-2-0.4-2.8-1.2c-1.6-1.6-1.6-4.1,0-5.7l18.3-18.3c1.6-1.6,4.1-1.6,5.7,0c1.6,1.6,1.6,4.1,0,5.7L26.8,61.4
				C26,62.2,25,62.6,24,62.6z"/>
		</g>
		<g>
			<path d="M34.2,72.9c-1,0-2-0.4-2.8-1.2c-1.6-1.6-1.6-4.1,0-5.7l13.1-13.1c1.6-1.6,4.1-1.6,5.7,0c1.6,1.6,1.6,4.1,0,5.7L37.1,71.7
				C36.3,72.5,35.3,72.9,34.2,72.9z"/>
		</g>
	</g>
</g>
</svg>
