<?xml version="1.0" encoding="utf-8"?>
<!-- Generator: Adobe Illustrator 26.1.0, SVG Export Plug-In . SVG Version: 6.00 Build 0)  -->
<svg version="1.1" id="Capa_1" xmlns="http://www.w3.org/2000/svg" xmlns:xlink="http://www.w3.org/1999/xlink" x="0px" y="0px"
	 viewBox="0 0 100 100" style="enable-background:new 0 0 100 100;" xml:space="preserve">
<g>
	<g>
		<path d="M51.5,62.7H12c-6.6,0-12-5.4-12-12V31.9c0-6.6,5.4-12,12-12h39.5c5.6,0,10.6,4,11.7,9.5c0.5,2.2-0.9,4.3-3.1,4.8
			c-2.2,0.5-4.3-0.9-4.8-3.1c-0.4-1.8-2-3.2-3.9-3.2H12c-2.2,0-4,1.8-4,4v18.8c0,2.2,1.8,4,4,4h39.5c1.9,0,3.5-1.3,3.9-3.2
			c0.4-2.2,2.6-3.6,4.7-3.1c2.2,0.4,3.6,2.6,3.1,4.7C62.1,58.7,57.2,62.7,51.5,62.7z"/>
	</g>
	<g>
		<path d="M88,80.1H48.5c-5.7,0-10.6-4-11.8-9.6c-0.4-2.2,1-4.3,3.1-4.7c2.2-0.4,4.3,1,4.7,3.1c0.4,1.8,2,3.2,3.9,3.2H88
			c2.2,0,4-1.8,4-4V49.3c0-2.2-1.8-4-4-4H48.5c-1.8,0-3.4,1.2-3.9,3c-0.6,2.1-2.8,3.4-4.9,2.8c-2.1-0.6-3.4-2.8-2.8-4.9
			c1.4-5.2,6.2-8.9,11.6-8.9H88c6.6,0,12,5.4,12,12v18.8C100,74.7,94.6,80.1,88,80.1z"/>
	</g>
</g>
</svg>
