<?xml version="1.0" encoding="utf-8"?>
<!-- Generator: Adobe Illustrator 26.1.0, SVG Export Plug-In . SVG Version: 6.00 Build 0)  -->
<svg version="1.1" id="Capa_1" xmlns="http://www.w3.org/2000/svg" xmlns:xlink="http://www.w3.org/1999/xlink" x="0px" y="0px"
	 viewBox="0 0 100 100" style="enable-background:new 0 0 100 100;" xml:space="preserve">
<g>
	<path d="M88,26H48.7c-6.6,0-12-5.4-12-12v-2c0-6.6,5.4-12,12-12H88c6.6,0,12,5.4,12,12v2C100,20.7,94.6,26,88,26z M48.7,8
		c-2.2,0-4,1.8-4,4v2c0,2.2,1.8,4,4,4H88c2.2,0,4-1.8,4-4v-2c0-2.2-1.8-4-4-4H48.7z"/>
</g>
<g>
	<path d="M88,62.5H48.7c-6.6,0-12-5.4-12-12v-2c0-6.6,5.4-12,12-12H88c6.6,0,12,5.4,12,12v2C100,57.1,94.6,62.5,88,62.5z M48.7,44.5
		c-2.2,0-4,1.8-4,4v2c0,2.2,1.8,4,4,4H88c2.2,0,4-1.8,4-4v-2c0-2.2-1.8-4-4-4H48.7z"/>
</g>
<g>
	<path d="M88,100H48.7c-6.6,0-12-5.4-12-12v-2c0-6.6,5.4-12,12-12H88c6.6,0,12,5.4,12,12v2C100,94.6,94.6,100,88,100z M48.7,82
		c-2.2,0-4,1.8-4,4v2c0,2.2,1.8,4,4,4H88c2.2,0,4-1.8,4-4v-2c0-2.2-1.8-4-4-4H48.7z"/>
</g>
<g>
	<path d="M13,62.5c-7.2,0-13-5.8-13-13s5.8-13,13-13c7.2,0,13,5.8,13,13S20.2,62.5,13,62.5z M13,44.5c-2.8,0-5,2.3-5,5s2.3,5,5,5
		c2.8,0,5-2.3,5-5S15.8,44.5,13,44.5z"/>
</g>
<g>
	<path d="M13,26C5.8,26,0,20.2,0,13C0,5.8,5.8,0,13,0c7.2,0,13,5.8,13,13C26,20.2,20.2,26,13,26z M13,8c-2.8,0-5,2.3-5,5
		c0,2.8,2.3,5,5,5c2.8,0,5-2.3,5-5C18,10.3,15.8,8,13,8z"/>
</g>
<g>
	<path d="M13,100c-7.2,0-13-5.8-13-13s5.8-13,13-13c7.2,0,13,5.8,13,13S20.2,100,13,100z M13,82c-2.8,0-5,2.3-5,5s2.3,5,5,5
		c2.8,0,5-2.3,5-5S15.8,82,13,82z"/>
</g>
</svg>
