<?xml version="1.0" encoding="utf-8"?>
<!-- Generator: Adobe Illustrator 25.0.1, SVG Export Plug-In . SVG Version: 6.00 Build 0)  -->
<svg version="1.1" id="Capa_1" xmlns="http://www.w3.org/2000/svg" xmlns:xlink="http://www.w3.org/1999/xlink" x="0px" y="0px"
	 viewBox="0 0 100 100" style="enable-background:new 0 0 100 100;" xml:space="preserve">
<g>
	<path d="M50,54.5c-4.4,0-8,3.6-8,8c0,3,1.6,5.5,4,6.9v5.7c0,2.2,1.8,4,4,4s4-1.8,4-4v-5.7c2.4-1.4,4-4,4-6.9
		C58,58.1,54.4,54.5,50,54.5z"/>
	<path d="M74.7,34.3H35.8V22.2C35.8,14.4,42.2,8,50,8c3.8,0,7.3,1.5,10,4.2c1.6,1.6,4.1,1.6,5.7,0c1.6-1.6,1.6-4.1,0-5.7
		C61.5,2.3,55.9,0,50,0C37.8,0,27.8,9.9,27.8,22.2v12.1h-2.5c-6.6,0-12,5.4-12,12V88c0,6.6,5.4,12,12,12h49.4c6.6,0,12-5.4,12-12
		V46.3C86.7,39.6,81.3,34.3,74.7,34.3z M78.7,88c0,2.2-1.8,4-4,4H25.3c-2.2,0-4-1.8-4-4V46.3c0-2.2,1.8-4,4-4h49.4c2.2,0,4,1.8,4,4
		V88z"/>
</g>
</svg>
