<?xml version="1.0" encoding="utf-8"?>
<!-- Generator: Adobe Illustrator 25.0.1, SVG Export Plug-In . SVG Version: 6.00 Build 0)  -->
<svg version="1.1" id="Capa_1" xmlns="http://www.w3.org/2000/svg" xmlns:xlink="http://www.w3.org/1999/xlink" x="0px" y="0px"
	 viewBox="0 0 100 100" style="enable-background:new 0 0 100 100;" xml:space="preserve">
<g>
	<path d="M74.7,34.3h-1.5V22.7C73.2,10.2,63,0,50.5,0C38,0,27.8,10.2,27.8,22.7v11.6h-2.5c-6.6,0-12,5.4-12,12V88
		c0,6.6,5.4,12,12,12h49.4c6.6,0,12-5.4,12-12V46.3C86.7,39.6,81.3,34.3,74.7,34.3z M35.8,22.7C35.8,14.6,42.4,8,50.5,8
		c8.1,0,14.7,6.6,14.7,14.7v11.6H35.8V22.7z M78.7,88c0,2.2-1.8,4-4,4H25.3c-2.2,0-4-1.8-4-4V46.3c0-2.2,1.8-4,4-4h49.4
		c2.2,0,4,1.8,4,4V88z"/>
	<path d="M50,54.5c-4.4,0-8,3.6-8,8c0,3,1.6,5.5,4,6.9v5.7c0,2.2,1.8,4,4,4s4-1.8,4-4v-5.7c2.4-1.4,4-4,4-6.9
		C58,58.1,54.4,54.5,50,54.5z"/>
</g>
</svg>
