<?xml version="1.0" encoding="utf-8"?>
<!-- Generator: Adobe Illustrator 26.1.0, SVG Export Plug-In . SVG Version: 6.00 Build 0)  -->
<svg version="1.1" id="Capa_1" xmlns="http://www.w3.org/2000/svg" xmlns:xlink="http://www.w3.org/1999/xlink" x="0px" y="0px"
	 viewBox="0 0 100 100" style="enable-background:new 0 0 100 100;" xml:space="preserve">
<g>
	<path d="M15.1,27.1H12c-6.6,0-12-5.4-12-12V12C0,5.4,5.4,0,12,0h3.1c6.6,0,12,5.4,12,12v3.1C27.1,21.7,21.7,27.1,15.1,27.1z M12,8
		c-2.2,0-4,1.8-4,4v3.1c0,2.2,1.8,4,4,4h3.1c2.2,0,4-1.8,4-4V12c0-2.2-1.8-4-4-4H12z"/>
</g>
<g>
	<path d="M51.5,27.1h-3.1c-6.6,0-12-5.4-12-12V12c0-6.6,5.4-12,12-12h3.1c6.6,0,12,5.4,12,12v3.1C63.5,21.7,58.2,27.1,51.5,27.1z
		 M48.5,8c-2.2,0-4,1.8-4,4v3.1c0,2.2,1.8,4,4,4h3.1c2.2,0,4-1.8,4-4V12c0-2.2-1.8-4-4-4H48.5z"/>
</g>
<g>
	<path d="M88,27.1h-3.1c-6.6,0-12-5.4-12-12V12c0-6.6,5.4-12,12-12H88c6.6,0,12,5.4,12,12v3.1C100,21.7,94.6,27.1,88,27.1z M84.9,8
		c-2.2,0-4,1.8-4,4v3.1c0,2.2,1.8,4,4,4H88c2.2,0,4-1.8,4-4V12c0-2.2-1.8-4-4-4H84.9z"/>
</g>
<g>
	<path d="M15.1,63H12C5.4,63,0,57.7,0,51V48c0-6.6,5.4-12,12-12h3.1c6.6,0,12,5.4,12,12V51C27.1,57.7,21.7,63,15.1,63z M12,44
		c-2.2,0-4,1.8-4,4V51c0,2.2,1.8,4,4,4h3.1c2.2,0,4-1.8,4-4V48c0-2.2-1.8-4-4-4H12z"/>
</g>
<g>
	<path d="M51.5,63h-3.1c-6.6,0-12-5.4-12-12V48c0-6.6,5.4-12,12-12h3.1c6.6,0,12,5.4,12,12V51C63.5,57.7,58.2,63,51.5,63z M48.5,44
		c-2.2,0-4,1.8-4,4V51c0,2.2,1.8,4,4,4h3.1c2.2,0,4-1.8,4-4V48c0-2.2-1.8-4-4-4H48.5z"/>
</g>
<g>
	<path d="M88,63h-3.1c-6.6,0-12-5.4-12-12V48c0-6.6,5.4-12,12-12H88c6.6,0,12,5.4,12,12V51C100,57.7,94.6,63,88,63z M84.9,44
		c-2.2,0-4,1.8-4,4V51c0,2.2,1.8,4,4,4H88c2.2,0,4-1.8,4-4V48c0-2.2-1.8-4-4-4H84.9z"/>
</g>
<g>
	<path d="M15.1,100H12c-6.6,0-12-5.4-12-12v-3.1c0-6.6,5.4-12,12-12h3.1c6.6,0,12,5.4,12,12V88C27.1,94.6,21.7,100,15.1,100z
		 M12,80.9c-2.2,0-4,1.8-4,4V88c0,2.2,1.8,4,4,4h3.1c2.2,0,4-1.8,4-4v-3.1c0-2.2-1.8-4-4-4H12z"/>
</g>
<g>
	<path d="M51.5,100h-3.1c-6.6,0-12-5.4-12-12v-3.1c0-6.6,5.4-12,12-12h3.1c6.6,0,12,5.4,12,12V88C63.5,94.6,58.2,100,51.5,100z
		 M48.5,80.9c-2.2,0-4,1.8-4,4V88c0,2.2,1.8,4,4,4h3.1c2.2,0,4-1.8,4-4v-3.1c0-2.2-1.8-4-4-4H48.5z"/>
</g>
<g>
	<path d="M88,100h-3.1c-6.6,0-12-5.4-12-12v-3.1c0-6.6,5.4-12,12-12H88c6.6,0,12,5.4,12,12V88C100,94.6,94.6,100,88,100z M84.9,80.9
		c-2.2,0-4,1.8-4,4V88c0,2.2,1.8,4,4,4H88c2.2,0,4-1.8,4-4v-3.1c0-2.2-1.8-4-4-4H84.9z"/>
</g>
</svg>
