<?xml version="1.0" encoding="utf-8"?>
<!-- Generator: Adobe Illustrator 25.4.0, SVG Export Plug-In . SVG Version: 6.00 Build 0)  -->
<svg version="1.1" id="Capa_1" xmlns="http://www.w3.org/2000/svg" xmlns:xlink="http://www.w3.org/1999/xlink" x="0px" y="0px"
	 viewBox="0 0 100 100" style="enable-background:new 0 0 100 100;" xml:space="preserve">
<path d="M80.2,10.6H58.8V4c0-2.2-1.8-4-4-4s-4,1.8-4,4v54.9c-4.1-3.6-9.6-5.8-15.5-5.8c-12.9,0-23.5,10.5-23.5,23.5
	c0,12.9,10.5,23.5,23.5,23.5c12.9,0,23.5-10.5,23.5-23.5V18.6h21.4c2.2,0,4-1.8,4-4S82.4,10.6,80.2,10.6z M35.3,92
	c-8.5,0-15.5-6.9-15.5-15.5C19.8,68,26.8,61,35.3,61c8.5,0,15.5,6.9,15.5,15.5C50.8,85.1,43.9,92,35.3,92z"/>
</svg>
