<?xml version="1.0" encoding="utf-8"?>
<!-- Generator: Adobe Illustrator 25.4.0, SVG Export Plug-In . SVG Version: 6.00 Build 0)  -->
<svg version="1.1" id="Capa_1" xmlns="http://www.w3.org/2000/svg" xmlns:xlink="http://www.w3.org/1999/xlink" x="0px" y="0px"
	 viewBox="0 0 100 100" style="enable-background:new 0 0 100 100;" xml:space="preserve">
<path d="M100,49.5L100,49.5C99.7,22.2,77.4,0,50,0S0.3,22.2,0,49.5h0c0,0.1,0,0.1,0,0.2c0,0.1,0,0.2,0,0.3c0,27.6,22.4,50,50,50
	s50-22.4,50-50c0-0.1,0-0.2,0-0.3C100,49.6,100,49.6,100,49.5z M8,49.6c0.1-6,1.4-11.7,3.7-16.9c2.6,1.5,5.6,2.7,8.9,3.8
	c-0.7,4.3-1.1,8.8-1.1,13.4c0,3.5,0.2,6.9,0.6,10.2C12.7,57.3,8.1,53.3,8,49.6z M27.6,50c0-3.9,0.3-7.7,0.9-11.3
	c5.4,1.2,11.4,1.9,17.6,2.1v24.4c-6.3-0.2-12.2-1.1-17.3-2.3C28,58.8,27.6,54.5,27.6,50z M54,8.7c6.8,2.4,12.7,10.8,15.9,22.1
	C65,31.9,59.6,32.6,54,32.8V8.7z M46,8.7v24.1c-5.6-0.2-11-0.9-15.9-1.9C33.3,19.6,39.2,11.1,46,8.7z M46,73.2v18.1
	c-6.3-2.2-11.8-9.6-15.1-19.7C35.6,72.4,40.6,73,46,73.2z M54,91.3V73.2c5.4-0.2,10.4-0.7,15.1-1.6C65.8,81.6,60.3,89,54,91.3z
	 M54,65.2V40.8c6.2-0.2,12.1-0.9,17.6-2.1c0.6,3.6,0.9,7.4,0.9,11.3c0,4.5-0.4,8.8-1.1,12.9C66.2,64.1,60.3,64.9,54,65.2z
	 M79.4,36.6c3.3-1.1,6.3-2.4,8.9-3.8c2.3,5.2,3.7,10.9,3.7,16.9c-0.1,3.7-4.6,7.6-12.2,10.6c0.4-3.3,0.6-6.7,0.6-10.2
	C80.4,45.3,80.1,40.8,79.4,36.6z M84.3,25.8c-2,1.1-4.2,2-6.7,2.9C76,23,73.8,18,71.1,13.7C76.3,16.8,80.8,20.9,84.3,25.8z
	 M28.9,13.7c-2.7,4.2-4.9,9.3-6.5,15c-2.5-0.9-4.7-1.8-6.7-2.9C19.2,20.9,23.7,16.8,28.9,13.7z M10.6,64.4c3.2,1.9,7,3.6,11.3,4.9
	c1.6,6.5,4,12.2,7,16.9C20.5,81.4,13.9,73.7,10.6,64.4z M71.1,86.3c3-4.7,5.4-10.4,7-16.9c4.3-1.3,8.1-3,11.3-4.9
	C86.1,73.7,79.5,81.4,71.1,86.3z"/>
</svg>
