<?xml version="1.0" encoding="utf-8"?>
<!-- Generator: Adobe Illustrator 25.4.0, SVG Export Plug-In . SVG Version: 6.00 Build 0)  -->
<svg version="1.1" id="Capa_1" xmlns="http://www.w3.org/2000/svg" xmlns:xlink="http://www.w3.org/1999/xlink" x="0px" y="0px"
	 viewBox="0 0 100 100" style="enable-background:new 0 0 100 100;" xml:space="preserve">
<g>
	<path d="M50,100c-2.6,0-5.2-0.9-7.4-2.6l-5.2-4.1c-0.7-0.6-1.7-0.9-2.6-0.9l-6.6,0.2c-5.5,0.2-10.5-3.4-12-8.7l-1.8-6.4
		c-0.3-0.9-0.8-1.7-1.6-2.2l-5.5-3.7c-4.6-3.1-6.5-8.9-4.6-14.1l2.3-6.2c0.3-0.9,0.3-1.9,0-2.8l-2.3-6.2c-1.9-5.2,0-11,4.6-14.1
		l5.5-3.7c0.8-0.5,1.4-1.3,1.6-2.2l1.8-6.4c1.5-5.3,6.4-8.9,12-8.7l6.6,0.2c0.9,0,1.9-0.3,2.6-0.9l5.2-4.1C47-0.9,53-0.9,57.4,2.6
		l5.2,4.1c0.7,0.6,1.7,0.9,2.6,0.9l6.6-0.2c5.6-0.2,10.5,3.4,12,8.7l1.8,6.4c0.3,0.9,0.8,1.7,1.6,2.2l5.5,3.7
		c4.6,3.1,6.5,8.9,4.6,14.1l-2.3,6.2c-0.3,0.9-0.3,1.9,0,2.8l2.3,6.2c1.9,5.2,0,11-4.6,14.1l-5.5,3.7c-0.8,0.5-1.4,1.3-1.6,2.2
		L83.9,84c-1.5,5.2-6.2,8.7-11.5,8.7c-0.2,0-0.3,0-0.5,0l-6.6-0.2c-1,0-1.9,0.3-2.6,0.9l-5.2,4.1C55.2,99.2,52.6,100,50,100z
		 M34.9,84.5c2.7,0,5.3,0.9,7.4,2.6l5.2,4.1c1.5,1.1,3.5,1.1,4.9,0l5.2-4.1c2.2-1.8,5-2.7,7.9-2.6l6.6,0.2c1.9,0.1,3.5-1.1,4-2.9
		l1.8-6.4c0.8-2.7,2.5-5.1,4.9-6.7l5.5-3.7c1.5-1,2.2-3,1.5-4.7l-2.3-6.2c-1-2.7-1-5.6,0-8.3l2.3-6.2c0.6-1.7,0-3.7-1.5-4.7
		l-5.5-3.7c-2.4-1.6-4.1-4-4.9-6.7l-1.8-6.4c-0.5-1.8-2.2-3-4-2.9l-6.6,0.2c-2.8,0.1-5.6-0.8-7.9-2.6l-5.2-4.1
		c-1.5-1.1-3.5-1.1-4.9,0L42.3,13c-2.2,1.8-5,2.7-7.9,2.6l-6.6-0.2c-1.8-0.1-3.5,1.1-4,2.9L22,24.6c-0.8,2.7-2.5,5.1-4.9,6.7
		l-5.5,3.7c-1.5,1-2.2,3-1.5,4.7l2.3,6.2c1,2.7,1,5.6,0,8.3l-2.3,6.2c-0.6,1.7,0,3.7,1.5,4.7l5.5,3.7c2.4,1.6,4.1,4,4.9,6.7l1.8,6.4
		c0.5,1.8,2.1,3,4,2.9l6.6-0.2C34.6,84.5,34.7,84.5,34.9,84.5z"/>
</g>
</svg>
