<?xml version="1.0" encoding="utf-8"?>
<!-- Generator: Adobe Illustrator 25.4.0, SVG Export Plug-In . SVG Version: 6.00 Build 0)  -->
<svg version="1.1" id="Capa_1" xmlns="http://www.w3.org/2000/svg" xmlns:xlink="http://www.w3.org/1999/xlink" x="0px" y="0px"
	 viewBox="0 0 100 100" style="enable-background:new 0 0 100 100;" xml:space="preserve">
<g>
	<path d="M50,99.9c-2,0-4-0.5-5.8-1.5L14.8,82.1c-3.4-1.9-5.7-5.3-6.1-9.1L3.2,25.8C2.6,20.2,5.8,15,11.1,13.1L46,0.7
		c2.6-0.9,5.5-0.9,8.1,0l34.8,12.4c5.3,1.9,8.5,7.1,7.9,12.7l-5.4,47.1c-0.4,3.8-2.7,7.3-6.1,9.1L55.8,98.3C54,99.4,52,99.9,50,99.9
		z M48.7,8.2L13.8,20.7c-1.8,0.6-2.8,2.4-2.6,4.2L16.6,72c0.1,1.3,0.9,2.4,2,3l29.4,16.3c1.2,0.7,2.7,0.7,3.9,0l29.4-16.3
		c1.1-0.6,1.9-1.8,2-3l5.4-47.1c0.2-1.9-0.9-3.6-2.6-4.2L51.3,8.2C50.5,7.9,49.5,7.9,48.7,8.2z"/>
</g>
<g>
	<path d="M50,13.8l-27.2,61l0,0h10.1l0,0l5.5-13.6h23.1L67,74.8l0,0h10.1l0,0L50,13.8L50,13.8L50,13.8L50,13.8L50,13.8z M57.9,52.8
		H42.1L50,33.7L57.9,52.8z"/>
</g>
</svg>
