<?xml version="1.0" encoding="utf-8"?>
<!-- Generator: Adobe Illustrator 26.1.0, SVG Export Plug-In . SVG Version: 6.00 Build 0)  -->
<svg version="1.1" id="Capa_1" xmlns="http://www.w3.org/2000/svg" xmlns:xlink="http://www.w3.org/1999/xlink" x="0px" y="0px"
	 viewBox="0 0 100 100" style="enable-background:new 0 0 100 100;" xml:space="preserve">
<g>
	<path d="M96.7,23.8L54,8.8c-2.6-0.9-5.4-0.9-8,0l-42.7,15c-2,0.7-3.3,2.6-3.3,4.7v40.7c0,5.1,3.2,9.6,8,11.3l30,10.6
		c1.3,0.5,2.6,0.7,4,0.7c2.5,0,4.9-0.8,6.9-2.2c3.2-2.2,5.1-5.9,5.1-9.8V48.2c0,0,0.1,0,0.1,0L92,34.8v34.4c0,2.2,1.8,4,4,4
		s4-1.8,4-4V28.5C100,26.4,98.7,24.5,96.7,23.8z M48.7,16.3c0.9-0.3,1.8-0.3,2.7,0l10.6,3.7L26,32.7l-11.9-4.2L48.7,16.3z M44.3,83
		c-1.1,0.8-2.4,0.9-3.6,0.5L10.7,73C9.1,72.4,8,70.9,8,69.2V34.8l14,4.9v15.8c0,2.2,1.8,4,4,4s4-1.8,4-4v-13l15.9,5.6
		c0,0,0.1,0,0.1,0v31.6C46,81.1,45.4,82.3,44.3,83z M51.4,40.6c-0.9,0.3-2,0.3-2.9,0l-10.5-3.7L74,24.3l11.9,4.2L51.4,40.6z"/>
	<path d="M81.7,76.2l-3.1,3.1V60.2c0-2.2-1.8-4-4-4s-4,1.8-4,4v19.2l-3.1-3.1c-1.6-1.6-4.1-1.6-5.7,0c-1.6,1.6-1.6,4.1,0,5.7
		l7.9,7.9c1.4,1.4,3.1,2,4.9,2s3.6-0.7,4.9-2l7.9-7.9c1.6-1.6,1.6-4.1,0-5.7C85.8,74.6,83.3,74.6,81.7,76.2z"/>
</g>
</svg>
