<?xml version="1.0" encoding="utf-8"?>
<!-- Generator: Adobe Illustrator 25.4.0, SVG Export Plug-In . SVG Version: 6.00 Build 0)  -->
<svg version="1.1" id="Capa_1" xmlns="http://www.w3.org/2000/svg" xmlns:xlink="http://www.w3.org/1999/xlink" x="0px" y="0px"
	 viewBox="0 0 100 100" style="enable-background:new 0 0 100 100;" xml:space="preserve">
<path d="M96.7,22.4L54,7.4c-2.6-0.9-5.4-0.9-8,0l-42.7,15C1.3,23.1,0,25,0,27.1v40.7c0,5.1,3.2,9.6,8,11.3l35.3,12.4
	c2.1,0.8,4.4,1.1,6.6,1.1s4.5-0.4,6.6-1.1L92,79.2c4.8-1.7,8-6.2,8-11.3V27.1C100,25,98.7,23.1,96.7,22.4z M51.4,39.3
	c-0.9,0.3-2,0.3-2.9,0l-10.5-3.7L74,22.9l11.9,4.2L51.4,39.3z M48.7,15c0.9-0.3,1.8-0.3,2.7,0l10.6,3.7L26,31.3l-11.9-4.2L48.7,15z
	 M10.7,71.6C9.1,71.1,8,69.6,8,67.9V33.5l14,4.9v15.8c0,2.2,1.8,4,4,4s4-1.8,4-4v-13l15.9,5.6c0,0,0.1,0,0.1,0v37.2L10.7,71.6z
	 M89.3,71.6L54,84.1V46.9c0,0,0.1,0,0.1,0L92,33.5v34.4C92,69.6,90.9,71.1,89.3,71.6z"/>
</svg>
