<?xml version="1.0" encoding="utf-8"?>
<!-- Generator: Adobe Illustrator 25.4.0, SVG Export Plug-In . SVG Version: 6.00 Build 0)  -->
<svg version="1.1" id="Capa_1" xmlns="http://www.w3.org/2000/svg" xmlns:xlink="http://www.w3.org/1999/xlink" x="0px" y="0px"
	 viewBox="0 0 100 100" style="enable-background:new 0 0 100 100;" xml:space="preserve">
<g>
	<g>
		<path d="M28.1,100H15.2c-6.6,0-12-5.4-12-12V12c0-6.6,5.4-12,12-12h12.9c6.6,0,12,5.4,12,12v76C40.1,94.6,34.7,100,28.1,100z
			 M15.2,8c-2.2,0-4,1.8-4,4v76c0,2.2,1.8,4,4,4h12.9c2.2,0,4-1.8,4-4V12c0-2.2-1.8-4-4-4H15.2z"/>
	</g>
	<g>
		<path d="M84.8,100H71.9c-6.6,0-12-5.4-12-12V12c0-6.6,5.4-12,12-12h12.9c6.6,0,12,5.4,12,12v76C96.8,94.6,91.5,100,84.8,100z
			 M71.9,8c-2.2,0-4,1.8-4,4v76c0,2.2,1.8,4,4,4h12.9c2.2,0,4-1.8,4-4V12c0-2.2-1.8-4-4-4H71.9z"/>
	</g>
</g>
</svg>
