<?xml version="1.0" encoding="utf-8"?>
<!-- Generator: Adobe Illustrator 25.4.0, SVG Export Plug-In . SVG Version: 6.00 Build 0)  -->
<svg version="1.1" id="Capa_1" xmlns="http://www.w3.org/2000/svg" xmlns:xlink="http://www.w3.org/1999/xlink" x="0px" y="0px"
	 viewBox="0 0 100 100" style="enable-background:new 0 0 100 100;" xml:space="preserve">
<g>
	<g>
		<path d="M88,100H12c-6.6,0-12-5.4-12-12V12C0,5.4,5.4,0,12,0h76c6.6,0,12,5.4,12,12v76C100,94.6,94.6,100,88,100z M12,8
			c-2.2,0-4,1.8-4,4v76c0,2.2,1.8,4,4,4h76c2.2,0,4-1.8,4-4V12c0-2.2-1.8-4-4-4H12z"/>
	</g>
	<g>
		<path d="M83.9,71.5H16.1V16.1h67.8V71.5z M24.1,63.5h51.8V24.1H24.1V63.5z"/>
	</g>
</g>
</svg>
