<?xml version="1.0" encoding="utf-8"?>
<!-- Generator: Adobe Illustrator 25.4.0, SVG Export Plug-In . SVG Version: 6.00 Build 0)  -->
<svg version="1.1" id="Capa_1" xmlns="http://www.w3.org/2000/svg" xmlns:xlink="http://www.w3.org/1999/xlink" x="0px" y="0px"
	 viewBox="0 0 100 100" style="enable-background:new 0 0 100 100;" xml:space="preserve">
<g>
	<path d="M92.7,28.1v-3.3c0-4.9-2.9-9.1-7.1-10.9V12c0-6.6-5.4-12-12-12H26.4c-6.6,0-12,5.4-12,12v1.8c-4.2,1.9-7.1,6.1-7.1,10.9
		v3.3C3,29.9,0,34.2,0,39.2V88c0,6.6,5.4,12,12,12h76c6.6,0,12-5.4,12-12V39.2C100,34.2,97,29.9,92.7,28.1z M15.3,24.8
		c0-2.2,1.8-4,4-4h61.3c2.2,0,4,1.8,4,4v2.4H15.3V24.8z M22.4,12c0-2.2,1.8-4,4-4h47.1c2.2,0,4,1.8,4,4v0.8H22.4V12z M92,88
		c0,2.2-1.8,4-4,4H12c-2.2,0-4-1.8-4-4V39.2c0-2.2,1.8-4,4-4h76c2.2,0,4,1.8,4,4V88z"/>
	<path d="M59.2,60.8l-14.3-8.3c-2.2-1.2-4.9,0.3-4.9,2.8v16.5c0,2.5,2.7,4.1,4.9,2.8l14.3-8.3C61.4,65.1,61.4,62,59.2,60.8z"/>
</g>
</svg>
