<?xml version="1.0" encoding="utf-8"?>
<!-- Generator: Adobe Illustrator 25.4.0, SVG Export Plug-In . SVG Version: 6.00 Build 0)  -->
<svg version="1.1" id="Capa_1" xmlns="http://www.w3.org/2000/svg" xmlns:xlink="http://www.w3.org/1999/xlink" x="0px" y="0px"
	 viewBox="0 0 100 100" style="enable-background:new 0 0 100 100;" xml:space="preserve">
<g>
	<path d="M12,100c-2.1,0-4.1-0.5-6-1.6C2.2,96.2,0,92.3,0,88V12C0,7.7,2.2,3.8,6,1.6c3.8-2.2,8.3-2.2,12,0l65.5,38
		c3.7,2.2,6,6.1,6,10.4c0,4.3-2.2,8.2-6,10.4L18,98.4C16.1,99.5,14.1,100,12,100z M12,8c-0.9,0-1.7,0.3-2,0.5C9.4,8.9,8,9.9,8,12v76
		c0,2.1,1.4,3.1,2,3.5c0.6,0.3,2.2,1,4,0l65.5-38c1.8-1,2-2.8,2-3.5s-0.2-2.4-2-3.5L14,8.6C13.3,8.1,12.6,8,12,8z"/>
</g>
</svg>
