<?xml version="1.0" encoding="utf-8"?>
<!-- Generator: Adobe Illustrator 26.1.0, SVG Export Plug-In . SVG Version: 6.00 Build 0)  -->
<svg version="1.1" id="Capa_1" xmlns="http://www.w3.org/2000/svg" xmlns:xlink="http://www.w3.org/1999/xlink" x="0px" y="0px"
	 viewBox="0 0 100 100" style="enable-background:new 0 0 100 100;" xml:space="preserve">
<g>
	<g>
		<path d="M4,32.3c-2.2,0-4-1.8-4-4V12C0,5.4,5.4,0,12,0h17.5c2.2,0,4,1.8,4,4s-1.8,4-4,4H12c-2.2,0-4,1.8-4,4v16.3
			C8,30.5,6.2,32.3,4,32.3z"/>
	</g>
	<g>
		<path d="M96,32.3c-2.2,0-4-1.8-4-4V12c0-2.2-1.8-4-4-4H70.5c-2.2,0-4-1.8-4-4s1.8-4,4-4H88c6.6,0,12,5.4,12,12v16.3
			C100,30.5,98.2,32.3,96,32.3z"/>
	</g>
	<g>
		<path d="M29.5,100H12c-6.6,0-12-5.4-12-12V69.4c0-2.2,1.8-4,4-4s4,1.8,4,4V88c0,2.2,1.8,4,4,4h17.5c2.2,0,4,1.8,4,4
			S31.7,100,29.5,100z"/>
	</g>
	<g>
		<path d="M88,100H70.5c-2.2,0-4-1.8-4-4s1.8-4,4-4H88c2.2,0,4-1.8,4-4V69.4c0-2.2,1.8-4,4-4s4,1.8,4,4V88C100,94.6,94.6,100,88,100
			z"/>
	</g>
</g>
<g>
	<path d="M39.5,43.5H14.9l-0.1-4.1V14.9l4.1-0.1h24.5l0.1,4.1v24.5L39.5,43.5z M22.9,35.5h12.6V22.9H22.9V35.5z"/>
</g>
<g>
	<path d="M81.1,43.5H56.5l0-4.1V14.9l4-0.1h24.5l0,4.1v24.5L81.1,43.5z M64.5,35.5h12.6V22.9H64.5V35.5z"/>
</g>
<g>
	<path d="M39.5,85.1H14.9l-0.1-4V56.5l4.1,0h24.5l0.1,4v24.5L39.5,85.1z M22.9,77.1h12.6V64.5H22.9V77.1z"/>
</g>
</svg>
