<?xml version="1.0" encoding="utf-8"?>
<!-- Generator: Adobe Illustrator 25.4.0, SVG Export Plug-In . SVG Version: 6.00 Build 0)  -->
<svg version="1.1" id="Capa_1" xmlns="http://www.w3.org/2000/svg" xmlns:xlink="http://www.w3.org/1999/xlink" x="0px" y="0px"
	 viewBox="0 0 100 100" style="enable-background:new 0 0 100 100;" xml:space="preserve">
<g>
	<path d="M67.9,34.6c-1.9,1.1-2.5,3.6-1.4,5.5c4.6,7.6,3.4,17.2-2.9,23.4C56.2,71,44,71,36.5,63.6c-7.5-7.5-7.5-19.6,0-27.1
		c2.6-2.6,5.9-4.4,9.5-5.2v5c0,3.8,4.6,5.7,7.3,3l8.8-8.8c1.7-1.7,1.7-4.4,0-6l-8.8-8.8c-2.7-2.7-7.3-0.8-7.3,3v4.5
		c-5.7,0.8-11,3.5-15.2,7.7c-10.6,10.6-10.6,27.8,0,38.4c5.3,5.3,12.3,7.9,19.2,7.9c7,0,13.9-2.7,19.2-7.9
		c8.9-8.9,10.5-22.5,4.1-33.2C72.2,34.1,69.8,33.5,67.9,34.6z"/>
	<path d="M50,0.1C22.5,0.1,0.1,22.5,0.1,50S22.5,99.9,50,99.9S99.9,77.5,99.9,50S77.5,0.1,50,0.1z M50,91.9
		C26.9,91.9,8.1,73.1,8.1,50S26.9,8.1,50,8.1S91.9,26.9,91.9,50S73.1,91.9,50,91.9z"/>
</g>
</svg>
