<?xml version="1.0" encoding="utf-8"?>
<!-- Generator: Adobe Illustrator 25.4.0, SVG Export Plug-In . SVG Version: 6.00 Build 0)  -->
<svg version="1.1" id="Capa_1" xmlns="http://www.w3.org/2000/svg" xmlns:xlink="http://www.w3.org/1999/xlink" x="0px" y="0px"
	 viewBox="0 0 100 100" style="enable-background:new 0 0 100 100;" xml:space="preserve">
<g>
	<g>
		<path d="M50,100c-13.4,0-25.9-5.2-35.4-14.6c-1.6-1.6-1.6-4.1,0-5.7c1.6-1.6,4.1-1.6,5.7,0C28.2,87.6,38.8,92,50,92
			c21.6,0,40-16.8,41.8-38.3c0.2-2.2,2.1-3.8,4.3-3.6c2.2,0.2,3.8,2.1,3.6,4.3c-1.1,12.4-6.7,23.9-15.9,32.4
			C74.6,95.3,62.6,100,50,100z"/>
	</g>
	<g>
		<path d="M2,65.1h28.1c1.8,0,2.7,2.2,1.4,3.4L3.4,96.6C2.2,97.8,0,97,0,95.2V67.1C0,65.9,0.9,65.1,2,65.1z"/>
	</g>
</g>
<g>
	<g>
		<path d="M4,54c-2.2,0-4-1.8-4-4C0,22.4,22.4,0,50,0c13.4,0,25.9,5.2,35.4,14.6c1.6,1.6,1.6,4.1,0,5.7c-1.6,1.6-4.1,1.6-5.7,0
			C71.8,12.4,61.2,8,50,8C26.8,8,8,26.8,8,50C8,52.2,6.2,54,4,54z"/>
	</g>
	<g>
		<path d="M98,34.9H69.9c-1.8,0-2.7-2.2-1.4-3.4L96.6,3.4C97.8,2.2,100,3,100,4.8v28.1C100,34.1,99.1,34.9,98,34.9z"/>
	</g>
</g>
</svg>
