<?xml version="1.0" encoding="utf-8"?>
<!-- Generator: Adobe Illustrator 25.4.0, SVG Export Plug-In . SVG Version: 6.00 Build 0)  -->
<svg version="1.1" id="Capa_1" xmlns="http://www.w3.org/2000/svg" xmlns:xlink="http://www.w3.org/1999/xlink" x="0px" y="0px"
	 viewBox="0 0 100 100" style="enable-background:new 0 0 100 100;" xml:space="preserve">
<g>
	<path d="M65.4,0H35.6c-6.6,0-12,5.4-12,12v76c0,6.6,5.4,12,12,12h29.8c6.6,0,12-5.4,12-12V12C77.4,5.4,72,0,65.4,0z M69.4,88
		c0,2.2-1.8,4-4,4H35.6c-2.2,0-4-1.8-4-4V12c0-2.2,1.8-4,4-4h29.8c2.2,0,4,1.8,4,4V88z"/>
	<circle cx="50.5" cy="50.2" r="4"/>
	<circle cx="39.2" cy="50.2" r="4"/>
	<circle cx="61.8" cy="50.2" r="4"/>
	<circle cx="50.5" cy="61.3" r="4"/>
	<circle cx="39.2" cy="61.3" r="4"/>
	<circle cx="61.8" cy="61.3" r="4"/>
	<circle cx="50.5" cy="72.4" r="4"/>
	<circle cx="39.2" cy="72.4" r="4"/>
	<circle cx="61.8" cy="72.4" r="4"/>
	<circle cx="50.5" cy="83.4" r="4"/>
	<path d="M50.5,41.2c7.7,0,14-6.3,14-14c0-7.7-6.3-14-14-14c-7.7,0-14,6.3-14,14C36.5,35,42.8,41.2,50.5,41.2z M50.5,21.3
		c3.3,0,6,2.7,6,6s-2.7,6-6,6c-3.3,0-6-2.7-6-6S47.2,21.3,50.5,21.3z"/>
</g>
</svg>
