<?xml version="1.0" encoding="utf-8"?>
<!-- Generator: Adobe Illustrator 25.4.0, SVG Export Plug-In . SVG Version: 6.00 Build 0)  -->
<svg version="1.1" id="Capa_1" xmlns="http://www.w3.org/2000/svg" xmlns:xlink="http://www.w3.org/1999/xlink" x="0px" y="0px"
	 viewBox="0 0 100 100" style="enable-background:new 0 0 100 100;" xml:space="preserve">
<g>
	<path d="M41.9,67.1H12c-2.2,0-4-1.8-4-4V36.9c0-2.2,1.8-4,4-4h30.1c2.2,0,4-1.8,4-4s-1.8-4-4-4H12c-6.6,0-12,5.4-12,12v26.2
		c0,6.6,5.4,12,12,12h29.9c2.2,0,4-1.8,4-4S44.1,67.1,41.9,67.1z"/>
	<path d="M88,24.9H62v-8h4.2c2.2,0,4-1.8,4-4s-1.8-4-4-4H49.8c-2.2,0-4,1.8-4,4s1.8,4,4,4H54v66.2h-4.2c-2.2,0-4,1.8-4,4s1.8,4,4,4
		h16.5c2.2,0,4-1.8,4-4s-1.8-4-4-4H62v-8h26c6.6,0,12-5.4,12-12V36.9C100,30.3,94.6,24.9,88,24.9z M92,63.1c0,2.2-1.8,4-4,4H62V32.9
		h26c2.2,0,4,1.8,4,4V63.1z"/>
	<path d="M17,40.9c-0.6,0-1,0.4-1,1v16.2c0,0.6,0.4,1,1,1h27.8c0.6,0,1-0.4,1-1V41.9c0-0.6-0.4-1-1-1H17z"/>
</g>
</svg>
