<?xml version="1.0" encoding="utf-8"?>
<!-- Generator: Adobe Illustrator 25.4.0, SVG Export Plug-In . SVG Version: 6.00 Build 0)  -->
<svg version="1.1" id="Capa_1" xmlns="http://www.w3.org/2000/svg" xmlns:xlink="http://www.w3.org/1999/xlink" x="0px" y="0px"
	 viewBox="0 0 100 100" style="enable-background:new 0 0 100 100;" xml:space="preserve">
<path d="M88.9,20.6L56,1.6c-3.7-2.1-8.3-2.1-12,0l-32.9,19c-3.7,2.1-6,6.1-6,10.4v38c0,4.3,2.3,8.3,6,10.4l32.9,19
	c1.9,1.1,3.9,1.6,6,1.6s4.1-0.5,6-1.6l32.9-19c3.7-2.1,6-6.1,6-10.4V31C94.9,26.7,92.6,22.7,88.9,20.6z M84.9,27.5
	c1.2,0.7,2,2,2,3.5v35.7L54,47.7v-38L84.9,27.5z M15.1,27.5L46,9.7v38l-32.9,19V31C13.1,29.6,13.9,28.2,15.1,27.5z M52,91.5
	c-1.2,0.7-2.8,0.7-4,0L17.1,73.6l32.9-19l32.9,19L52,91.5z"/>
</svg>
