<?xml version="1.0" encoding="utf-8"?>
<!-- Generator: Adobe Illustrator 25.4.0, SVG Export Plug-In . SVG Version: 6.00 Build 0)  -->
<svg version="1.1" id="Capa_1" xmlns="http://www.w3.org/2000/svg" xmlns:xlink="http://www.w3.org/1999/xlink" x="0px" y="0px"
	 viewBox="0 0 100 100" style="enable-background:new 0 0 100 100;" xml:space="preserve">
<path d="M78.4,0H21.6c-6.6,0-12,5.4-12,12v76c0,6.6,5.4,12,12,12h46.5c6.6,0,12-5.4,12-12V44.6c0-1.6,1-3.1,2.5-3.7l0.4-0.2
	c4.5-1.9,7.4-6.2,7.4-11.1V12C90.4,5.4,85,0,78.4,0z M82.4,29.6c0,1.6-1,3.1-2.5,3.7l-0.4,0.2c-4.5,1.9-7.4,6.2-7.4,11.1V88
	c0,2.2-1.8,4-4,4h-1.3V80.1c0-2.2-1.8-4-4-4s-4,1.8-4,4V92h-4V80.1c0-2.2-1.8-4-4-4s-4,1.8-4,4V92h-4V80.1c0-2.2-1.8-4-4-4
	s-4,1.8-4,4V92h-4V80.1c0-2.2-1.8-4-4-4s-4,1.8-4,4V92h-1.3c-2.2,0-4-1.8-4-4V12c0-2.2,1.8-4,4-4h56.9c2.2,0,4,1.8,4,4V29.6z"/>
</svg>
