<?xml version="1.0" encoding="utf-8"?>
<!-- Generator: Adobe Illustrator 25.4.0, SVG Export Plug-In . SVG Version: 6.00 Build 0)  -->
<svg version="1.1" id="Capa_1" xmlns="http://www.w3.org/2000/svg" xmlns:xlink="http://www.w3.org/1999/xlink" x="0px" y="0px"
	 viewBox="0 0 100 100" style="enable-background:new 0 0 100 100;" xml:space="preserve">
<path d="M98.6,93L67.9,62.3c5.3-6.6,8.5-14.9,8.5-24C76.5,17.2,59.3,0,38.2,0S0,17.2,0,38.2s17.2,38.2,38.2,38.2
	c9.1,0,17.5-3.2,24-8.5L93,98.6c0.8,0.8,1.8,1.2,2.8,1.2s2-0.4,2.8-1.2C100.2,97.1,100.2,94.5,98.6,93z M8,38.2
	C8,21.6,21.6,8,38.2,8s30.2,13.6,30.2,30.2S54.9,68.5,38.2,68.5S8,54.9,8,38.2z"/>
</svg>
