<?xml version="1.0" encoding="utf-8"?>
<!-- Generator: Adobe Illustrator 25.4.0, SVG Export Plug-In . SVG Version: 6.00 Build 0)  -->
<svg version="1.1" id="Capa_1" xmlns="http://www.w3.org/2000/svg" xmlns:xlink="http://www.w3.org/1999/xlink" x="0px" y="0px"
	 viewBox="0 0 100 100" style="enable-background:new 0 0 100 100;" xml:space="preserve">
<g>
	<path d="M80.7,31.3H19.3c-6.6,0-12-5.4-12-12V12c0-6.6,5.4-12,12-12h61.5c6.6,0,12,5.4,12,12v7.3C92.7,25.9,87.4,31.3,80.7,31.3z
		 M19.3,8c-2.2,0-4,1.8-4,4v7.3c0,2.2,1.8,4,4,4h61.5c2.2,0,4-1.8,4-4V12c0-2.2-1.8-4-4-4H19.3z"/>
</g>
<g>
	<path d="M23.3,19.7L23.3,19.7c-2.2,0-4-1.8-4-4v0c0-2.2,1.8-4,4-4h0c2.2,0,4,1.8,4,4v0C27.3,17.9,25.5,19.7,23.3,19.7z"/>
</g>
<g>
	<path d="M80.7,65.7H19.3c-6.6,0-12-5.4-12-12v-7.3c0-6.6,5.4-12,12-12h61.5c6.6,0,12,5.4,12,12v7.3C92.7,60.3,87.4,65.7,80.7,65.7z
		 M19.3,42.3c-2.2,0-4,1.8-4,4v7.3c0,2.2,1.8,4,4,4h61.5c2.2,0,4-1.8,4-4v-7.3c0-2.2-1.8-4-4-4H19.3z"/>
</g>
<g>
	<path d="M23.3,54L23.3,54c-2.2,0-4-1.8-4-4v0c0-2.2,1.8-4,4-4h0c2.2,0,4,1.8,4,4v0C27.3,52.2,25.5,54,23.3,54z"/>
</g>
<g>
	<path d="M80.7,100H19.3c-6.6,0-12-5.4-12-12v-7.3c0-6.6,5.4-12,12-12h61.5c6.6,0,12,5.4,12,12V88C92.7,94.6,87.4,100,80.7,100z
		 M19.3,76.7c-2.2,0-4,1.8-4,4V88c0,2.2,1.8,4,4,4h61.5c2.2,0,4-1.8,4-4v-7.3c0-2.2-1.8-4-4-4H19.3z"/>
</g>
<g>
	<path d="M23.3,88.3L23.3,88.3c-2.2,0-4-1.8-4-4v0c0-2.2,1.8-4,4-4h0c2.2,0,4,1.8,4,4v0C27.3,86.6,25.5,88.3,23.3,88.3z"/>
</g>
<g>
	<path d="M35.5,19.7L35.5,19.7c-2.2,0-4-1.8-4-4v0c0-2.2,1.8-4,4-4h0c2.2,0,4,1.8,4,4v0C39.5,17.9,37.7,19.7,35.5,19.7z"/>
</g>
</svg>
