<?xml version="1.0" encoding="utf-8"?>
<!-- Generator: Adobe Illustrator 25.4.0, SVG Export Plug-In . SVG Version: 6.00 Build 0)  -->
<svg version="1.1" id="Capa_1" xmlns="http://www.w3.org/2000/svg" xmlns:xlink="http://www.w3.org/1999/xlink" x="0px" y="0px"
	 viewBox="0 0 100 100" style="enable-background:new 0 0 100 100;" xml:space="preserve">
<g>
	<path d="M53,100h-6c-6.6,0-12-5.4-12-12v-1.2c0-1.5-0.8-2.9-2.1-3.5c-1.1-0.6-2.2-1.2-3.2-1.8c-1.2-0.8-2.8-0.8-4.1-0.1l-1,0.6
		c-5.7,3.3-13.1,1.3-16.4-4.4l-3-5.2C1.9,66.7,3.9,59.3,9.6,56l1-0.6c1.3-0.7,2.1-2.2,2-3.7c0-0.6,0-1.1,0-1.7s0-1.1,0-1.7
		c0.1-1.6-0.7-3-2-3.7l-1-0.6c-5.7-3.3-7.7-10.7-4.4-16.4l3-5.2c3.3-5.7,10.7-7.7,16.4-4.4l1,0.6c1.3,0.8,2.9,0.7,4.1-0.1
		c1-0.7,2.1-1.3,3.2-1.8c1.3-0.7,2.1-2,2.1-3.5V12c0-6.6,5.4-12,12-12h6c6.6,0,12,5.4,12,12v1.2c0,1.5,0.8,2.9,2.1,3.5
		c1.1,0.6,2.2,1.2,3.2,1.8c1.2,0.8,2.8,0.8,4.1,0.1l1-0.6c5.7-3.3,13.1-1.3,16.4,4.4l3,5.2c1.6,2.8,2,6,1.2,9.1
		c-0.8,3.1-2.8,5.7-5.6,7.3l-1,0.6c-1.3,0.8-2.1,2.2-2,3.7c0,0.6,0,1.1,0,1.7s0,1.1,0,1.7c-0.1,1.6,0.7,3,2,3.7l1,0.6
		c2.8,1.6,4.8,4.2,5.6,7.3c0.8,3.1,0.4,6.3-1.2,9.1l-3,5.2c-3.3,5.7-10.7,7.7-16.4,4.4l-1-0.6c-1.3-0.8-2.9-0.7-4.1,0.1
		c-1,0.7-2.1,1.3-3.2,1.8c-1.3,0.7-2.1,2-2.1,3.5V88C65,94.6,59.6,100,53,100z M27.6,72.9c2.2,0,4.5,0.6,6.5,1.9
		c0.8,0.5,1.7,1,2.5,1.5c4,2,6.5,6.1,6.5,10.6V88c0,2.2,1.8,4,4,4h6c2.2,0,4-1.8,4-4v-1.2c0-4.5,2.5-8.6,6.5-10.6
		c0.9-0.4,1.7-0.9,2.5-1.5c3.8-2.4,8.6-2.5,12.5-0.3l1,0.6c1.9,1.1,4.4,0.4,5.5-1.5l3-5.2c0.5-0.9,0.7-2,0.4-3
		c-0.3-1-0.9-1.9-1.9-2.4l-1-0.6c-3.9-2.3-6.2-6.5-6-11c0-0.4,0-0.9,0-1.3s0-0.9,0-1.3c-0.2-4.6,2.1-8.8,6-11l1-0.6
		c0.9-0.5,1.6-1.4,1.9-2.4c0.3-1,0.1-2.1-0.4-3l-3-5.2c-1.1-1.9-3.6-2.6-5.5-1.5l-1,0.6c-3.9,2.3-8.7,2.1-12.5-0.3
		c-0.8-0.5-1.7-1-2.5-1.5c-4-2-6.5-6.1-6.5-10.6V12c0-2.2-1.8-4-4-4h-6c-2.2,0-4,1.8-4,4v1.2c0,4.5-2.5,8.6-6.5,10.6
		c-0.9,0.4-1.7,0.9-2.5,1.5c-3.8,2.4-8.6,2.6-12.5,0.3l-1-0.6c-1.9-1.1-4.4-0.4-5.5,1.5l-3,5.2c-1.1,1.9-0.4,4.4,1.5,5.5l1,0.6
		c3.9,2.3,6.2,6.5,6,11c0,0.4,0,0.9,0,1.3s0,0.9,0,1.3c0.2,4.6-2.1,8.8-6,11l-1,0.6c-1.9,1.1-2.6,3.6-1.5,5.5l3,5.2
		c1.1,1.9,3.6,2.6,5.5,1.5l1-0.6C23.5,73.4,25.5,72.9,27.6,72.9z"/>
</g>
<g>
	<path d="M50.5,68.6c-10.3,0-18.6-8.4-18.6-18.6s8.4-18.6,18.6-18.6S69.1,39.7,69.1,50S60.8,68.6,50.5,68.6z M50.5,39.4
		c-5.9,0-10.6,4.8-10.6,10.6s4.8,10.6,10.6,10.6S61.1,55.9,61.1,50S56.4,39.4,50.5,39.4z"/>
</g>
</svg>
