<?xml version="1.0" encoding="utf-8"?>
<!-- Generator: Adobe Illustrator 25.4.0, SVG Export Plug-In . SVG Version: 6.00 Build 0)  -->
<svg version="1.1" id="Capa_1" xmlns="http://www.w3.org/2000/svg" xmlns:xlink="http://www.w3.org/1999/xlink" x="0px" y="0px"
	 viewBox="0 0 100 100" style="enable-background:new 0 0 100 100;" xml:space="preserve">
<g>
	<path d="M33.6,96.4c-2.1,0-4.1-0.5-6-1.6l-5.2-3c-5.7-3.3-7.7-10.7-4.4-16.4l0.6-1c0.7-1.3,0.7-2.9-0.2-4.2c-0.3-0.5-0.6-1-0.9-1.5
		c-0.3-0.5-0.6-1-0.8-1.5C16,65.8,14.6,65,13.1,65H12C5.4,65,0,59.6,0,53v-6c0-6.6,5.4-12,12-12h1.2c1.5,0,2.9-0.8,3.5-2.1
		c0.6-1.1,1.2-2.2,1.8-3.2c0.8-1.2,0.8-2.8,0.1-4.1l-0.6-1c-1.6-2.8-2-6-1.2-9.1s2.8-5.7,5.6-7.3l5.2-3C33.3,1.9,40.7,3.9,44,9.6
		l0.6,1c0.8,1.3,2.1,2.1,3.6,2c1.2-0.1,2.5-0.1,3.7,0c1.5,0.1,2.9-0.7,3.6-2l0.6-1c3.3-5.7,10.7-7.7,16.4-4.4l5.2,3
		c5.7,3.3,7.7,10.7,4.4,16.4l-0.6,1c-0.7,1.3-0.7,2.9,0.2,4.2c0.3,0.5,0.6,1,0.9,1.5l0,0c0.3,0.5,0.6,1,0.8,1.5
		c0.7,1.4,2.1,2.2,3.6,2.2H88c6.6,0,12,5.4,12,12v6c0,6.6-5.4,12-12,12h-1.2c-1.5,0-2.9,0.8-3.5,2.1c-0.6,1.1-1.2,2.2-1.8,3.2
		c-0.8,1.2-0.8,2.8-0.1,4.1l0.6,1c3.3,5.7,1.3,13.1-4.4,16.4l-5.2,3c-5.7,3.3-13.1,1.3-16.4-4.4l-0.6-1c-0.8-1.3-2.1-2.1-3.6-2
		c-1.2,0.1-2.5,0.1-3.7,0c-1.5-0.1-2.9,0.7-3.6,2l-0.6,1c-1.6,2.8-4.2,4.8-7.3,5.6C35.7,96.3,34.6,96.4,33.6,96.4z M12,43
		c-2.2,0-4,1.8-4,4v6c0,2.2,1.8,4,4,4h1.1c4.5,0,8.6,2.5,10.7,6.6c0.2,0.4,0.4,0.8,0.6,1.2c0.2,0.4,0.5,0.8,0.7,1.1
		c2.5,3.8,2.6,8.7,0.3,12.5l-0.6,1c-1.1,1.9-0.4,4.4,1.5,5.5l5.2,3c0.9,0.5,2,0.7,3,0.4c1-0.3,1.9-0.9,2.4-1.9l0.6-1
		c2.3-3.9,6.4-6.2,10.9-6c1,0,1.9,0,2.9,0c4.5-0.2,8.7,2.1,10.9,6l0.6,1c1.1,1.9,3.6,2.6,5.5,1.5l5.2-3c1.9-1.1,2.6-3.6,1.5-5.5
		l-0.6-1c-2.3-3.9-2.2-8.7,0.3-12.4c0.5-0.8,1-1.7,1.4-2.5c2.1-4,6.1-6.5,10.7-6.5H88c2.2,0,4-1.8,4-4v-6c0-2.2-1.8-4-4-4h-1.1
		c-4.5,0-8.6-2.5-10.7-6.6c-0.2-0.4-0.4-0.8-0.6-1.2l0,0c-0.2-0.4-0.5-0.8-0.7-1.1c-2.5-3.8-2.6-8.7-0.3-12.6l0.6-1
		c1.1-1.9,0.4-4.4-1.5-5.5l-5.2-3c-1.9-1.1-4.4-0.4-5.5,1.5l-0.6,1c-2.3,3.9-6.5,6.2-10.9,6c-1,0-1.9,0-2.9,0
		c-4.5,0.2-8.7-2.1-10.9-6l-0.6-1c-1.1-1.9-3.6-2.6-5.5-1.5l-5.2,3c-0.9,0.5-1.6,1.4-1.9,2.4c-0.3,1-0.1,2.1,0.4,3l0.6,1
		c2.3,3.9,2.2,8.7-0.3,12.4c-0.5,0.8-1,1.7-1.4,2.5c-2.1,4-6.1,6.5-10.7,6.5H12z"/>
</g>
<g>
	<path d="M50,68.6c-10.3,0-18.6-8.4-18.6-18.6S39.7,31.4,50,31.4S68.6,39.7,68.6,50S60.3,68.6,50,68.6z M50,39.4
		c-5.9,0-10.6,4.8-10.6,10.6S44.1,60.6,50,60.6S60.6,55.9,60.6,50S55.9,39.4,50,39.4z"/>
</g>
</svg>
