<?xml version="1.0" encoding="utf-8"?>
<!-- Generator: Adobe Illustrator 25.4.0, SVG Export Plug-In . SVG Version: 6.00 Build 0)  -->
<svg version="1.1" id="Capa_1" xmlns="http://www.w3.org/2000/svg" xmlns:xlink="http://www.w3.org/1999/xlink" x="0px" y="0px"
	 viewBox="0 0 100 100" style="enable-background:new 0 0 100 100;" xml:space="preserve">
<path d="M74.3,20.4h-5.6V12c0-6.6-5.4-12-12-12H44.3c-6.6,0-12,5.4-12,12v8.4h-6.6c-6.6,0-12,5.4-12,12V88c0,6.6,5.4,12,12,12h48.7
	c6.6,0,12-5.4,12-12V32.4C86.3,25.8,81,20.4,74.3,20.4z M40.3,12c0-2.2,1.8-4,4-4h12.5c2.2,0,4,1.8,4,4v8.4H40.3V12z M78.3,88
	c0,2.2-1.8,4-4,4H25.7c-2.2,0-4-1.8-4-4V32.4c0-2.2,1.8-4,4-4h6.6h36.5h5.6c2.2,0,4,1.8,4,4V88z"/>
</svg>
