<?xml version="1.0" encoding="utf-8"?>
<!-- Generator: Adobe Illustrator 25.4.0, SVG Export Plug-In . SVG Version: 6.00 Build 0)  -->
<svg version="1.1" id="Capa_1" xmlns="http://www.w3.org/2000/svg" xmlns:xlink="http://www.w3.org/1999/xlink" x="0px" y="0px"
	 viewBox="0 0 100 100" style="enable-background:new 0 0 100 100;" xml:space="preserve">
<path d="M88.7,1.6c-3.8-2.2-8.3-2.2-12,0L13.2,38.4V4c0-2.2-1.8-4-4-4s-4,1.8-4,4v92c0,2.2,1.8,4,4,4s4-1.8,4-4V61.6l63.5,36.8
	c1.9,1.1,4,1.6,6,1.6c2.1,0,4.1-0.5,6-1.6c3.8-2.2,6-6.1,6-10.4V12C94.8,7.7,92.5,3.8,88.7,1.6z M86.8,88c0,2.1-1.4,3.1-2,3.5
	c-0.6,0.3-2.2,1-4,0l-65.5-38c-1.8-1-2-2.8-2-3.5s0.2-2.4,2-3.5l65.5-38c1.8-1,3.4-0.4,4,0s2,1.4,2,3.5V88z"/>
</svg>
