<?xml version="1.0" encoding="utf-8"?>
<!-- Generator: Adobe Illustrator 25.4.0, SVG Export Plug-In . SVG Version: 6.00 Build 0)  -->
<svg version="1.1" id="Capa_1" xmlns="http://www.w3.org/2000/svg" xmlns:xlink="http://www.w3.org/1999/xlink" x="0px" y="0px"
	 viewBox="0 0 100 100" style="enable-background:new 0 0 100 100;" xml:space="preserve">
<path d="M90.8,0c-2.2,0-4,1.8-4,4v34.4L23.3,1.6c-3.8-2.2-8.2-2.2-12,0c-3.8,2.2-6,6.1-6,10.4v76c0,4.3,2.2,8.2,6,10.4
	c1.9,1.1,3.9,1.6,6,1.6c2.1,0,4.1-0.5,6-1.6l63.5-36.8V96c0,2.2,1.8,4,4,4s4-1.8,4-4V4C94.8,1.8,93,0,90.8,0z M84.8,53.5l-65.5,38
	c-1.8,1-3.4,0.4-4,0c-0.6-0.3-2-1.4-2-3.5V12c0-2.1,1.4-3.1,2-3.5c0.4-0.2,1.1-0.5,2-0.5c0.6,0,1.3,0.1,2,0.6l65.5,38
	c1.8,1,2,2.8,2,3.5S86.6,52.4,84.8,53.5z"/>
</svg>
