<?xml version="1.0" encoding="utf-8"?>
<!-- Generator: Adobe Illustrator 25.4.0, SVG Export Plug-In . SVG Version: 6.00 Build 0)  -->
<svg version="1.1" id="Capa_1" xmlns="http://www.w3.org/2000/svg" xmlns:xlink="http://www.w3.org/1999/xlink" x="0px" y="0px"
	 viewBox="0 0 100 100" style="enable-background:new 0 0 100 100;" xml:space="preserve">
<g>
	<path d="M67.1,100H31.9c-6.6,0-12-5.4-12-12V12c0-6.6,5.4-12,12-12h35.1c6.6,0,12,5.4,12,12v76C79.1,94.6,73.7,100,67.1,100z
		 M31.9,8c-2.2,0-4,1.8-4,4v76c0,2.2,1.8,4,4,4h35.1c2.2,0,4-1.8,4-4V12c0-2.2-1.8-4-4-4H31.9z"/>
</g>
<g>
	<circle cx="50" cy="82.6" r="4"/>
</g>
</svg>
