<?xml version="1.0" encoding="utf-8"?>
<!-- Generator: Adobe Illustrator 26.1.0, SVG Export Plug-In . SVG Version: 6.00 Build 0)  -->
<svg version="1.1" id="Capa_1" xmlns="http://www.w3.org/2000/svg" xmlns:xlink="http://www.w3.org/1999/xlink" x="0px" y="0px"
	 viewBox="0 0 100 100" style="enable-background:new 0 0 100 100;" xml:space="preserve">
<g>
	<g>
		<path d="M88,26H12C5.4,26,0,20.7,0,14v-2C0,5.4,5.4,0,12,0h76c6.6,0,12,5.4,12,12v2C100,20.7,94.6,26,88,26z M12,8
			c-2.2,0-4,1.8-4,4v2c0,2.2,1.8,4,4,4h76c2.2,0,4-1.8,4-4v-2c0-2.2-1.8-4-4-4H12z"/>
	</g>
	<g>
		<path d="M60.1,63H12C5.4,63,0,57.6,0,51v-2c0-6.6,5.4-12,12-12h48.1c6.6,0,12,5.4,12,12v2C72.1,57.6,66.7,63,60.1,63z M12,45
			c-2.2,0-4,1.8-4,4v2c0,2.2,1.8,4,4,4h48.1c2.2,0,4-1.8,4-4v-2c0-2.2-1.8-4-4-4H12z"/>
	</g>
	<g>
		<path d="M32.2,100H12c-6.6,0-12-5.4-12-12v-2c0-6.6,5.4-12,12-12h20.2c6.6,0,12,5.4,12,12v2C44.2,94.6,38.8,100,32.2,100z M12,82
			c-2.2,0-4,1.8-4,4v2c0,2.2,1.8,4,4,4h20.2c2.2,0,4-1.8,4-4v-2c0-2.2-1.8-4-4-4H12z"/>
	</g>
</g>
</svg>
