<?xml version="1.0" encoding="utf-8"?>
<!-- Generator: Adobe Illustrator 25.4.0, SVG Export Plug-In . SVG Version: 6.00 Build 0)  -->
<svg version="1.1" id="Capa_1" xmlns="http://www.w3.org/2000/svg" xmlns:xlink="http://www.w3.org/1999/xlink" x="0px" y="0px"
	 viewBox="0 0 100 100" style="enable-background:new 0 0 100 100;" xml:space="preserve">
<g>
	<path d="M73.5,98.1c-1.8,0-3.6-0.4-5.3-1.2l-16.4-8.1c-1.1-0.5-2.4-0.5-3.5,0l-16.4,8.1c-4,2-8.7,1.6-12.4-1
		c-3.6-2.6-5.5-7-4.8-11.4l2.6-18.1c0.2-1.2-0.2-2.5-1.1-3.4L3.4,49.8C0.3,46.6-0.8,42,0.6,37.8c1.4-4.3,5-7.4,9.4-8.1l18-3.1
		c1.2-0.2,2.3-1,2.9-2.1l8.5-16.2c2.1-4,6.2-6.4,10.6-6.4c0,0,0,0,0,0c4.5,0,8.5,2.5,10.6,6.4l8.5,16.2c0.6,1.1,1.6,1.9,2.9,2.1
		l18,3.1c4.4,0.8,8,3.9,9.4,8.1c1.4,4.3,0.3,8.9-2.8,12.1L83.8,62.9c-0.9,0.9-1.3,2.1-1.1,3.4l2.6,18.1c0.6,4.4-1.2,8.8-4.8,11.4
		C78.4,97.4,76,98.1,73.5,98.1z M50,80.4c1.8,0,3.7,0.4,5.3,1.2l16.4,8.1c2,1,3.5,0.1,4.1-0.4c0.6-0.4,1.9-1.7,1.6-3.8l-2.6-18.1
		c-0.5-3.7,0.7-7.5,3.3-10.1l12.8-13.1c1.5-1.6,1.2-3.3,0.9-4c-0.2-0.7-1-2.3-3.1-2.7l-18-3.1c-3.7-0.6-6.9-3-8.6-6.2L53.5,12
		c-1-1.9-2.8-2.1-3.5-2.1c-0.7,0-2.5,0.2-3.5,2.1L38,28.2c-1.7,3.3-4.9,5.6-8.6,6.2l-18,3.1c-2.2,0.4-2.9,2-3.1,2.7
		c-0.2,0.7-0.6,2.5,0.9,4l12.8,13.1c2.6,2.7,3.8,6.4,3.3,10.1l-2.6,18.1c-0.3,2.2,1,3.4,1.6,3.8c0.6,0.4,2.2,1.3,4.1,0.4l16.4-8.1
		C46.3,80.8,48.2,80.4,50,80.4z"/>
</g>
</svg>
