<?xml version="1.0" encoding="utf-8"?>
<!-- Generator: Adobe Illustrator 25.4.0, SVG Export Plug-In . SVG Version: 6.00 Build 0)  -->
<svg version="1.1" id="Capa_1" xmlns="http://www.w3.org/2000/svg" xmlns:xlink="http://www.w3.org/1999/xlink" x="0px" y="0px"
	 viewBox="0 0 100 100" style="enable-background:new 0 0 100 100;" xml:space="preserve">
<path d="M96.5,41.5L80.4,25.4c-1.6-1.6-4.1-1.6-5.7,0c-1.6,1.6-1.6,4.1,0,5.7L89.7,46H10.3l14.9-14.9c1.6-1.6,1.6-4.1,0-5.7
	c-1.6-1.6-4.1-1.6-5.7,0L3.5,41.5C1.2,43.8,0,46.8,0,50c0,3.2,1.2,6.2,3.5,8.5l16.1,16.1c0.8,0.8,1.8,1.2,2.8,1.2s2-0.4,2.8-1.2
	c1.6-1.6,1.6-4.1,0-5.7L10.3,54h79.3L74.7,68.9c-1.6,1.6-1.6,4.1,0,5.7c0.8,0.8,1.8,1.2,2.8,1.2s2-0.4,2.8-1.2l16.1-16.1
	C101.2,53.8,101.2,46.2,96.5,41.5z"/>
</svg>
