<?xml version="1.0" encoding="utf-8"?>
<!-- Generator: Adobe Illustrator 25.4.0, SVG Export Plug-In . SVG Version: 6.00 Build 0)  -->
<svg version="1.1" id="Capa_1" xmlns="http://www.w3.org/2000/svg" xmlns:xlink="http://www.w3.org/1999/xlink" x="0px" y="0px"
	 viewBox="0 0 100 100" style="enable-background:new 0 0 100 100;" xml:space="preserve">
<g>
	<path d="M60.5,40.2c-2.2,0-4,1.8-4,4v27.3c0,2.2,1.8,4,4,4s4-1.8,4-4V44.2C64.5,42,62.7,40.2,60.5,40.2z"/>
	<path d="M39.5,40.2c-2.2,0-4,1.8-4,4v27.3c0,2.2,1.8,4,4,4s4-1.8,4-4V44.2C43.5,42,41.7,40.2,39.5,40.2z"/>
	<path d="M87.5,15.7h-3.1H68V12c0-6.6-5.4-12-12-12H44c-6.6,0-12,5.4-12,12v3.7H15.6h-3.1c-2.2,0-4,1.8-4,4s1.8,4,4,4h3.1V88
		c0,6.6,5.4,12,12,12h44.9c6.6,0,12-5.4,12-12V23.7h3.1c2.2,0,4-1.8,4-4S89.8,15.7,87.5,15.7z M40,12c0-2.2,1.8-4,4-4H56
		c2.2,0,4,1.8,4,4v3.7H40V12z M76.4,88c0,2.2-1.8,4-4,4H27.6c-2.2,0-4-1.8-4-4V23.7H32H68h8.4V88z"/>
</g>
</svg>
