<?xml version="1.0" encoding="utf-8"?>
<!-- Generator: Adobe Illustrator 25.4.0, SVG Export Plug-In . SVG Version: 6.00 Build 0)  -->
<svg version="1.1" id="Capa_1" xmlns="http://www.w3.org/2000/svg" xmlns:xlink="http://www.w3.org/1999/xlink" x="0px" y="0px"
	 viewBox="0 0 100 100" style="enable-background:new 0 0 100 100;" xml:space="preserve">
<g>
	<g>
		<path d="M88,76.2H12c-6.6,0-12-5.4-12-12V23.1c0-6.6,5.4-12,12-12h76c6.6,0,12,5.4,12,12v41.1C100,70.9,94.6,76.2,88,76.2z
			 M12,19.1c-2.2,0-4,1.8-4,4v41.1c0,2.2,1.8,4,4,4h76c2.2,0,4-1.8,4-4V23.1c0-2.2-1.8-4-4-4H12z"/>
	</g>
	<g>
		<path d="M68,88.9H32c-2.2,0-4-1.8-4-4s1.8-4,4-4h36c2.2,0,4,1.8,4,4S70.2,88.9,68,88.9z"/>
	</g>
</g>
</svg>
