<?xml version="1.0" encoding="utf-8"?>
<!-- Generator: Adobe Illustrator 25.4.0, SVG Export Plug-In . SVG Version: 6.00 Build 0)  -->
<svg version="1.1" id="Capa_1" xmlns="http://www.w3.org/2000/svg" xmlns:xlink="http://www.w3.org/1999/xlink" x="0px" y="0px"
	 viewBox="0 0 100 100" style="enable-background:new 0 0 100 100;" xml:space="preserve">
<g>
	<path d="M16.3,27.3c-2.2,0.4-3.6,2.4-3.3,4.6c0.3,1.9,2,3.3,3.9,3.3c0.2,0,0.5,0,0.7-0.1c3.9-0.7,7.8-0.9,11.7-0.8
		c2.2,0.1,4.1-1.6,4.2-3.8s-1.6-4.1-3.8-4.2C25.2,26.3,20.7,26.6,16.3,27.3z"/>
	<path d="M16.3,43.3c-2.2,0.4-3.6,2.4-3.3,4.6c0.3,1.9,2,3.3,3.9,3.3c0.2,0,0.5,0,0.7-0.1c5.6-1,11.2-1.1,16.8-0.3
		c2.2,0.3,4.2-1.2,4.5-3.4c0.3-2.2-1.2-4.2-3.4-4.5C29.1,42,22.6,42.2,16.3,43.3z"/>
	<path d="M89.3,12.6C76.4,9.2,62.6,10,50.3,14.8c-12.5-4.9-26.5-5.8-39.6-2.3c-6,1.6-10.9,8.1-10.9,14.6v46.7c0,3.2,1.2,5.9,3.5,7.7
		c1.7,1.3,3.7,1.9,6,1.9c1.1,0,2.2-0.2,3.4-0.5c8.7-2.3,17.9-2.5,26.7-0.5l0,0c4.2,1,8.1,0.3,10.8-1.9c2.8,2.2,6.6,2.9,10.9,1.9
		c8.6-2,17.7-1.8,26.2,0.5l0,0c1.2,0.3,2.3,0.5,3.4,0.5c2.3,0,4.3-0.7,6-1.9c2.3-1.8,3.5-4.5,3.5-7.7V27.1
		C100.2,20.7,95.3,14.1,89.3,12.6z M46.2,71.8c0,1.2-0.3,2-0.9,2.5c-0.8,0.7-2.4,0.8-4.1,0.4c-10-2.3-20.6-2.1-30.5,0.5
		c-1.3,0.3-2.1,0.2-2.5-0.1c-0.4-0.3-0.4-1-0.4-1.4V27.1c0-2.8,2.4-6.2,4.9-6.8c4.7-1.2,9.4-1.9,14.2-1.9c6.5,0,13.1,1.1,19.2,3.4
		V71.8z M92.2,73.8c0,0.3,0,1.1-0.4,1.4c-0.3,0.2-1.2,0.4-2.5,0.1c-9.8-2.6-20.1-2.8-30-0.5c-1.8,0.4-3.3,0.2-4.1-0.4
		c-0.6-0.5-0.9-1.3-0.9-2.5v-50c10.5-3.9,22.1-4.4,33-1.5c2.5,0.6,4.9,4,4.9,6.8V73.8z"/>
</g>
</svg>
