<?xml version="1.0" encoding="utf-8"?>
<!-- Generator: Adobe Illustrator 25.4.0, SVG Export Plug-In . SVG Version: 6.00 Build 0)  -->
<svg version="1.1" id="Capa_1" xmlns="http://www.w3.org/2000/svg" xmlns:xlink="http://www.w3.org/1999/xlink" x="0px" y="0px"
	 viewBox="0 0 100 100" style="enable-background:new 0 0 100 100;" xml:space="preserve">
<g>
	<path d="M48.5,31.5l14.1-12.4c1.8-1.6,3.7-0.9,4.3-0.6s2.4,1.2,2.4,3.6v30.1l8,8V22.1c0-4.8-2.7-9-7.1-10.9
		c-4.3-2-9.3-1.2-12.9,1.9L42.8,25.8L48.5,31.5z"/>
	<path d="M97.2,91.6l-20-20v0l-8-8v0L42,36.3c0,0,0,0,0,0l-7.1-7.1h0L8.4,2.8c-1.6-1.6-4.1-1.6-5.7,0c-1.6,1.6-1.6,4.1,0,5.7
		l22.6,22.6c-3.4,2.1-5.7,5.9-5.7,10.2v14.4c0,6.6,5.4,12,12,12h5.7c1,0,1.9,0.4,2.6,1l17.3,15.2c2.3,2,5,3,7.9,3
		c1.7,0,3.4-0.4,5-1.1c2.3-1,4.1-2.7,5.3-4.6l16.1,16.1c0.8,0.8,1.8,1.2,2.8,1.2s2-0.4,2.8-1.2C98.8,95.6,98.8,93.1,97.2,91.6z
		 M66.8,78.5c-0.6,0.2-2.5,0.9-4.3-0.6L45.3,62.6c-2.2-1.9-5-3-7.9-3h-5.7c-2.2,0-4-1.8-4-4V41.2c0-2.2,1.7-3.9,3.9-4l37.6,37.6
		C69.2,77.2,67.4,78.2,66.8,78.5z"/>
</g>
</svg>
