<?xml version="1.0" encoding="utf-8"?>
<!-- Generator: Adobe Illustrator 25.4.0, SVG Export Plug-In . SVG Version: 6.00 Build 0)  -->
<svg version="1.1" id="Capa_1" xmlns="http://www.w3.org/2000/svg" xmlns:xlink="http://www.w3.org/1999/xlink" x="0px" y="0px"
	 viewBox="0 0 100 100" style="enable-background:new 0 0 100 100;" xml:space="preserve">
<g>
	<g>
		<g>
			<path d="M45.4,88.4c-2.8,0-5.6-1-7.9-3L20.3,70.2c-0.7-0.6-1.7-1-2.6-1H12c-6.6,0-12-5.4-12-12V42.8c0-6.6,5.4-12,12-12h5.7
				c1,0,1.9-0.4,2.6-1l17.3-15.2c3.6-3.2,8.5-3.9,12.9-1.9c4.4,2,7.1,6.2,7.1,10.9v52.7c0,4.8-2.7,9-7.1,10.9
				C48.8,88,47.1,88.4,45.4,88.4z M12,38.8c-2.2,0-4,1.8-4,4v14.4c0,2.2,1.8,4,4,4h5.7c2.9,0,5.7,1.1,7.9,3l17.3,15.2
				c1.8,1.6,3.7,0.9,4.3,0.6c0.6-0.2,2.4-1.2,2.4-3.6V23.6c0-2.4-1.8-3.4-2.4-3.6c-0.6-0.2-2.5-0.9-4.3,0.6L25.6,35.8
				c-2.2,1.9-5,3-7.9,3H12z"/>
		</g>
	</g>
</g>
<g>
	<g>
		<path d="M66.5,62.3c-1,0-2-0.4-2.8-1.2c-1.6-1.6-1.6-4.1,0-5.7c3-3,3-7.9,0-10.9c-1.6-1.6-1.6-4.1,0-5.7c1.6-1.6,4.1-1.6,5.7,0
			c3,3,4.6,6.9,4.6,11.1c0,4.2-1.6,8.1-4.6,11.1C68.5,61.9,67.5,62.3,66.5,62.3z"/>
	</g>
</g>
</svg>
