<?xml version="1.0" encoding="utf-8"?>
<!-- Generator: Adobe Illustrator 26.1.0, SVG Export Plug-In . SVG Version: 6.00 Build 0)  -->
<svg version="1.1" id="Capa_1" xmlns="http://www.w3.org/2000/svg" xmlns:xlink="http://www.w3.org/1999/xlink" x="0px" y="0px"
	 viewBox="0 0 100 100" style="enable-background:new 0 0 100 100;" xml:space="preserve">
<g>
	<path d="M88,93H12c-4.4,0-8.3-2.3-10.5-6.1c-2.2-3.8-2.1-8.4,0.2-12.1l38-62.7c2.2-3.6,6-5.8,10.3-5.8c4.2,0,8.1,2.2,10.3,5.8
		l38,62.7c2.3,3.8,2.3,8.3,0.2,12.1S92.4,93,88,93z M50,14.3c-0.7,0-2.4,0.2-3.4,1.9l-38,62.7c-1.1,1.8-0.4,3.4-0.1,4
		c0.3,0.6,1.4,2,3.5,2h76c2.1,0,3.1-1.4,3.5-2c0.3-0.6,1-2.2-0.1-4l-38-62.7C52.4,14.4,50.7,14.3,50,14.3z"/>
</g>
<g>
	<g>
		<path d="M50,62.9c-2.2,0-4-1.8-4-4v-26c0-2.2,1.8-4,4-4s4,1.8,4,4v26C54,61.1,52.2,62.9,50,62.9z"/>
	</g>
	<g>
		<circle cx="50" cy="74.2" r="4"/>
	</g>
</g>
</svg>
