<?xml version="1.0" encoding="utf-8"?>
<!-- Generator: Adobe Illustrator 25.0.1, SVG Export Plug-In . SVG Version: 6.00 Build 0)  -->
<svg version="1.1" id="Capa_1" xmlns="http://www.w3.org/2000/svg" xmlns:xlink="http://www.w3.org/1999/xlink" x="0px" y="0px"
	 viewBox="0 0 100 100" style="enable-background:new 0 0 100 100;" xml:space="preserve">
<path d="M91.3,38.9c-0.1-0.1-0.1-0.1-0.2-0.2l-0.1-0.1L67.4,14.9c0,0,0,0,0,0l-0.1-0.1c-0.1-0.1-0.1-0.1-0.2-0.1
	C65.3,13,62.9,12,60.3,12H57l-9.6-9.6c-1.9-1.9-4.4-2.9-7.1-2.9H19.5c-5.5,0-10,4.5-10,10v68c0,5.5,4.5,10,10,10h10V90
	c0,5.5,4.5,10,10,10H84c5.5,0,10-4.5,10-10V45.7C94,43.1,93,40.7,91.3,38.9z M66.8,25.7l6.8,6.8l6.8,6.8H68.8c-1.1,0-2-0.9-2-2V25.7
	z M19.5,79.5c-1.1,0-2-0.9-2-2v-68c0-1.1,0.9-2,2-2h19.4V12c-5.2,0.3-9.4,4.6-9.4,10v57.5H19.5z M86,90c0,1.1-0.9,2-2,2H39.4
	c-1.1,0-2-0.9-2-2V22c0-1.1,0.9-2,2-2h19.4v17.2c0,5.5,4.5,10,10,10H86V90z"/>
</svg>
