<?xml version="1.0" encoding="utf-8"?>
<!-- Generator: Adobe Illustrator 25.0.1, SVG Export Plug-In . SVG Version: 6.00 Build 0)  -->
<svg version="1.1" id="Capa_1" xmlns="http://www.w3.org/2000/svg" xmlns:xlink="http://www.w3.org/1999/xlink" x="0px" y="0px"
	 viewBox="0 0 100 100" style="enable-background:new 0 0 100 100;" xml:space="preserve">
<g>
	<path d="M50,100C22.4,100,0,77.6,0,50S22.4,0,50,0s50,22.4,50,50S77.6,100,50,100z M50,8C26.8,8,8,26.8,8,50c0,23.2,18.8,42,42,42
		c23.2,0,42-18.8,42-42C92,26.8,73.2,8,50,8z"/>
</g>
<g>
	<path d="M80,68.9l-6.8-4.3c2.8-4.4,4.2-9.4,4.2-14.6c0-3.6-0.7-7.2-2.1-10.5l7.4-3.1c1.8,4.3,2.7,8.9,2.7,13.6
		C85.4,56.7,83.5,63.2,80,68.9z"/>
</g>
<g>
	<path d="M20,68.9c-3.6-5.6-5.4-12.2-5.4-18.9c0-19.5,15.9-35.4,35.4-35.4c4.7,0,9.3,0.9,13.6,2.7l-3.1,7.4
		c-3.3-1.4-6.9-2.1-10.5-2.1c-15.1,0-27.4,12.3-27.4,27.4c0,5.2,1.5,10.2,4.2,14.6L20,68.9z"/>
</g>
<path d="M77.8,27.9l-5.7-5.7L54.6,39.8c-1.4-0.6-2.9-1-4.6-1c-6.2,0-11.2,5-11.2,11.2c0,6.2,5,11.2,11.2,11.2
	c6.2,0,11.2-5,11.2-11.2c0-1.6-0.4-3.2-1-4.6L77.8,27.9z M50,53.2c-1.8,0-3.2-1.4-3.2-3.2c0-1.8,1.4-3.2,3.2-3.2
	c1.8,0,3.2,1.4,3.2,3.2C53.2,51.8,51.8,53.2,50,53.2z"/>
</svg>
