<?xml version="1.0" encoding="utf-8"?>
<!-- Generator: Adobe Illustrator 25.0.1, SVG Export Plug-In . SVG Version: 6.00 Build 0)  -->
<svg version="1.1" id="Capa_1" xmlns="http://www.w3.org/2000/svg" xmlns:xlink="http://www.w3.org/1999/xlink" x="0px" y="0px"
	 viewBox="0 0 100 100" style="enable-background:new 0 0 100 100;" xml:space="preserve">
<path d="M50,0C43.2,0,9.3,0.6,9.3,12.6v74.9c0,12,33.9,12.6,40.7,12.6s40.7-0.6,40.7-12.6V12.6C90.7,0.6,56.8,0,50,0z M82.7,48.8
	c-2.2,1.9-13.6,5.2-32.7,5.2c-19.1,0-30.5-3.3-32.7-5.2V20.8c10.5,4.1,28,4.4,32.7,4.4s22.2-0.3,32.7-4.4V48.8z M50,8
	c17,0,27.9,2.6,31.7,4.6C77.9,14.5,67,17.1,50,17.1c-17,0-27.9-2.6-31.7-4.6C22.1,10.6,33,8,50,8z M50,92c-19.1,0-30.5-3.3-32.7-5.2
	V57.7c10.5,4.1,28,4.4,32.7,4.4s22.2-0.3,32.7-4.4v29.1C80.5,88.7,69.1,92,50,92z"/>
</svg>
