<?xml version="1.0" encoding="utf-8"?>
<!-- Generator: Adobe Illustrator 25.0.1, SVG Export Plug-In . SVG Version: 6.00 Build 0)  -->
<svg version="1.1" id="Capa_1" xmlns="http://www.w3.org/2000/svg" xmlns:xlink="http://www.w3.org/1999/xlink" x="0px" y="0px"
	 viewBox="0 0 100 100" style="enable-background:new 0 0 100 100;" xml:space="preserve">
<path d="M50,0C43.2,0,9.3,0.6,9.3,12.6v74.9c0,12,33.9,12.6,40.7,12.6s40.7-0.6,40.7-12.6V12.6C90.7,0.6,56.8,0,50,0z M50,8
	c17,0,27.9,2.6,31.7,4.6C77.9,14.5,67,17.1,50,17.1c-17,0-27.9-2.6-31.7-4.6C22.1,10.6,33,8,50,8z M46,25.1V54
	c-5.9-0.1-10.9-0.6-15.1-1.2V23.9C36.5,24.7,42.1,25,46,25.1z M46,62v29.9c-5.9-0.1-10.9-0.6-15.1-1.2V60.9
	C36.5,61.6,42.1,61.9,46,62z M54,62c3.9-0.1,9.4-0.4,15-1.1v29.8c-4.2,0.6-9.2,1.1-15,1.2V62z M54,54V25.1c3.9-0.1,9.4-0.4,15-1.1
	v28.8C64.9,53.4,59.9,53.9,54,54z M17.3,20.8c1.7,0.7,3.6,1.2,5.6,1.7v28.7c-2.9-0.8-4.8-1.6-5.6-2.3V20.8z M17.3,57.7
	c1.7,0.7,3.6,1.2,5.6,1.7v29.7c-2.9-0.8-4.8-1.6-5.6-2.3V57.7z M82.7,86.8c-0.8,0.7-2.7,1.5-5.7,2.3V59.4c2-0.5,3.9-1.1,5.7-1.7
	V86.8z M82.7,48.8c-0.8,0.7-2.7,1.5-5.7,2.3V22.5c2-0.5,3.9-1.1,5.7-1.7V48.8z"/>
</svg>
