<?xml version="1.0" encoding="utf-8"?>
<!-- Generator: Adobe Illustrator 25.0.1, SVG Export Plug-In . SVG Version: 6.00 Build 0)  -->
<svg version="1.1" id="Capa_1" xmlns="http://www.w3.org/2000/svg" xmlns:xlink="http://www.w3.org/1999/xlink" x="0px" y="0px"
	 viewBox="0 0 100 100" style="enable-background:new 0 0 100 100;" xml:space="preserve">
<g>
	<path d="M76.6,32.7H31.9v-6.6C31.9,16.1,40,8,50,8c4.8,0,9.4,1.9,12.8,5.3l5.7-5.7C63.5,2.7,57,0,50,0C35.6,0,23.9,11.7,23.9,26.1
		v6.6h-0.4c-3.9,0-7.1,3.2-7.1,7.1v53.1c0,3.9,3.2,7.1,7.1,7.1h53.1c3.9,0,7.1-3.2,7.1-7.1V39.8C83.6,35.9,80.5,32.7,76.6,32.7z
		 M75.6,92H24.4V40.7h51.3V92z"/>
	<rect x="35.6" y="61.3" width="28.9" height="10"/>
</g>
</svg>
