<?xml version="1.0" encoding="utf-8"?>
<!-- Generator: Adobe Illustrator 25.0.1, SVG Export Plug-In . SVG Version: 6.00 Build 0)  -->
<svg version="1.1" id="Capa_1" xmlns="http://www.w3.org/2000/svg" xmlns:xlink="http://www.w3.org/1999/xlink" x="0px" y="0px"
	 viewBox="0 0 100 100" style="enable-background:new 0 0 100 100;" xml:space="preserve">
<g>
</g>
<g>
</g>
<g>
	<rect x="30.14" y="80.88" width="39.73" height="8"/>
</g>
<g>
	<path d="M0,7.29l5.06,4.69C2.07,13.4,0,16.44,0,19.96v47.45c0,4.87,3.96,8.84,8.84,8.84h60.49l14.24,14.24l5.66-5.66L5.66,1.64
		L0,7.29z M8.84,68.25C8.38,68.25,8,67.87,8,67.41V19.96c0-0.46,0.38-0.84,0.84-0.84h3.36l49.12,49.12H8.84z"/>
	<path d="M91.16,11.12H26.81l8,8h56.35c0.46,0,0.84,0.38,0.84,0.84v47.45c0,0.46-0.38,0.84-0.84,0.84h-7.22l7.96,7.96
		c4.53-0.38,8.1-4.18,8.1-8.8V19.96C100,15.09,96.04,11.12,91.16,11.12z"/>
</g>
</svg>
