<?xml version="1.0" encoding="utf-8"?>
<!-- Generator: Adobe Illustrator 25.0.1, SVG Export Plug-In . SVG Version: 6.00 Build 0)  -->
<svg version="1.1" id="Capa_1" xmlns="http://www.w3.org/2000/svg" xmlns:xlink="http://www.w3.org/1999/xlink" x="0px" y="0px"
	 viewBox="0 0 100 100" style="enable-background:new 0 0 100 100;" xml:space="preserve">
<g>
	<path d="M39.8,71.3c-1.6,0-3.1-0.6-4.2-1.8L22,56l5.7-5.7l12.1,12.1l32.5-32.5l5.7,5.7L44,69.5C42.9,70.6,41.4,71.3,39.8,71.3z"/>
</g>
<g>
	<path d="M50,100C22.4,100,0,77.6,0,50S22.4,0,50,0s50,22.4,50,50S77.6,100,50,100z M50,8C26.8,8,8,26.8,8,50c0,23.2,18.8,42,42,42
		c23.2,0,42-18.8,42-42C92,26.8,73.2,8,50,8z"/>
</g>
</svg>
