<?xml version="1.0" encoding="utf-8"?>
<!-- Generator: Adobe Illustrator 25.0.1, SVG Export Plug-In . SVG Version: 6.00 Build 0)  -->
<svg version="1.1" id="Capa_1" xmlns="http://www.w3.org/2000/svg" xmlns:xlink="http://www.w3.org/1999/xlink" x="0px" y="0px"
	 viewBox="0 0 100 100" style="enable-background:new 0 0 100 100;" xml:space="preserve">
<path d="M96.2,21.4c-2.4-1.4-5.3-1.4-7.7,0L53.2,41.9V28c0-2.8-1.4-5.3-3.8-6.6c-2.4-1.4-5.3-1.4-7.7,0l-37.9,22
	C1.4,44.8,0,47.2,0,50c0,2.8,1.4,5.2,3.8,6.6l37.9,22c1.2,0.7,2.5,1,3.8,1c1.3,0,2.6-0.3,3.8-1c2.4-1.4,3.8-3.9,3.8-6.6V58.1
	l35.3,20.5c1.2,0.7,2.5,1,3.8,1c1.3,0,2.6-0.3,3.8-1c2.4-1.4,3.8-3.9,3.8-6.6V28C100,25.3,98.6,22.8,96.2,21.4z M45.2,71.4L8.3,50
	l36.9-21.4V71.4z M54.6,50.3L54.6,50.3L54.6,50.3C54.6,50.3,54.6,50.3,54.6,50.3z M92,71.4L55.1,50L92,28.6V71.4z"/>
</svg>
