<?xml version="1.0" encoding="utf-8"?>
<!-- Generator: Adobe Illustrator 25.0.1, SVG Export Plug-In . SVG Version: 6.00 Build 0)  -->
<svg version="1.1" id="Capa_1" xmlns="http://www.w3.org/2000/svg" xmlns:xlink="http://www.w3.org/1999/xlink" x="0px" y="0px"
	 viewBox="0 0 100 100" style="enable-background:new 0 0 100 100;" xml:space="preserve">
<path d="M83.6,30.7l-0.2-0.2c0,0,0,0,0,0L69.7,16.8L55.9,2.9C54,1,51.5,0,48.8,0H23.5c-5.5,0-10,4.5-10,10v80c0,5.5,4.5,10,10,10
	h53.1c5.5,0,10-4.5,10-10V37.7C86.5,35.1,85.5,32.5,83.6,30.7z M72.9,31.2H57.3c-1.1,0-2-0.9-2-2V13.7l8.8,8.8L72.9,31.2z M76.5,92
	H23.5c-1.1,0-2-0.9-2-2V10c0-1.1,0.9-2,2-2h23.8v21.2c0,5.5,4.5,10,10,10h21.2V90C78.5,91.1,77.6,92,76.5,92z"/>
<g>
	<rect x="29.5" y="47.2" width="29.1" height="8"/>
</g>
<g>
	<rect x="29.5" y="63.2" width="41.1" height="8"/>
</g>
</svg>
