<?xml version="1.0" encoding="utf-8"?>
<!-- Generator: Adobe Illustrator 25.0.1, SVG Export Plug-In . SVG Version: 6.00 Build 0)  -->
<svg version="1.1" id="Capa_1" xmlns="http://www.w3.org/2000/svg" xmlns:xlink="http://www.w3.org/1999/xlink" x="0px" y="0px"
	 viewBox="0 0 100 100" style="enable-background:new 0 0 100 100;" xml:space="preserve">
<g>
	<path d="M90,93.91H10c-5.51,0-10-4.49-10-10V18.28c0-5.51,4.49-10,10-10h24.51c4.46,0,8.42,3,9.63,7.3l1.79,6.36
		c0.24,0.86,1.03,1.46,1.93,1.46H90c5.51,0,10,4.49,10,10v50.5C100,89.42,95.51,93.91,90,93.91z M10,16.28c-1.1,0-2,0.9-2,2v65.62
		c0,1.1,0.9,2,2,2h80c1.1,0,2-0.9,2-2V33.4c0-1.1-0.9-2-2-2H47.85c-4.46,0-8.42-3-9.63-7.3v0l-1.79-6.36
		c-0.24-0.86-1.03-1.46-1.93-1.46H10z"/>
</g>
</svg>
