<?xml version="1.0" encoding="utf-8"?>
<!-- Generator: Adobe Illustrator 25.0.1, SVG Export Plug-In . SVG Version: 6.00 Build 0)  -->
<svg version="1.1" id="Capa_1" xmlns="http://www.w3.org/2000/svg" xmlns:xlink="http://www.w3.org/1999/xlink" x="0px" y="0px"
	 viewBox="0 0 100 100" style="enable-background:new 0 0 100 100;" xml:space="preserve">
<g>
	<g>
		<path d="M67.9,70.7H32.1c-5.5,0-10-4.5-10-10V39.3c0-5.5,4.5-10,10-10h35.8c5.5,0,10,4.5,10,10v21.4
			C77.9,66.2,73.4,70.7,67.9,70.7z M32.1,37.3c-1.1,0-2,0.9-2,2v21.4c0,1.1,0.9,2,2,2h35.8c1.1,0,2-0.9,2-2V39.3c0-1.1-0.9-2-2-2
			H32.1z"/>
	</g>
	<g>
		<path d="M90,100H79.9c-5.5,0-10-4.5-10-10v-4.7c0-1.1-0.9-2-2-2H32.1c-1.1,0-2,0.9-2,2V90c0,5.5-4.5,10-10,10H10
			c-5.5,0-10-4.5-10-10V10C0,4.5,4.5,0,10,0h10.1c5.5,0,10,4.5,10,10v4.7c0,1.1,0.9,2,2,2h35.8c1.1,0,2-0.9,2-2V10
			c0-5.5,4.5-10,10-10H90c5.5,0,10,4.5,10,10v80C100,95.5,95.5,100,90,100z M32.1,75.3h35.8c5.5,0,10,4.5,10,10V90c0,1.1,0.9,2,2,2
			H90c1.1,0,2-0.9,2-2V10c0-1.1-0.9-2-2-2H79.9c-1.1,0-2,0.9-2,2v4.7c0,5.5-4.5,10-10,10H32.1c-5.5,0-10-4.5-10-10V10
			c0-1.1-0.9-2-2-2H10c-1.1,0-2,0.9-2,2v80c0,1.1,0.9,2,2,2h10.1c1.1,0,2-0.9,2-2v-4.7C22.1,79.8,26.6,75.3,32.1,75.3z"/>
	</g>
	<g>
		<path d="M19,88.7h-8v-7.9h8V88.7z M19,74.9h-8v-8h8V74.9z M19,61h-8v-8h8V61z M19,47.1h-8v-8h8V47.1z M19,33.2h-8v-8h8V33.2z
			 M19,19.3h-8v-8h8V19.3z"/>
	</g>
	<g>
		<path d="M89,88.7h-8v-7.9h8V88.7z M89,74.9h-8v-8h8V74.9z M89,61h-8v-8h8V61z M89,47.1h-8v-8h8V47.1z M89,33.2h-8v-8h8V33.2z
			 M89,19.3h-8v-8h8V19.3z"/>
	</g>
</g>
</svg>
