<?xml version="1.0" encoding="utf-8"?>
<!-- Generator: Adobe Illustrator 25.0.1, SVG Export Plug-In . SVG Version: 6.00 Build 0)  -->
<svg version="1.1" id="Capa_1" xmlns="http://www.w3.org/2000/svg" xmlns:xlink="http://www.w3.org/1999/xlink" x="0px" y="0px"
	 viewBox="0 0 100 100" style="enable-background:new 0 0 100 100;" xml:space="preserve">
<g>
	<path d="M74.6,96.8H64.1c-5.5,0-9.9-4.4-9.9-9.9V69.2c0-1-0.9-1.9-1.9-1.9h-5.5c-1,0-1.9,0.9-1.9,1.9v17.7c0,5.5-4.4,9.9-9.9,9.9
		h-9.6c-5.5,0-9.9-4.4-9.9-9.9v-28c0-1-0.9-1.9-1.9-1.9H9.9c-4.2,0-7.8-2.5-9.3-6.5c-1.4-3.9-0.3-8.2,2.9-11l40.1-34
		c3.7-3.1,9.1-3.1,12.8,0l40.1,34c3.2,2.7,4.3,7,2.9,11c-1.4,3.9-5.1,6.5-9.3,6.5h-3.7c-1,0-1.9,0.9-1.9,1.9v28
		C84.5,92.3,80.1,96.8,74.6,96.8z M46.8,59.3h5.5c5.5,0,9.9,4.4,9.9,9.9v17.7c0,1,0.9,1.9,1.9,1.9h10.6c1,0,1.9-0.9,1.9-1.9v-28
		c0-5.5,4.4-9.9,9.9-9.9h3.7c1.2,0,1.6-0.9,1.8-1.2c0.1-0.4,0.4-1.3-0.6-2.1l-40.1-34c-0.7-0.6-1.7-0.6-2.5,0l-40.1,34
		c-0.9,0.8-0.7,1.7-0.6,2.1C8.3,48.1,8.7,49,9.9,49h3.7c5.5,0,9.9,4.4,9.9,9.9v28c0,1,0.9,1.9,1.9,1.9H35c1,0,1.9-0.9,1.9-1.9V69.2
		C36.9,63.8,41.3,59.3,46.8,59.3z"/>
</g>
</svg>
