<?xml version="1.0" encoding="utf-8"?>
<!-- Generator: Adobe Illustrator 25.0.1, SVG Export Plug-In . SVG Version: 6.00 Build 0)  -->
<svg version="1.1" id="Capa_1" xmlns="http://www.w3.org/2000/svg" xmlns:xlink="http://www.w3.org/1999/xlink" x="0px" y="0px"
	 viewBox="0 0 100 100" style="enable-background:new 0 0 100 100;" xml:space="preserve">
<g>
</g>
<g>
</g>
<g>
	<path d="M76.55,32.71h-0.43v-6.58C76.12,11.72,64.41,0,50,0S23.88,11.72,23.88,26.12v6.58h-0.43c-3.91,0-7.09,3.18-7.09,7.09v53.11
		c0,3.91,3.18,7.09,7.09,7.09h53.11c3.91,0,7.09-3.18,7.09-7.09V39.8C83.65,35.89,80.46,32.71,76.55,32.71z M31.88,26.12
		C31.88,16.13,40.01,8,50,8s18.12,8.13,18.12,18.12v6.58H31.88V26.12z M75.65,92H24.35V40.71h51.29V92z"/>
	<rect x="46" y="54.81" width="8" height="23.08"/>
</g>
</svg>
