<?xml version="1.0" encoding="utf-8"?>
<!-- Generator: Adobe Illustrator 25.0.1, SVG Export Plug-In . SVG Version: 6.00 Build 0)  -->
<svg version="1.1" id="Capa_1" xmlns="http://www.w3.org/2000/svg" xmlns:xlink="http://www.w3.org/1999/xlink" x="0px" y="0px"
	 viewBox="0 0 100 100" style="enable-background:new 0 0 100 100;" xml:space="preserve">
<path d="M97.5,23.3c-1.5-0.6-3.2-0.3-4.4,0.9L82.4,34.9C73.4,27.2,62,23,50,23C22.4,23,0,45.4,0,73h8c0-23.2,18.8-42,42-42
	c9.9,0,19.2,3.4,26.7,9.6L66.2,51.1c-1.1,1.1-1.5,2.9-0.9,4.4c0.6,1.5,2.1,2.5,3.7,2.5H96c2.2,0,4-1.8,4-4V27
	C100,25.4,99,23.9,97.5,23.3z M92,49.9H78.7L92,36.7V49.9z"/>
</svg>
