<?xml version="1.0" encoding="utf-8"?>
<!-- Generator: Adobe Illustrator 25.0.1, SVG Export Plug-In . SVG Version: 6.00 Build 0)  -->
<svg version="1.1" id="Capa_1" xmlns="http://www.w3.org/2000/svg" xmlns:xlink="http://www.w3.org/1999/xlink" x="0px" y="0px"
	 viewBox="0 0 100 100" style="enable-background:new 0 0 100 100;" xml:space="preserve">
<path d="M96,42.1H69.1c-1.6,0-3.1,1-3.7,2.5s-0.3,3.2,0.9,4.4l10.5,10.5C69.2,65.6,59.9,69,50,69C26.8,69,8,50.2,8,27H0
	c0,27.6,22.4,50,50,50c12,0,23.4-4.2,32.4-11.9l10.8,10.8C93.9,76.6,95,77,96,77c0.5,0,1-0.1,1.5-0.3c1.5-0.6,2.5-2.1,2.5-3.7V46.1
	C100,43.8,98.2,42.1,96,42.1z M92,63.3L78.7,50.1H92V63.3z"/>
</svg>
