<?xml version="1.0" encoding="utf-8"?>
<!-- Generator: Adobe Illustrator 25.0.1, SVG Export Plug-In . SVG Version: 6.00 Build 0)  -->
<svg version="1.1" id="Capa_1" xmlns="http://www.w3.org/2000/svg" xmlns:xlink="http://www.w3.org/1999/xlink" x="0px" y="0px"
	 viewBox="0 0 100 100" style="enable-background:new 0 0 100 100;" xml:space="preserve">
<g>
	<g>
		<path d="M92.5,100H7.5C3.4,100,0,96.6,0,92.5V7.5C0,3.4,3.4,0,7.5,0h84.9c4.2,0,7.5,3.4,7.5,7.5v84.9C100,96.6,96.6,100,92.5,100z
			 M8,92h84V8H8V92z"/>
	</g>
	<g>
		<path d="M79.8,71.5H20.2c-2.3,0-4.1-1.8-4.1-4.1V20.2c0-2.3,1.8-4.1,4.1-4.1h59.6c2.3,0,4.1,1.8,4.1,4.1v47.2
			C83.9,69.7,82,71.5,79.8,71.5z M24.1,63.5h51.8V24.1H24.1V63.5z"/>
	</g>
</g>
</svg>
