<?xml version="1.0" encoding="utf-8"?>
<!-- Generator: Adobe Illustrator 25.0.1, SVG Export Plug-In . SVG Version: 6.00 Build 0)  -->
<svg version="1.1" id="Capa_1" xmlns="http://www.w3.org/2000/svg" xmlns:xlink="http://www.w3.org/1999/xlink" x="0px" y="0px"
	 viewBox="0 0 100 100" style="enable-background:new 0 0 100 100;" xml:space="preserve">
<path d="M50,23c-12,0-23.4,4.2-32.4,11.9L6.8,24.2C5.7,23,4,22.7,2.5,23.3C1,23.9,0,25.4,0,27v26.9c0,2.2,1.8,4,4,4h26.9
	c1.6,0,3.1-1,3.7-2.5c0.6-1.5,0.3-3.2-0.9-4.4L23.3,40.6C30.8,34.4,40.1,31,50,31c23.2,0,42,18.8,42,42h8C100,45.4,77.6,23,50,23z
	 M8,49.9V36.7l13.3,13.3H8z"/>
</svg>
