<?xml version="1.0" encoding="utf-8"?>
<!-- Generator: Adobe Illustrator 25.0.1, SVG Export Plug-In . SVG Version: 6.00 Build 0)  -->
<svg version="1.1" id="Capa_1" xmlns="http://www.w3.org/2000/svg" xmlns:xlink="http://www.w3.org/1999/xlink" x="0px" y="0px"
	 viewBox="0 0 100 100" style="enable-background:new 0 0 100 100;" xml:space="preserve">
<g>
	<path d="M67.4,100H33.6c-5.5,0-10-4.5-10-10V10c0-5.5,4.5-10,10-10h33.8c5.5,0,10,4.5,10,10v80C77.4,95.5,72.9,100,67.4,100z
		 M33.6,8c-1.1,0-2,0.9-2,2v80c0,1.1,0.9,2,2,2h33.8c1.1,0,2-0.9,2-2V10c0-1.1-0.9-2-2-2H33.6z"/>
</g>
<g>
	<g>
		<circle cx="50.5" cy="50.2" r="4"/>
	</g>
	<g>
		<circle cx="39.2" cy="50.2" r="4"/>
	</g>
	<g>
		<circle cx="61.8" cy="50.2" r="4"/>
	</g>
	<g>
		<circle cx="50.5" cy="61.3" r="4"/>
	</g>
	<g>
		<circle cx="39.2" cy="61.3" r="4"/>
	</g>
	<g>
		<circle cx="61.8" cy="61.3" r="4"/>
	</g>
	<g>
		<circle cx="50.5" cy="72.4" r="4"/>
	</g>
	<g>
		<circle cx="39.2" cy="72.4" r="4"/>
	</g>
	<g>
		<circle cx="61.8" cy="72.4" r="4"/>
	</g>
	<g>
		<circle cx="50.5" cy="83.4" r="4"/>
	</g>
</g>
<g>
	<path d="M50.5,41.2c-7.7,0-14-6.3-14-14c0-7.7,6.3-14,14-14c7.7,0,14,6.3,14,14C64.5,35,58.2,41.2,50.5,41.2z M50.5,21.3
		c-3.3,0-6,2.7-6,6s2.7,6,6,6c3.3,0,6-2.7,6-6S53.8,21.3,50.5,21.3z"/>
</g>
</svg>
