<?xml version="1.0" encoding="utf-8"?>
<!-- Generator: Adobe Illustrator 25.0.1, SVG Export Plug-In . SVG Version: 6.00 Build 0)  -->
<svg version="1.1" id="Capa_1" xmlns="http://www.w3.org/2000/svg" xmlns:xlink="http://www.w3.org/1999/xlink" x="0px" y="0px"
	 viewBox="0 0 100 100" style="enable-background:new 0 0 100 100;" xml:space="preserve">
<path d="M10,69.6c-1.1,0-2-0.9-2-2V32.4c0-1.1,0.9-2,2-2h11.5l-9.6,9.6l5.7,5.7l19.2-19.2L17.6,7.2l-5.7,5.7l9.6,9.6H10
	c-5.5,0-10,4.5-10,10v35.2c0,5.5,4.5,10,10,10h46.5v-8H10z"/>
<path d="M90,22.4H43.5v8H90c1.1,0,2,0.9,2,2v35.2c0,1.1-0.9,2-2,2H78.5l9.6-9.6l-5.7-5.7L63.2,73.6l19.2,19.2l5.7-5.7l-9.6-9.6H90
	c5.5,0,10-4.5,10-10V32.4C100,26.9,95.5,22.4,90,22.4z"/>
</svg>
