<?xml version="1.0" encoding="utf-8"?>
<!-- Generator: Adobe Illustrator 25.0.1, SVG Export Plug-In . SVG Version: 6.00 Build 0)  -->
<svg version="1.1" id="Capa_1" xmlns="http://www.w3.org/2000/svg" xmlns:xlink="http://www.w3.org/1999/xlink" x="0px" y="0px"
	 viewBox="0 0 100 100" style="enable-background:new 0 0 100 100;" xml:space="preserve">
<g>
	<g>
		<path d="M38.2,100c-0.9,0-1.7-0.2-2.6-0.5l-9.8-3.9c-1.7-0.7-3-2-3.7-3.6c-0.7-1.7-0.7-3.5,0-5.2l2-4.9c-2-1.6-3.8-3.4-5.5-5.4
			l-4.9,2.1c-3.5,1.5-7.5-0.2-8.9-3.6l-4.1-9.7C-0.8,61.6,1,57.7,5,56l4.3-1.8c-0.3-2.5-0.3-5.1-0.1-7.7l-4.9-2
			c-1.7-0.7-3-2-3.7-3.6s-0.7-3.5,0-5.2l3.9-9.8c0.7-1.7,2-3,3.6-3.7c1.7-0.7,3.5-0.7,5.2,0l4.9,2c1.6-2,3.4-3.8,5.4-5.5l-2.1-4.9
			c-1.5-3.5,0.2-7.5,3.6-8.9l9.7-4.1C36.5,0,38.3,0,40,0.7c1.7,0.7,3,2,3.7,3.6l2.1,4.9c2.5-0.3,5.1-0.3,7.7-0.1l2-4.9
			c0.7-1.7,2-3,3.6-3.7c1.7-0.7,3.5-0.7,5.2,0l9.8,4c1.7,0.7,3,2,3.7,3.6c0.7,1.7,0.7,3.5,0,5.2l-2,4.9c2,1.6,3.8,3.4,5.5,5.4
			l4.9-2.1c1.7-0.7,3.5-0.7,5.2,0c1.7,0.7,3,2,3.7,3.6l4.1,9.7c0.8,1.8,0.7,3.8-0.1,5.5c-0.8,1.6-2.2,2.9-4.1,3.7l-4.3,1.8
			c0.3,2.5,0.3,5.1,0.1,7.7l4.9,2c1.7,0.7,3,2,3.7,3.6c0.7,1.7,0.7,3.5,0,5.2l-3.9,9.8c-0.7,1.7-2,3-3.6,3.7c-1.7,0.7-3.5,0.7-5.2,0
			l-4.9-2c-1.6,2-3.4,3.8-5.4,5.5l2.1,4.9c0.7,1.7,0.7,3.5,0,5.2c-0.7,1.7-2,3-3.6,3.7l-9.7,4.1c-1.7,0.7-3.5,0.7-5.2,0
			c-1.7-0.7-3-2-3.7-3.6l-2.1-4.9c-2.5,0.3-5.1,0.3-7.7,0.1l-2,4.9c-0.7,1.7-2,3-3.6,3.7C40,99.8,39.1,100,38.2,100z M30,88.6
			l7.6,3.1l1.9-4.6c1.1-2.8,4-4.5,7.1-4.2c2.5,0.3,5,0.2,7.5-0.1c3.1-0.4,6,1.3,7.2,4.1l2,4.6l7.5-3.2l-2-4.6c-1.2-2.8-0.4-6,2-8
			c1.9-1.6,3.7-3.4,5.2-5.3c1.9-2.5,5.1-3.3,8-2.2l4.6,1.9l3.1-7.6L87,60.6c-2.8-1.1-4.5-4-4.2-7.1c0.3-2.5,0.2-5.1-0.1-7.6
			c-0.4-2.9,1.2-5.8,3.9-6.9l4.8-2l-3.2-7.5l-4.6,2c-2.8,1.2-6,0.4-8-2c-1.6-1.9-3.4-3.7-5.3-5.2c-2.5-1.9-3.3-5.1-2.2-8l1.9-4.6
			l-7.6-3.1L60.6,13c-1.1,2.8-4,4.5-7.1,4.2c-2.5-0.3-5-0.2-7.5,0.1c-3.1,0.4-6-1.3-7.2-4.1l-2-4.6l-7.5,3.2l2,4.6
			c1.2,2.8,0.4,6-2,8c-1.9,1.6-3.7,3.4-5.2,5.3c-1.9,2.5-5.1,3.3-8,2.2L11.4,30l-3.1,7.6l4.6,1.9c2.8,1.1,4.5,4,4.2,7.1
			c-0.3,2.5-0.2,5.1,0.1,7.6c0.4,2.9-1.2,5.8-3.9,6.9l-4.8,2l3.2,7.5l4.6-2c2.8-1.2,6-0.4,8,2c1.6,1.9,3.4,3.7,5.3,5.2
			c2.5,1.9,3.3,5.1,2.2,8L30,88.6z M92.7,62.9C92.7,62.9,92.7,62.9,92.7,62.9L92.7,62.9z"/>
	</g>
	<g>
		<path d="M50,71.5c-2.7,0-5.4-0.5-8-1.6c-5.3-2.1-9.5-6.2-11.7-11.5C28,53.1,27.9,47.3,30.1,42s6.2-9.5,11.5-11.7
			c5.3-2.2,11.1-2.3,16.4-0.1c5.3,2.1,9.5,6.2,11.7,11.5c4.6,10.9-0.5,23.5-11.4,28.2C55.7,70.9,52.8,71.5,50,71.5z M50,36.5
			c-1.8,0-3.6,0.4-5.3,1.1l0,0c-3.3,1.4-5.9,4-7.2,7.4s-1.3,7,0.1,10.3c1.4,3.3,4,5.9,7.4,7.2c3.3,1.3,7,1.3,10.3-0.1
			c3.3-1.4,5.9-4,7.2-7.4c1.3-3.3,1.3-7-0.1-10.3c-1.4-3.3-4-5.9-7.4-7.2C53.4,36.8,51.7,36.5,50,36.5z"/>
	</g>
</g>
</svg>
