<?xml version="1.0" encoding="utf-8"?>
<!-- Generator: Adobe Illustrator 25.0.1, SVG Export Plug-In . SVG Version: 6.00 Build 0)  -->
<svg version="1.1" id="Capa_1" xmlns="http://www.w3.org/2000/svg" xmlns:xlink="http://www.w3.org/1999/xlink" x="0px" y="0px"
	 viewBox="0 0 100 100" style="enable-background:new 0 0 100 100;" xml:space="preserve">
<g>
</g>
<g>
</g>
<g>
</g>
<g>
	<g>
		<path d="M55.13,100H44.87c-3.83,0-6.73-3.16-6.73-7.36V88.2c-2.33-0.72-4.6-1.67-6.77-2.81l-3.59,3.59
			c-2.62,2.62-6.89,2.62-9.51,0l-7.26-7.26c-2.62-2.62-2.62-6.89,0-9.51l3.59-3.59c-1.14-2.17-2.08-4.43-2.81-6.77H6.73
			C3.02,61.86,0,58.84,0,55.13V44.87c0-3.71,3.02-6.73,6.73-6.73h5.08c0.72-2.33,1.67-4.6,2.81-6.77l-3.59-3.59
			c-2.62-2.62-2.62-6.89,0-9.51l7.26-7.26c2.62-2.62,6.89-2.62,9.51,0l3.59,3.59c2.16-1.14,4.43-2.08,6.77-2.81V6.73
			c0-3.71,3.02-6.73,6.73-6.73h10.26c3.83,0,6.73,3.16,6.73,7.36v4.44c2.33,0.72,4.6,1.66,6.77,2.81l3.59-3.59
			c2.62-2.62,6.89-2.62,9.51,0l7.26,7.26c2.62,2.62,2.62,6.89,0,9.51l-3.59,3.59c1.14,2.17,2.08,4.44,2.8,6.77h5.08
			c3.71,0,6.73,3.02,6.73,6.73v10.26c0,3.71-3.02,6.73-6.73,6.73H88.2c-0.72,2.33-1.66,4.6-2.8,6.77l3.59,3.59
			c2.62,2.62,2.62,6.89,0,9.51l-7.26,7.26c-2.62,2.62-6.89,2.62-9.51,0l-3.59-3.59c-2.17,1.14-4.44,2.08-6.77,2.8v5.08
			C61.86,96.98,58.84,100,55.13,100z M46.14,92h7.71v-4.76c0-3.03,1.99-5.63,4.95-6.48c2.33-0.67,4.59-1.6,6.71-2.78
			c2.69-1.5,5.94-1.06,8.08,1.08l3.37,3.37l5.46-5.46l-3.37-3.37c-2.14-2.15-2.58-5.4-1.08-8.09c1.18-2.12,2.12-4.38,2.78-6.71
			c0.85-2.96,3.45-4.95,6.48-4.95H92v-7.71h-4.76c-3.03,0-5.63-1.99-6.48-4.95c-0.67-2.33-1.6-4.59-2.78-6.71
			c-1.5-2.69-1.06-5.94,1.08-8.08l3.37-3.37l-5.46-5.46l-3.37,3.37c-2.14,2.14-5.39,2.58-8.08,1.08c-2.17-1.2-4.47-2.15-6.86-2.82
			c-2.83-0.79-4.8-3.37-4.8-6.26V8h-7.71v4.76c0,3.03-1.99,5.64-4.95,6.48c-2.33,0.67-4.59,1.6-6.71,2.78
			c-2.69,1.5-5.94,1.06-8.09-1.08l-3.37-3.37l-5.45,5.45l3.37,3.37c2.14,2.14,2.58,5.39,1.08,8.08c-1.18,2.12-2.12,4.38-2.78,6.71
			c-0.85,2.96-3.45,4.95-6.48,4.95H8v7.71h4.76c3.03,0,5.64,1.99,6.48,4.95c0.67,2.33,1.6,4.59,2.78,6.71
			c1.5,2.69,1.06,5.94-1.08,8.08l-3.37,3.37l5.46,5.46l3.37-3.37c2.14-2.15,5.39-2.58,8.09-1.08c2.17,1.2,4.47,2.15,6.86,2.82
			c2.83,0.79,4.8,3.37,4.8,6.26V92z"/>
	</g>
	<g>
		<path d="M50,71.01c-11.59,0-21.01-9.43-21.01-21.01c0-11.59,9.43-21.01,21.01-21.01c11.59,0,21.01,9.43,21.01,21.01
			C71.01,61.59,61.59,71.01,50,71.01z M50,36.99c-7.17,0-13.01,5.84-13.01,13.01c0,7.17,5.84,13.01,13.01,13.01
			c7.17,0,13.01-5.84,13.01-13.01C63.01,42.83,57.17,36.99,50,36.99z"/>
	</g>
</g>
</svg>
