<?xml version="1.0" encoding="utf-8"?>
<!-- Generator: Adobe Illustrator 25.0.1, SVG Export Plug-In . SVG Version: 6.00 Build 0)  -->
<svg version="1.1" id="Capa_1" xmlns="http://www.w3.org/2000/svg" xmlns:xlink="http://www.w3.org/1999/xlink" x="0px" y="0px"
	 viewBox="0 0 100 100" style="enable-background:new 0 0 100 100;" xml:space="preserve">
<g>
	<rect x="46" y="39.3" width="8" height="37.1"/>
</g>
<g>
	<rect x="60" y="44.2" width="8" height="27.3"/>
</g>
<g>
	<rect x="32" y="44.2" width="8" height="27.3"/>
</g>
<path d="M91.5,15.7H68V10c0-5.5-4.5-10-10-10H42c-5.5,0-10,4.5-10,10v5.7H8.5v8h7.1V90c0,5.5,4.5,10,10,10h48.9c5.5,0,10-4.5,10-10
	V23.7h7.1V15.7z M40,10c0-1.1,0.9-2,2-2H58c1.1,0,2,0.9,2,2v5.7H40V10z M76.4,90c0,1.1-0.9,2-2,2H25.6c-1.1,0-2-0.9-2-2V23.7h52.9
	V90z"/>
</svg>
