<?xml version="1.0" encoding="utf-8"?>
<!-- Generator: Adobe Illustrator 25.0.1, SVG Export Plug-In . SVG Version: 6.00 Build 0)  -->
<svg version="1.1" id="Capa_1" xmlns="http://www.w3.org/2000/svg" xmlns:xlink="http://www.w3.org/1999/xlink" x="0px" y="0px"
	 viewBox="0 0 100 100" style="enable-background:new 0 0 100 100;" xml:space="preserve">
<g>
</g>
<g>
</g>
<g>
	<g>
		<path d="M91.2,76.2H8.8c-4.9,0-8.8-4-8.8-8.8V20c0-4.9,4-8.8,8.8-8.8h82.3c4.9,0,8.8,4,8.8,8.8v47.4C100,72.3,96,76.2,91.2,76.2z
			 M8.8,19.1C8.4,19.1,8,19.5,8,20v47.4c0,0.5,0.4,0.8,0.8,0.8h82.3c0.5,0,0.8-0.4,0.8-0.8V20c0-0.5-0.4-0.8-0.8-0.8H8.8z"/>
	</g>
	<g>
		<rect x="30.1" y="80.9" width="39.7" height="8"/>
	</g>
</g>
</svg>
