<?xml version="1.0" encoding="utf-8"?>
<!-- Generator: Adobe Illustrator 25.0.1, SVG Export Plug-In . SVG Version: 6.00 Build 0)  -->
<svg version="1.1" id="Capa_1" xmlns="http://www.w3.org/2000/svg" xmlns:xlink="http://www.w3.org/1999/xlink" x="0px" y="0px"
	 viewBox="0 0 100 100" style="enable-background:new 0 0 100 100;" xml:space="preserve">
<g>
	<path d="M30.9,34.6l0.6-8c-6.6-0.5-13.1,0.1-19.5,1.7l1.9,7.8C19.4,34.6,25.1,34.2,30.9,34.6z"/>
	<path d="M11.9,44.2l1.9,7.8c7.9-1.9,16.4-2.1,24.4-0.4l1.6-7.8C30.7,41.8,21,41.9,11.9,44.2z"/>
	<path d="M91.5,13.2c-12.1-3.7-24.8-3.7-36.9,0c-1.7,0.5-3.2,1.5-4.5,2.7c-1.3-1.2-2.9-2.2-4.5-2.7c-12.1-3.7-24.8-3.7-36.9,0
		c-4.9,1.5-8.7,6.7-8.7,12v50.7c0,2.8,1.1,5.1,3.1,6.6c2.1,1.6,5,2,7.9,1.1c10.6-3.2,21.7-3.2,32.3,0l0,0c1,0.3,2.1,0.5,3,0.5
		c1.4,0,2.7-0.3,3.8-0.9c2,1,4.4,1.2,6.9,0.4c10.6-3.2,21.7-3.2,32.3,0l0,0c1,0.3,2.1,0.5,3,0.5c1.8,0,3.5-0.5,4.9-1.5
		c2-1.5,3.1-3.8,3.1-6.6V25.1C100.2,19.9,96.3,14.6,91.5,13.2z M8.5,75.9C8.2,76,8,76,7.8,76c0,0,0-0.1,0-0.2V25.1
		c0-1.7,1.5-3.9,3-4.3c5.3-1.6,10.7-2.4,16.1-2.4c5.4,0,10.9,0.8,16.1,2.4c1.1,0.3,2.3,1.6,2.8,3c-0.1,0.4-0.1,0.9-0.1,1.3v50.7
		c0,0,0,0.1,0,0.1c-0.1,0-0.2,0-0.4-0.1C33.4,72.2,20.6,72.2,8.5,75.9z M92.2,75.8c0,0.1,0,0.1,0,0.2c-0.2,0-0.4,0-0.7-0.1
		c-12.1-3.7-24.8-3.7-36.9,0c-0.1,0-0.3,0.1-0.4,0.1c0,0,0-0.1,0-0.1V25.1c0-0.4,0-0.9-0.1-1.3c0.5-1.3,1.6-2.6,2.8-3
		c5.3-1.6,10.7-2.4,16.1-2.4c5.4,0,10.9,0.8,16.1,2.4c1.5,0.5,3,2.6,3,4.3V75.8z"/>
</g>
</svg>
