<?xml version="1.0" encoding="utf-8"?>
<!-- Generator: Adobe Illustrator 25.0.1, SVG Export Plug-In . SVG Version: 6.00 Build 0)  -->
<svg version="1.1" id="Capa_1" xmlns="http://www.w3.org/2000/svg" xmlns:xlink="http://www.w3.org/1999/xlink" x="0px" y="0px"
	 viewBox="0 0 100 100" style="enable-background:new 0 0 100 100;" xml:space="preserve">
<g>
	<path d="M100,94.4L79.8,74.1v0l-8-8v0L40.5,34.8c0,0,0,0,0,0L32.7,27h0L5.6,0L0,5.6l22.3,22.3c-3.5,1.6-6,5.1-6,9.1V63
		c0,5.5,4.5,10,10,10h12.3c0.5,0,1.1,0.2,1.4,0.6L62.6,97c1.9,2,4.5,3.1,7.2,3.1c1.3,0,2.5-0.2,3.8-0.7c3.8-1.5,6.3-5.2,6.3-9.3
		v-4.7L94.4,100L100,94.4z M71.8,90.1c0,1.2-0.9,1.7-1.3,1.9c-0.4,0.2-1.3,0.4-2.2-0.5L45.7,68c-1.9-1.9-4.5-3.1-7.2-3.1H26.2
		c-1.1,0-2-0.9-2-2V37c0-1.1,0.9-2,2-2h3.1l42.4,42.4V90.1z"/>
	<path d="M68.3,8.5L68.3,8.5c0.8-0.9,1.8-0.6,2.2-0.5c0.4,0.2,1.3,0.6,1.3,1.9v44.8l8,8V9.9c0-4.1-2.5-7.7-6.3-9.3
		C69.7-0.9,65.4,0,62.6,3v0L41.6,24.7l5.7,5.7L68.3,8.5z"/>
</g>
</svg>
